<svg width="15" height="16" viewBox="0 0 15 16" fill="none" xmlns="http://www.w3.org/2000/svg">
<rect y="0.5" width="15" height="15" rx="7.5" fill="#D60000"/>
<path d="M7.9 5C7.9 4.72344 7.72125 4.5 7.5 4.5C7.27875 4.5 7.1 4.72344 7.1 5V9C7.1 9.27656 7.27875 9.5 7.5 9.5C7.72125 9.5 7.9 9.27656 7.9 9V5ZM7.5 11.5C7.63261 11.5 7.75979 11.4342 7.85355 11.3169C7.94732 11.1997 8 11.0408 8 10.875C8 10.7092 7.94732 10.5503 7.85355 10.4331C7.75979 10.3158 7.63261 10.25 7.5 10.25C7.36739 10.25 7.24021 10.3158 7.14645 10.4331C7.05268 10.5503 7 10.7092 7 10.875C7 11.0408 7.05268 11.1997 7.14645 11.3169C7.24021 11.4342 7.36739 11.5 7.5 11.5Z" fill="white"/>
</svg>
