<svg width="18" height="16" viewBox="0 0 18 16" fill="none" xmlns="http://www.w3.org/2000/svg">
<path d="M17.7681 13.2873L10.3848 1.04267C10.0939 0.560292 9.56329 0.26062 8.99998 0.26062C8.43668 0.26062 7.90606 0.560292 7.61514 1.04271L0.231871 13.2873C-0.0687501 13.7859 -0.0776447 14.4106 0.208633 14.9175C0.494981 15.4245 1.03449 15.7394 1.61668 15.7394H16.3833C16.9655 15.7394 17.505 15.4245 17.7914 14.9175C18.0776 14.4105 18.0688 13.7858 17.7681 13.2873ZM16.7709 14.3412C16.7321 14.4099 16.6757 14.4669 16.6077 14.5067C16.5396 14.5464 16.4621 14.5674 16.3833 14.5675H1.61668C1.53784 14.5674 1.46042 14.5465 1.39233 14.5067C1.32424 14.467 1.26791 14.4099 1.22908 14.3413C1.19037 14.2726 1.17056 14.1949 1.17168 14.116C1.1728 14.0372 1.1948 13.9601 1.23544 13.8925L8.61878 1.64785C8.65857 1.58232 8.71453 1.52811 8.78128 1.49041C8.84804 1.45271 8.92336 1.43279 9.00002 1.43255C9.15506 1.43255 9.30113 1.51507 9.38122 1.64785L16.7645 13.8925C16.8052 13.96 16.8272 14.0372 16.8283 14.116C16.8294 14.1948 16.8096 14.2726 16.7709 14.3412Z" fill="#FF6B6B"/>
<path d="M9.00499 5.08203C8.55921 5.08203 8.2113 5.32123 8.2113 5.74529C8.2113 7.03911 8.36349 8.89831 8.36349 10.1922C8.36353 10.5292 8.65712 10.6705 9.00502 10.6705C9.26595 10.6705 9.63562 10.5292 9.63562 10.1922C9.63562 8.89835 9.78781 7.03915 9.78781 5.74529C9.78781 5.32127 9.42904 5.08203 9.00499 5.08203ZM9.01592 11.4207C8.53755 11.4207 8.17871 11.8013 8.17871 12.258C8.17871 12.7037 8.53752 13.0952 9.01592 13.0952C9.4617 13.0952 9.84227 12.7037 9.84227 12.258C9.84227 11.8013 9.46167 11.4207 9.01592 11.4207Z" fill="#FF6B6B"/>
</svg>
