<svg width="21" height="22" viewBox="0 0 21 22" fill="none" xmlns="http://www.w3.org/2000/svg">
<path d="M9.75 16.3655V3.3905L6.255 6.8855L5.193 5.8085L10.5 0.5L15.8085 5.8085L14.7465 6.887L11.25 3.3905V16.3655H9.75ZM2.424 21.5C1.733 21.5 1.1565 21.269 0.6945 20.807C0.2325 20.345 0.001 19.768 0 19.076V15.4415H1.5V19.076C1.5 19.307 1.596 19.519 1.788 19.712C1.98 19.905 2.1915 20.001 2.4225 20H18.5775C18.8075 20 19.019 19.904 19.212 19.712C19.405 19.52 19.501 19.308 19.5 19.076V15.4415H21V19.076C21 19.767 20.769 20.3435 20.307 20.8055C19.845 21.2675 19.268 21.499 18.576 21.5H2.424Z" fill="black"/>
</svg>
