<svg width="87" height="34" viewBox="0 0 87 34" fill="none" xmlns="http://www.w3.org/2000/svg">
<rect x="0.48291" width="86.5172" height="34" rx="6" fill="#1E9E8F" fill-opacity="0.1"/>
<rect x="0.98291" y="0.5" width="85.5172" height="33" rx="5.5" stroke="#1E9E8F" stroke-opacity="0.5"/>
<path fill-rule="evenodd" clip-rule="evenodd" d="M18.207 15.4483H16.6553C16.0789 15.4483 15.5264 15.6771 15.1191 16.0845C14.7118 16.4918 14.4829 17.0442 14.4829 17.6207V23.8276C14.4829 24.404 14.7118 24.9565 15.1191 25.3638C15.5264 25.7711 16.0788 26 16.6553 26H27.8277C28.4041 26 28.9566 25.7711 29.3639 25.3638C29.7712 24.9565 30.0001 24.4041 30.0001 23.8276V17.6207C30.0001 17.0442 29.7712 16.4918 29.3639 16.0845C28.9566 15.6771 28.4042 15.4483 27.8277 15.4483H26.276V12.0344C26.276 9.80606 24.4698 8 22.2416 8C20.0134 8 18.2072 9.80622 18.2072 12.0344L18.207 15.4483ZM27.8278 16.069H16.6554C16.2442 16.069 15.8493 16.2327 15.5584 16.5236C15.2674 16.8146 15.1037 17.2095 15.1037 17.6207V23.8276C15.1037 24.2388 15.2674 24.6337 15.5584 24.9246C15.8493 25.2156 16.2442 25.3793 16.6554 25.3793H27.8278C28.239 25.3793 28.6339 25.2156 28.9248 24.9246C29.2158 24.6337 29.3795 24.2388 29.3795 23.8276V17.6207C29.3795 17.2095 29.2158 16.8146 28.9248 16.5236C28.6339 16.2327 28.239 16.069 27.8278 16.069ZM25.6553 15.4483V12.0344C25.6553 10.149 24.1268 8.62049 22.2414 8.62049C20.356 8.62049 18.8275 10.1489 18.8275 12.0344V15.4483H19.4482V12.0344C19.4482 10.492 20.6989 9.24138 22.2412 9.24138C23.7835 9.24138 25.0342 10.4921 25.0342 12.0344V15.4483H25.6553ZM24.4139 15.4483V12.0344C24.4139 10.8349 23.441 9.86187 22.2414 9.86187C21.0418 9.86187 20.0689 10.8348 20.0689 12.0344V15.4483H24.4139Z" fill="#1E9E8F"/>
<path fill-rule="evenodd" clip-rule="evenodd" d="M22.2412 23.512C22.7556 23.512 23.1722 23.0953 23.1722 22.581V20.7189C23.5493 20.4357 23.7929 19.9849 23.7929 19.4775C23.7929 18.621 23.0977 17.9258 22.2412 17.9258C21.3846 17.9258 20.6895 18.621 20.6895 19.4775C20.6895 19.9849 20.9331 20.4357 21.3101 20.7189V22.581C21.3101 23.0953 21.7268 23.512 22.2412 23.512ZM22.2412 22.8913C22.4126 22.8913 22.5515 22.7524 22.5515 22.581V20.5528C22.5515 20.4419 22.6105 20.3395 22.7067 20.2844C22.9844 20.123 23.1722 19.822 23.1722 19.4775C23.1722 18.9639 22.7548 18.5465 22.2412 18.5465C21.7276 18.5465 21.3101 18.9639 21.3101 19.4775C21.3101 19.822 21.4979 20.123 21.7757 20.2844C21.8719 20.3395 21.9308 20.4419 21.9308 20.5528V22.581C21.9308 22.7524 22.0697 22.8913 22.2412 22.8913Z" fill="#1E9E8F"/>
<path d="M40.5498 18.1875V22.0293H42.6621C43.5189 22.0293 44.1615 21.8721 44.5898 21.5576C45.0182 21.2386 45.2324 20.7441 45.2324 20.0742C45.2324 19.377 45 18.8893 44.5352 18.6113C44.0749 18.3288 43.3548 18.1875 42.375 18.1875H40.5498ZM40.5498 17.2373H42.7168C43.4232 17.2373 43.9564 17.1143 44.3164 16.8682C44.6764 16.6221 44.8564 16.1846 44.8564 15.5557C44.8564 14.9222 44.64 14.487 44.207 14.25C43.7786 14.0085 43.111 13.8877 42.2041 13.8877H40.5498V17.2373ZM39.3672 12.8896H42.2656C43.5645 12.8896 44.526 13.0879 45.1504 13.4844C45.7793 13.8809 46.0938 14.512 46.0938 15.3779C46.0938 15.5055 46.0846 15.6331 46.0664 15.7607C46.0527 15.8838 46.0117 16.0433 45.9434 16.2393C45.8796 16.4352 45.7907 16.6152 45.6768 16.7793C45.5628 16.9388 45.3942 17.1006 45.1709 17.2646C44.9521 17.4242 44.6947 17.5518 44.3984 17.6475C45.0775 17.7751 45.5924 18.0622 45.9434 18.5088C46.2943 18.9554 46.4697 19.4932 46.4697 20.1221C46.4697 21.0381 46.1689 21.7467 45.5674 22.248C44.9704 22.7493 44.0794 23 42.8945 23H39.3672V12.8896ZM49.9629 23.1367C49.2337 23.1367 48.7165 22.9408 48.4111 22.5488C48.1104 22.1569 47.96 21.4756 47.96 20.5049V12.5889L49.0947 12.5205V20.0537C49.0947 20.3636 49.097 20.612 49.1016 20.7988C49.1107 20.9857 49.1289 21.1702 49.1562 21.3525C49.1836 21.5303 49.2201 21.6647 49.2656 21.7559C49.3112 21.847 49.3773 21.9313 49.4639 22.0088C49.5505 22.0817 49.653 22.1318 49.7715 22.1592C49.8945 22.182 50.0449 22.1934 50.2227 22.1934C50.3685 22.1934 50.6556 22.166 51.084 22.1113L51.1455 23.0205C50.6761 23.098 50.2819 23.1367 49.9629 23.1367ZM52.6768 19.2676C52.6768 20.1562 52.8727 20.8695 53.2646 21.4072C53.6611 21.9404 54.2376 22.207 54.9941 22.207C55.7415 22.207 56.3044 21.9404 56.6826 21.4072C57.0654 20.874 57.2568 20.1562 57.2568 19.2539C57.2568 18.3379 57.0677 17.6178 56.6895 17.0938C56.3158 16.5651 55.7438 16.3008 54.9736 16.3008C54.2262 16.3008 53.6566 16.5697 53.2646 17.1074C52.8727 17.6452 52.6768 18.3652 52.6768 19.2676ZM58.4395 19.2471C58.4395 20.4092 58.1296 21.3525 57.5098 22.0771C56.89 22.7972 56.0332 23.1572 54.9395 23.1572C53.8867 23.1572 53.0482 22.7926 52.4238 22.0635C51.804 21.3343 51.4941 20.3978 51.4941 19.2539C51.4941 18.0872 51.8063 17.1439 52.4307 16.4238C53.055 15.7038 53.9118 15.3438 55.001 15.3438C56.0719 15.3438 56.9128 15.7061 57.5234 16.4307C58.1341 17.1507 58.4395 18.0895 58.4395 19.2471ZM63.2314 23.1572C62.1286 23.1572 61.265 22.7995 60.6406 22.084C60.0208 21.3685 59.7109 20.432 59.7109 19.2744C59.7155 18.1077 60.0322 17.1621 60.6611 16.4375C61.2946 15.7083 62.1605 15.3438 63.2588 15.3438C63.6462 15.3438 64.0199 15.3916 64.3799 15.4873C64.7445 15.583 65.0316 15.7083 65.2412 15.8633L64.9268 16.752C64.3936 16.4648 63.8307 16.3213 63.2383 16.3213C62.5137 16.3213 61.9395 16.5856 61.5156 17.1143C61.0964 17.6429 60.8867 18.3652 60.8867 19.2812C60.8867 20.1745 61.0941 20.8831 61.5088 21.4072C61.9281 21.9268 62.5068 22.1865 63.2451 22.1865C63.833 22.1865 64.4346 22.027 65.0498 21.708L65.1934 22.6172C64.6966 22.9772 64.0426 23.1572 63.2314 23.1572ZM66.6904 23V12.5889L67.8252 12.5205V17.9688V18.9258C67.8525 18.8984 67.8936 18.8529 67.9482 18.7891C68.0029 18.7253 68.0462 18.6774 68.0781 18.6455C68.4746 18.2126 69.5 17.1644 71.1543 15.501H72.6035L69.4863 18.6592L72.8223 23H71.4004L68.6592 19.3086L67.8252 20.0264V23H66.6904Z" fill="#1E9E8F"/>
</svg>
