<svg width="24" height="23" viewBox="0 0 24 23" fill="none" xmlns="http://www.w3.org/2000/svg">
<path d="M11.1818 17.3532V3.19868L7.36905 7.01141L6.2105 5.8365L12 0.0454102L17.791 5.8365L16.6325 7.01305L12.8181 3.19868V17.3532H11.1818ZM3.18977 22.9545C2.43596 22.9545 1.80705 22.7025 1.30305 22.1985C0.799046 21.6945 0.546501 21.0651 0.54541 20.3101V16.3452H2.18177V20.3101C2.18177 20.5621 2.2865 20.7934 2.49596 21.004C2.70541 21.2145 2.93614 21.3192 3.18814 21.3181H20.8118C21.0627 21.3181 21.2934 21.2134 21.504 21.004C21.7145 20.7945 21.8192 20.5632 21.8181 20.3101V16.3452H23.4545V20.3101C23.4545 21.064 23.2025 21.6929 22.6985 22.1969C22.1945 22.7009 21.5651 22.9534 20.8101 22.9545H3.18977Z" fill="#00A6C0"/>
</svg>
