<svg width="14" height="20" viewBox="0 0 14 20" fill="none" xmlns="http://www.w3.org/2000/svg">
<path d="M5.09637 9.00586H12.5579C12.8529 9.00586 13.0823 9.25713 13.0823 9.55483V18.1498C13.0823 18.4475 12.8529 18.6988 12.5579 18.6988H1.44479C1.14709 18.6988 0.917674 18.4475 0.917674 18.1498V9.55483C0.917674 9.25713 1.14709 9.00586 1.44479 9.00586H5.09637ZM10.9711 8.08819H9.9087V5.61101C9.9087 3.0082 6.7897 1.63442 4.94343 3.52166C4.13227 4.35194 4.0913 5.1276 4.0913 6.15725H3.02887C3.02887 4.69061 2.90051 3.5244 4.05579 2.34453C5.14007 1.23294 6.16972 1.30122 7.49161 1.30122C9.42801 1.30122 10.9711 2.929 10.9711 4.87087V8.08819ZM2.1112 6.61609C2.1112 6.87009 2.31604 7.07492 2.57004 7.07492H4.55014C5.53882 7.07492 4.43543 5.35155 5.59891 4.16076C6.85798 2.87438 8.99103 3.80844 8.99103 5.61101V8.08819C6.47562 8.08819 3.9602 8.08819 1.44479 8.08819C0.647289 8.08819 0 8.7546 0 9.55483V18.1498C0 18.9501 0.647289 19.6165 1.44479 19.6165H12.5579C13.3554 19.6165 14 18.9501 14 18.1498V9.55483C14 9.15335 13.8389 8.78737 13.5821 8.52245C13.0769 8.00625 12.5443 8.08819 11.8915 8.08819V4.87087C11.8915 2.42646 9.93055 0.383545 7.49161 0.383545C5.9048 0.383545 4.69489 0.380814 3.40031 1.70543C1.92548 3.21304 2.1112 4.72065 2.1112 6.61609Z" fill="#0A263F"/>
<path d="M7.03515 14.1541L7.61962 16.2789H6.3824L6.96414 14.1541L6.89313 13.7635C6.70195 13.5013 5.92083 13.4795 5.92083 12.5399C5.92083 11.0706 8.07846 11.0706 8.07846 12.5399C8.07846 13.4795 7.30007 13.5013 7.10889 13.7635L7.03515 14.1541ZM8.01837 14.2851C9.7554 13.2336 9.01798 10.5079 6.99964 10.5079C4.98131 10.5079 4.24389 13.2336 5.98092 14.2851L5.35275 16.5766C5.24077 16.918 5.48657 17.1966 5.78154 17.1966H8.22048V17.1939C8.52091 17.1939 8.7394 16.9071 8.6602 16.6176L8.01837 14.2851Z" fill="#0A263F"/>
</svg>
