<svg width="44" height="44" viewBox="0 0 44 44" fill="none" xmlns="http://www.w3.org/2000/svg">
<rect width="44" height="44" rx="22" fill="#82CC2F"/>
<path d="M23.4315 31.7581L30.2107 14.8068C30.2811 14.6319 30.2985 14.4401 30.2608 14.2554C30.2231 14.0707 30.1319 13.9011 29.9986 13.7678C29.8653 13.6344 29.6957 13.5433 29.511 13.5055C29.3262 13.4678 29.1345 13.4853 28.9596 13.5557L12.0082 20.3348C11.8607 20.3928 11.7299 20.4865 11.6276 20.6076C11.5253 20.7288 11.4548 20.8734 11.4225 21.0286C11.3901 21.1838 11.3968 21.3446 11.4421 21.4965C11.4874 21.6484 11.5698 21.7866 11.6819 21.8987L14.8097 25.0401C15.1496 25.3801 15.6936 25.4209 16.0744 25.1217L26.9673 16.7991L18.6378 27.6852C18.3454 28.0727 18.3862 28.6167 18.7262 28.9567L21.8676 32.0845C22.3504 32.5673 23.1799 32.4041 23.4315 31.7581Z" fill="white"/>
</svg>
