<svg width="36" height="36" viewBox="0 0 36 36" fill="none" xmlns="http://www.w3.org/2000/svg">
<rect width="36" height="36" rx="18" fill="#2F475C" fill-opacity="0.05"/>
<rect x="0.369221" y="0.369221" width="35.2616" height="35.2616" rx="17.6308" stroke="black" stroke-opacity="0.05" stroke-width="0.738441"/>
<path d="M11.8727 23.3593C13.4601 24.9467 16.0291 24.9467 17.6164 23.3593L23.6212 17.3545L22.838 16.5713L16.8332 22.5761C15.6792 23.73 13.8099 23.73 12.6559 22.5761C11.502 21.4221 11.502 19.5528 12.6559 18.3988L19.1829 11.8719C19.5291 11.5257 19.9987 11.3312 20.4883 11.3312C20.9779 11.3312 21.4475 11.5257 21.7937 11.8719C22.1399 12.2181 22.3344 12.6876 22.3344 13.1773C22.3344 13.6669 22.1399 14.1364 21.7937 14.4826L16.311 19.9653C16.0238 20.2525 15.5539 20.2525 15.2667 19.9653C14.9795 19.6781 14.9795 19.2082 15.2667 18.921L20.2272 13.9605L19.444 13.1773L14.4835 18.1377C14.1373 18.484 13.9428 18.9535 13.9428 19.4431C13.9428 19.9328 14.1373 20.4023 14.4835 20.7485C14.8297 21.0947 15.2993 21.2892 15.7889 21.2892C16.2785 21.2892 16.7481 21.0947 17.0943 20.7485L22.5769 15.2659C23.7309 14.1119 23.7309 12.2426 22.5769 11.0886C21.4229 9.93466 19.5536 9.93466 18.3997 11.0886L11.8727 17.6156C10.2853 19.2029 10.2853 21.772 11.8727 23.3593Z" fill="#0A263F"/>
</svg>
