<svg width="19" height="20" viewBox="0 0 19 20" fill="none" xmlns="http://www.w3.org/2000/svg">
<path d="M17.1282 1.53846H14.0512V0H12.5128V1.53846H6.35892V0H4.82046V1.53846H1.74354C0.897386 1.53846 0.205078 2.23077 0.205078 3.07692V18.4615C0.205078 19.3077 0.897386 20 1.74354 20H17.1282C17.9743 20 18.6666 19.3077 18.6666 18.4615V3.07692C18.6666 2.23077 17.9743 1.53846 17.1282 1.53846ZM17.1282 18.4615H1.74354V7.69231H17.1282V18.4615ZM17.1282 6.15385H1.74354V3.07692H4.82046V4.61538H6.35892V3.07692H12.5128V4.61538H14.0512V3.07692H17.1282V6.15385Z" fill="#666666"/>
</svg>
