<svg width="13" height="7" viewBox="0 0 13 7" fill="none" xmlns="http://www.w3.org/2000/svg">
<path d="M6.85659 6.61834L12.1666 1.04534C12.2552 0.952349 12.3047 0.828807 12.3047 0.700337C12.3047 0.571867 12.2552 0.448326 12.1666 0.355338L12.1606 0.349337C12.1176 0.304102 12.0659 0.268083 12.0086 0.243469C11.9512 0.218855 11.8895 0.206162 11.8271 0.206162C11.7647 0.206162 11.703 0.218855 11.6456 0.243469C11.5883 0.268083 11.5366 0.304102 11.4936 0.349337L6.49359 5.59734L1.49559 0.349336C1.45262 0.304101 1.40089 0.268082 1.34356 0.243468C1.28623 0.218854 1.22449 0.206161 1.16209 0.206161C1.0997 0.206161 1.03796 0.218854 0.980626 0.243468C0.923293 0.268082 0.871566 0.304101 0.828593 0.349336L0.822592 0.355337C0.733947 0.448325 0.684496 0.571865 0.684496 0.700336C0.684496 0.828806 0.733947 0.952348 0.822592 1.04534L6.13259 6.61834C6.17929 6.66735 6.23545 6.70637 6.29768 6.73303C6.3599 6.75969 6.4269 6.77344 6.49459 6.77344C6.56229 6.77344 6.62928 6.75969 6.69151 6.73303C6.75373 6.70637 6.8099 6.66735 6.85659 6.61834Z" fill="#646464"/>
</svg>
