<svg width="22" height="22" viewBox="0 0 22 22" fill="none" xmlns="http://www.w3.org/2000/svg">
<rect x="0.000976562" width="22" height="21.9972" rx="10.9986" fill="#EBEBEB"/>
<path d="M5.5 14.5276V16.1457C5.5 16.2393 5.53717 16.3291 5.60334 16.3952C5.66951 16.4614 5.75926 16.4986 5.85284 16.4986H7.47449C7.56789 16.4986 7.65747 16.4615 7.7236 16.3956L14.3909 9.72829L12.2738 7.61125L5.60374 14.2785C5.53752 14.3445 5.50021 14.4341 5.5 14.5276ZM13.1475 6.73691L15.2645 8.85395L16.2948 7.82366C16.4271 7.69132 16.5014 7.51186 16.5014 7.32474C16.5014 7.13762 16.4271 6.95816 16.2948 6.82582L15.1763 5.70661C15.044 5.57432 14.8645 5.5 14.6774 5.5C14.4903 5.5 14.3108 5.57432 14.1785 5.70661L13.1475 6.73691Z" fill="#3D3D3D"/>
</svg>
