<svg width="36" height="36" viewBox="0 0 36 36" fill="none" xmlns="http://www.w3.org/2000/svg">
<rect width="36" height="36" rx="18" fill="#2F475C" fill-opacity="0.05"/>
<rect x="0.369221" y="0.369221" width="35.2616" height="35.2616" rx="17.6308" stroke="black" stroke-opacity="0.05" stroke-width="0.738441"/>
<path d="M15.4 17.2C15.6652 17.2 15.9196 17.0946 16.1071 16.9071C16.2946 16.7196 16.4 16.4652 16.4 16.2C16.4 15.9348 16.2946 15.6804 16.1071 15.4929C15.9196 15.3054 15.6652 15.2 15.4 15.2C15.1348 15.2 14.8804 15.3054 14.6929 15.4929C14.5054 15.6804 14.4 15.9348 14.4 16.2C14.4 16.4652 14.5054 16.7196 14.6929 16.9071C14.8804 17.0946 15.1348 17.2 15.4 17.2ZM21.6 16.2C21.6 16.4652 21.4946 16.7196 21.3071 16.9071C21.1196 17.0946 20.8652 17.2 20.6 17.2C20.3348 17.2 20.0804 17.0946 19.8929 16.9071C19.7054 16.7196 19.6 16.4652 19.6 16.2C19.6 15.9348 19.7054 15.6804 19.8929 15.4929C20.0804 15.3054 20.3348 15.2 20.6 15.2C20.8652 15.2 21.1196 15.3054 21.3071 15.4929C21.4946 15.6804 21.6 15.9348 21.6 16.2ZM15.7808 22.2724C16.4657 22.6286 17.2281 22.8099 18 22.8C18.7718 22.8095 19.5341 22.6283 20.219 22.2724C20.904 21.9165 21.4905 21.397 21.9264 20.76C21.9957 20.647 22.0173 20.5111 21.9865 20.3822C21.9556 20.2533 21.8748 20.1419 21.7618 20.0726C21.6488 20.0033 21.5129 19.9817 21.384 20.0125C21.2551 20.0434 21.1437 20.1242 21.0744 20.2372C20.7283 20.7288 20.2673 21.1282 19.7314 21.4006C19.1955 21.673 18.6011 21.8101 18 21.8C17.3989 21.8098 16.8046 21.6726 16.2686 21.4002C15.7327 21.1278 15.2715 20.7286 14.9252 20.2372C14.8559 20.1242 14.7445 20.0434 14.6156 20.0125C14.4867 19.9817 14.3508 20.0033 14.2378 20.0726C14.1248 20.1419 14.044 20.2533 14.0131 20.3822C13.9823 20.5111 14.0039 20.647 14.0732 20.76C14.5089 21.3973 15.0956 21.9168 15.7808 22.2724ZM18 10C13.5816 10 10 13.5816 10 18C10 22.4184 13.5816 26 18 26C22.4184 26 26 22.4184 26 18C26 13.5816 22.4184 10 18 10ZM11 18C11 14.134 14.134 11 18 11C21.866 11 25 14.134 25 18C25 21.866 21.866 25 18 25C14.134 25 11 21.866 11 18Z" fill="#0A263F"/>
</svg>
