<svg width="16" height="16" viewBox="0 0 16 16" fill="none" xmlns="http://www.w3.org/2000/svg">
<path d="M1.7634 10.3204H3.69483V12.758C3.69486 12.8593 3.7229 12.9584 3.77545 13.0429C3.828 13.1274 3.90273 13.1936 3.99034 13.2332C4.05165 13.2597 4.11731 13.273 4.18349 13.2723C4.31034 13.2726 4.43231 13.2202 4.52342 13.1262L7.21584 10.3204H10.3969C10.8644 10.3198 11.3127 10.1218 11.6433 9.76966C11.9738 9.41757 12.1598 8.94018 12.1603 8.44224V1.87811C12.1593 1.38034 11.9732 0.903265 11.6427 0.551286C11.3122 0.199308 10.8643 0.00108684 10.3969 0H1.7634C1.29587 0.000544493 0.847643 0.198591 0.517052 0.550687C0.186462 0.902783 0.000511237 1.38017 0 1.87811V8.44224C0 8.94035 0.185786 9.41805 0.516488 9.77026C0.847189 10.1225 1.29572 10.3204 1.7634 10.3204ZM0.965717 1.88634C0.965717 1.66102 1.04976 1.44493 1.19935 1.2856C1.34895 1.12627 1.55184 1.03677 1.7634 1.03677H10.3969C10.6083 1.03731 10.8109 1.12699 10.9604 1.2862C11.1099 1.44541 11.1941 1.66119 11.1946 1.88634V8.44224C11.1941 8.66739 11.1099 8.88317 10.9604 9.04238C10.8109 9.20159 10.6083 9.29127 10.3969 9.29181H7.01883C6.89234 9.29233 6.77104 9.34548 6.68083 9.43992L4.66828 11.5361V9.80608C4.66828 9.66969 4.6174 9.53888 4.52685 9.44244C4.4363 9.34599 4.31348 9.29181 4.18542 9.29181H1.7634C1.55184 9.29181 1.34895 9.2023 1.19935 9.04298C1.04976 8.88365 0.965717 8.66756 0.965717 8.44224V1.88634ZM16 4.60579V11.1699C16 11.668 15.8142 12.1457 15.4835 12.4979C15.1528 12.8502 14.7043 13.048 14.2366 13.048H12.3052V15.4857C12.305 15.5867 12.2769 15.6855 12.2243 15.7696C12.1718 15.8538 12.0971 15.9196 12.0097 15.9588C11.9488 15.987 11.8829 16.0011 11.8165 15.9999C11.6897 16.0003 11.5677 15.9479 11.4766 15.8539L8.78416 13.048H7.6562V12.0195H8.98117C9.10766 12.02 9.22896 12.0732 9.31917 12.1676L11.3317 14.2638V12.5255C11.3317 12.3891 11.3826 12.2583 11.4731 12.1619C11.5637 12.0654 11.6865 12.0113 11.8146 12.0113H14.2366C14.3414 12.0113 14.4451 11.9893 14.5419 11.9466C14.6386 11.9039 14.7266 11.8413 14.8006 11.7624C14.8747 11.6835 14.9335 11.5899 14.9736 11.4868C15.0136 11.3837 15.0343 11.2733 15.0343 11.1617V4.60579C15.0343 4.38047 14.9502 4.16438 14.8006 4.00506C14.6511 3.84573 14.4482 3.75622 14.2366 3.75622V2.72768C14.7043 2.72768 15.1528 2.92555 15.4835 3.27777C15.8142 3.62998 16 4.10769 16 4.60579ZM5.35587 3.95781H4.39015C4.38971 3.71919 4.43409 3.48289 4.52066 3.2628C4.60723 3.04272 4.73425 2.84329 4.89425 2.67626C5.05212 2.50698 5.2408 2.37387 5.44872 2.28508C5.65663 2.19629 5.8794 2.1537 6.10333 2.15993C6.45803 2.16526 6.80214 2.28947 7.0868 2.51491C7.37145 2.74035 7.5822 3.05558 7.6891 3.41582C7.796 3.77607 7.79363 4.16302 7.68233 4.52175C7.57103 4.88048 7.35644 5.19275 7.06905 5.41422C6.9145 5.53114 6.78797 5.68519 6.69972 5.86388C6.61147 6.04257 6.56398 6.24088 6.56108 6.44276H5.59536C5.59991 6.08022 5.68423 5.72387 5.84155 5.40234C5.99887 5.0808 6.22481 4.80305 6.50121 4.59139C6.59701 4.51847 6.67457 4.42165 6.7271 4.3094C6.77963 4.19715 6.80552 4.0729 6.80251 3.94753C6.7967 3.74817 6.71975 3.55868 6.58733 3.41764C6.45491 3.27661 6.27699 3.19465 6.08981 3.18847C5.99398 3.18683 5.8988 3.20552 5.80982 3.24345C5.72084 3.28138 5.63983 3.33779 5.57152 3.40939C5.50321 3.481 5.44896 3.56636 5.41194 3.66052C5.37492 3.75467 5.35585 3.85574 5.35587 3.95781ZM5.5973 7.01463H6.56301V7.99997H5.5973V7.01463Z" fill="#0A263F"/>
</svg>
