<svg width="44" height="44" viewBox="0 0 44 44" fill="none" xmlns="http://www.w3.org/2000/svg">
<rect width="44" height="44" rx="12" fill="white"/>
<rect x="0.5" y="0.5" width="43" height="43" rx="11.5" stroke="black" stroke-opacity="0.1"/>
<path d="M29.6905 11.5H14.3091C12.8927 11.5 11.7122 12.6664 12.0621 14.0379C12.4346 15.4913 13.1209 16.8456 14.0726 18.0055C15.0243 19.1654 16.2185 20.1028 17.5712 20.7519C18.6261 21.257 19.4362 22.2491 19.4362 23.4181V31.2165C19.4363 31.4349 19.4923 31.6496 19.5987 31.8403C19.7051 32.0311 19.8585 32.1914 20.0443 32.3062C20.2301 32.421 20.4421 32.4864 20.6603 32.4963C20.8785 32.5061 21.0956 32.46 21.291 32.3624L23.8545 31.0806C24.0674 30.9742 24.2465 30.8107 24.3717 30.6083C24.4969 30.4059 24.5632 30.1726 24.5634 29.9347V23.4181C24.5634 22.2491 25.3735 21.257 26.4271 20.7519C27.7803 20.1032 28.975 19.1659 29.9272 18.006C30.8794 16.846 31.566 15.4916 31.9388 14.0379C32.2861 12.6664 31.1043 11.5 29.6905 11.5Z" stroke="#0A263F" stroke-opacity="0.8" stroke-width="1.5"/>
</svg>
