<svg width="56" height="56" viewBox="0 0 56 56" fill="none" xmlns="http://www.w3.org/2000/svg">
<rect width="56" height="56" rx="28" fill="#3F5669"/>
<path d="M29.6875 41.3281C26.1979 41.3281 23.4688 40.276 21.5 38.1719C19.5417 36.0677 18.5625 33.1875 18.5625 29.5312C18.5625 27.2083 19.0208 25.1667 19.9375 23.4062C20.8542 21.6354 22.2031 20.2552 23.9844 19.2656C25.7656 18.276 27.8698 17.7812 30.2969 17.7812C33.0781 17.7812 35.4635 18.3802 37.4531 19.5781L36.0781 22.7344C34.1823 21.7135 32.2812 21.2031 30.375 21.2031C28.0625 21.2031 26.2448 21.9531 24.9219 23.4531C23.599 24.9531 22.9375 26.9948 22.9375 29.5781C22.9375 32.1406 23.526 34.1667 24.7031 35.6562C25.8802 37.1458 27.6042 37.8906 29.875 37.8906C31.3333 37.8906 32.6562 37.6615 33.8438 37.2031V31.8906H29.0469L29.0781 28.5625H37.8281V39.6094C36.4115 40.1927 35.0677 40.625 33.7969 40.9062C32.5365 41.1875 31.1667 41.3281 29.6875 41.3281Z" fill="white"/>
</svg>
