<svg width="15" height="15" viewBox="0 0 15 15" fill="none" xmlns="http://www.w3.org/2000/svg">
<path d="M7.41197 0.911743C7.59272 0.911743 7.76607 0.983548 7.89389 1.11136C8.0217 1.23918 8.09351 1.41253 8.09351 1.59328V6.81844H13.3187C13.4994 6.81844 13.6728 6.89024 13.8006 7.01806C13.9284 7.14587 14.0002 7.31922 14.0002 7.49998C14.0002 7.68073 13.9284 7.85409 13.8006 7.9819C13.6728 8.10971 13.4994 8.18152 13.3187 8.18152H8.09351V13.4067C8.09351 13.5874 8.0217 13.7608 7.89389 13.8886C7.76607 14.0164 7.59272 14.0882 7.41197 14.0882C7.23121 14.0882 7.05786 14.0164 6.93004 13.8886C6.80223 13.7608 6.73042 13.5874 6.73042 13.4067V8.18152H1.50527C1.32452 8.18152 1.15116 8.10971 1.02335 7.9819C0.895535 7.85409 0.82373 7.68073 0.82373 7.49998C0.82373 7.31922 0.895535 7.14587 1.02335 7.01806C1.15116 6.89024 1.32452 6.81844 1.50527 6.81844H6.73042V1.59328C6.73042 1.41253 6.80223 1.23918 6.93004 1.11136C7.05786 0.983548 7.23121 0.911743 7.41197 0.911743Z" fill="#83B947" stroke="#83B947" stroke-width="0.3"/>
</svg>
