<svg width="33" height="32" viewBox="0 0 33 32" fill="none" xmlns="http://www.w3.org/2000/svg">
<rect x="0.277344" width="32" height="32" rx="16" fill="#A4E759"/>
<path d="M16.2772 9.41174C16.458 9.41174 16.6313 9.48355 16.7591 9.61136C16.8869 9.73918 16.9587 9.91253 16.9587 10.0933V15.3184H22.1839C22.3646 15.3184 22.538 15.3902 22.6658 15.5181C22.7936 15.6459 22.8654 15.8192 22.8654 16C22.8654 16.1807 22.7936 16.3541 22.6658 16.4819C22.538 16.6097 22.3646 16.6815 22.1839 16.6815H16.9587V21.9067C16.9587 22.0874 16.8869 22.2608 16.7591 22.3886C16.6313 22.5164 16.458 22.5882 16.2772 22.5882C16.0964 22.5882 15.9231 22.5164 15.7953 22.3886C15.6675 22.2608 15.5957 22.0874 15.5957 21.9067V16.6815H10.3705C10.1898 16.6815 10.0164 16.6097 9.88858 16.4819C9.76077 16.3541 9.68896 16.1807 9.68896 16C9.68896 15.8192 9.76077 15.6459 9.88858 15.5181C10.0164 15.3902 10.1898 15.3184 10.3705 15.3184H15.5957V10.0933C15.5957 9.91253 15.6675 9.73918 15.7953 9.61136C15.9231 9.48355 16.0964 9.41174 16.2772 9.41174Z" fill="#0A263F"/>
</svg>
