<svg width="33" height="32" viewBox="0 0 33 32" fill="none" xmlns="http://www.w3.org/2000/svg">
<rect x="0.25" width="32" height="32" rx="8" fill="#32DACB" fill-opacity="0.1"/>
<rect x="0.75" y="0.5" width="31" height="31" rx="7.5" stroke="#1DB2A5" stroke-opacity="0.5"/>
<path d="M20.75 15.9999C20.4739 15.9999 20.25 16.2237 20.25 16.4999V21.4999C20.25 21.776 20.0261 21.9999 19.75 21.9999H10.75C10.4738 21.9999 10.25 21.776 10.25 21.4999V11.4999C10.25 11.2237 10.4738 10.9999 10.75 10.9999H16.75C17.0262 10.9999 17.25 10.776 17.25 10.4999C17.25 10.2237 17.0262 9.99988 16.75 9.99988H10.75C9.92157 9.99988 9.25 10.6715 9.25 11.4999V21.4999C9.25 22.3283 9.92157 22.9999 10.75 22.9999H19.75C20.5784 22.9999 21.25 22.3283 21.25 21.4999V16.4999C21.25 16.2237 21.0262 15.9999 20.75 15.9999Z" fill="#1DB2A5"/>
<path d="M22.6895 9.56069C22.5117 9.38291 22.3007 9.24188 22.0684 9.14568C21.8361 9.04948 21.5872 8.99998 21.3358 9.00001C21.0843 8.99928 20.8351 9.04849 20.6028 9.14479C20.3704 9.2411 20.1595 9.38257 19.9823 9.56101L13.3963 16.1465C13.3416 16.2015 13.3004 16.2684 13.2758 16.342L12.2758 19.342C12.1885 19.604 12.3301 19.8871 12.5921 19.9744C12.643 19.9913 12.6962 19.9999 12.7498 20C12.8034 19.9999 12.8568 19.9913 12.9078 19.9745L15.9078 18.9745C15.9814 18.9499 16.0484 18.9085 16.1033 18.8535L22.6893 12.2675C23.4368 11.5201 23.4369 10.3082 22.6895 9.56069ZM21.9823 11.561L15.4823 18.061L13.5402 18.7095L14.1867 16.77L20.6892 10.27C21.0467 9.91322 21.6258 9.91381 21.9826 10.2713C22.153 10.4421 22.249 10.6732 22.2497 10.9145C22.2501 11.0346 22.2266 11.1535 22.1807 11.2645C22.1348 11.3755 22.0673 11.4762 21.9823 11.561Z" fill="#1DB2A5"/>
</svg>
