<svg width="16" height="18" viewBox="0 0 16 18" fill="none" xmlns="http://www.w3.org/2000/svg">
<path fill-rule="evenodd" clip-rule="evenodd" d="M4.20703 7.44828H2.65531C2.07886 7.44828 1.52644 7.67715 1.11911 8.08448C0.71178 8.49181 0.48291 9.04421 0.48291 9.62069V15.8276C0.48291 16.404 0.71178 16.9565 1.11911 17.3638C1.52644 17.7711 2.07884 18 2.65531 18H13.8277C14.4041 18 14.9566 17.7711 15.3639 17.3638C15.7712 16.9565 16.0001 16.4041 16.0001 15.8276V9.62069C16.0001 9.04423 15.7712 8.49181 15.3639 8.08448C14.9566 7.67715 14.4042 7.44828 13.8277 7.44828H12.276V4.03438C12.276 1.80606 10.4698 0 8.24159 0C6.01344 0 4.20723 1.80622 4.20723 4.03438L4.20703 7.44828ZM13.8278 8.06897H2.65541C2.24421 8.06897 1.8493 8.23267 1.55836 8.52363C1.26742 8.81457 1.1037 9.20949 1.1037 9.62069V15.8276C1.1037 16.2388 1.2674 16.6337 1.55836 16.9246C1.8493 17.2156 2.24421 17.3793 2.65541 17.3793H13.8278C14.239 17.3793 14.6339 17.2156 14.9248 16.9246C15.2158 16.6337 15.3795 16.2388 15.3795 15.8276V9.62069C15.3795 9.20949 15.2158 8.81457 14.9248 8.52363C14.6339 8.23269 14.239 8.06897 13.8278 8.06897ZM11.6553 7.44828V4.03438C11.6553 2.14904 10.1268 0.620491 8.2414 0.620491C6.35596 0.620491 4.82752 2.14894 4.82752 4.03438V7.44828H5.44821V4.03438C5.44821 2.49197 6.69889 1.24138 8.2412 1.24138C9.7835 1.24138 11.0342 2.49207 11.0342 4.03438V7.44828H11.6553ZM10.4139 7.44828V4.03438C10.4139 2.83489 9.44098 1.86187 8.2414 1.86187C7.04181 1.86187 6.06889 2.83479 6.06889 4.03438V7.44828H10.4139Z" fill="#1E9E8F"/>
<path fill-rule="evenodd" clip-rule="evenodd" d="M8.24117 15.512C8.75556 15.512 9.1722 15.0953 9.1722 14.581V12.7189C9.54926 12.4357 9.79289 11.9849 9.79289 11.4775C9.79289 10.621 9.09772 9.92578 8.24117 9.92578C7.38462 9.92578 6.68945 10.621 6.68945 11.4775C6.68945 11.9849 6.93308 12.4357 7.31014 12.7189V14.581C7.31014 15.0953 7.72678 15.512 8.24117 15.512ZM8.24117 14.8913C8.41263 14.8913 8.55151 14.7524 8.55151 14.581V12.5528C8.55151 12.4419 8.61048 12.3395 8.70669 12.2844C8.98444 12.123 9.17221 11.822 9.17221 11.4775C9.17221 10.9639 8.75479 10.5465 8.24118 10.5465C7.72757 10.5465 7.31015 10.9639 7.31015 11.4775C7.31015 11.822 7.49791 12.123 7.77567 12.2844C7.87188 12.3395 7.93085 12.4419 7.93085 12.5528V14.581C7.93085 14.7524 8.06971 14.8913 8.24117 14.8913Z" fill="#1E9E8F"/>
</svg>
