<svg width="15" height="18" viewBox="0 0 15 18" fill="none" xmlns="http://www.w3.org/2000/svg">
<path d="M7.5 8.99996H14M14 8.99996L11.2143 11.7857M14 8.99996L11.2143 6.21425M14 3.42854V2.49997C14 2.00742 13.8043 1.53505 13.4561 1.18677C13.1078 0.838485 12.6354 0.642822 12.1429 0.642822H2.85714C2.3646 0.642822 1.89223 0.838485 1.54394 1.18677C1.19566 1.53505 1 2.00742 1 2.49997V15.5C1 15.9925 1.19566 16.4649 1.54394 16.8132C1.89223 17.1614 2.3646 17.3571 2.85714 17.3571H12.1429C12.6354 17.3571 13.1078 17.1614 13.4561 16.8132C13.8043 16.4649 14 15.9925 14 15.5V14.5714" stroke="#0A263F" stroke-linecap="round" stroke-linejoin="round"/>
</svg>
