<svg width="41" height="40" viewBox="0 0 41 40" fill="none" xmlns="http://www.w3.org/2000/svg">
<path d="M11.4165 14.2114H25.0412" stroke="#A4E759" stroke-width="2" stroke-linecap="round" stroke-linejoin="round"/>
<path d="M11.4165 19.8781H19.006" stroke="#A4E759" stroke-width="2" stroke-linecap="round" stroke-linejoin="round"/>
<path d="M5.24951 11.2705C5.24951 7.58865 8.23428 4.60388 11.9162 4.60388H29.4162C33.0981 4.60388 36.0828 7.58865 36.0828 11.2705L36.0828 22.8171C36.0828 26.499 33.0981 29.4837 29.4162 29.4837H26.5367C25.9913 29.4837 25.4804 29.7506 25.1688 30.1982L22.0341 34.7016C21.3709 35.6542 19.9614 35.6542 19.2983 34.7016L16.1635 30.1982C15.8519 29.7506 15.341 29.4837 14.7956 29.4837H11.9162C8.23428 29.4837 5.24951 26.499 5.24951 22.8171V11.2705Z" stroke="#A4E759" stroke-width="2.4" stroke-linejoin="round"/>
</svg>
