<svg width="40" height="40" viewBox="0 0 40 40" fill="none" xmlns="http://www.w3.org/2000/svg">
<rect width="40" height="40" rx="8" fill="#32DACB"/>
<path d="M18.4758 20.8065H15.8766C15.3952 20.8038 14.9177 20.7193 14.4646 20.5566H14.4396C13.9657 20.3849 13.5195 20.145 13.115 19.8443L13.06 19.8043L12.8101 19.6119C12.766 19.5806 12.7171 19.557 12.6652 19.5419C12.5969 19.5185 12.5239 19.5125 12.4527 19.5244C12.4077 19.5325 12.364 19.5468 12.3228 19.5669C12.2799 19.5865 12.2402 19.6126 12.2053 19.6444C12.182 19.6644 12.161 19.687 12.1428 19.7118L12.1154 19.7493C12.085 19.79 12.0622 19.8357 12.0479 19.8843C12.0166 19.9798 12.0159 20.0826 12.046 20.1785C12.076 20.2744 12.1352 20.3585 12.2153 20.4191L12.5277 20.649C13.4973 21.3916 14.6805 21.8018 15.9016 21.8187H18.5008C18.7659 21.8187 19.0202 21.924 19.2077 22.1115C19.3951 22.2989 19.5005 22.5532 19.5005 22.8183V25.5449C19.5254 25.5449 19.5554 25.5449 19.5829 25.5449H20.4951V22.8308C20.4984 22.5667 20.6047 22.3143 20.7915 22.1275C20.9783 21.9408 21.2307 21.8344 21.4948 21.8312H24.094C25.1523 21.8205 26.1857 21.5084 27.073 20.9314C27.2079 20.8465 27.3404 20.7565 27.4679 20.6615L27.7803 20.4316C27.8014 20.4155 27.8214 20.3979 27.8402 20.3791C27.8899 20.3262 27.9274 20.2631 27.9502 20.1942C27.9583 20.1688 27.965 20.1429 27.9702 20.1167C27.9834 20.0324 27.9739 19.9462 27.9427 19.8668C27.9264 19.8254 27.9054 19.786 27.8802 19.7493L27.8452 19.7043C27.788 19.6253 27.7077 19.5659 27.6153 19.5344L27.5328 19.5144C27.4563 19.503 27.3782 19.5107 27.3054 19.5369C27.2605 19.5535 27.2178 19.5753 27.178 19.6019L26.993 19.7493L26.8856 19.8268C26.4865 20.1247 26.0462 20.363 25.5785 20.5341C25.1092 20.701 24.6146 20.7856 24.1165 20.784H21.5123C21.2484 20.7801 20.9963 20.6736 20.8097 20.4869C20.6231 20.3003 20.5165 20.0482 20.5126 19.7843V19.5269C20.5128 19.3778 20.5463 19.2306 20.6108 19.0961C20.6752 18.9616 20.7689 18.8432 20.885 18.7497C21.0622 18.6051 21.2836 18.5258 21.5123 18.5247H23.4342C24.376 18.5174 25.2897 18.2023 26.0358 17.6275C26.0761 17.5981 26.1108 17.5617 26.1383 17.5201C26.1849 17.4538 26.2126 17.376 26.2183 17.2951C26.2236 17.1858 26.1948 17.0775 26.1358 16.9852C26.1205 16.9597 26.102 16.9362 26.0808 16.9153L26.0383 16.8728C25.9563 16.7908 25.8475 16.7412 25.7318 16.7329C25.6162 16.7246 25.5014 16.7583 25.4085 16.8278C25.269 16.9291 25.1229 17.0209 24.9712 17.1027C24.4996 17.3602 23.9715 17.4967 23.4342 17.5001H21.5123C21.249 17.4943 20.998 17.3872 20.8118 17.2009C20.6255 17.0147 20.5184 16.7637 20.5126 16.5004V16.2505C20.5165 15.9865 20.6231 15.7345 20.8097 15.5479C20.9963 15.3612 21.2484 15.2547 21.5123 15.2508H23.2267C23.9866 15.2345 24.7102 14.9225 25.2436 14.3811C25.258 14.3668 25.2705 14.3509 25.2811 14.3336C25.3274 14.2792 25.3604 14.2147 25.3773 14.1452C25.3943 14.0758 25.3947 14.0034 25.3785 13.9337C25.3539 13.814 25.2841 13.7084 25.1836 13.6388H25.1686L25.1361 13.6163C25.0546 13.5629 24.9588 13.5357 24.8614 13.5384C24.764 13.5411 24.6697 13.5735 24.5913 13.6313C24.566 13.6463 24.5418 13.663 24.5188 13.6813C24.4713 13.7263 24.4214 13.7688 24.3714 13.8113C24.146 13.9948 23.8833 14.127 23.6016 14.1986H23.5616L23.4867 14.2111C23.4542 14.2111 23.4242 14.2236 23.3917 14.2261C23.3476 14.2287 23.3033 14.2287 23.2592 14.2261H21.5098C21.3831 14.2253 21.2576 14.2007 21.1399 14.1536H21.1174C21.0974 14.1536 21.0824 14.1337 21.0649 14.1262C20.8954 14.0438 20.7522 13.9156 20.6515 13.7562C20.5508 13.5968 20.4967 13.4125 20.4951 13.224V10.4748C20.4953 10.3531 20.4487 10.236 20.365 10.1476C20.2813 10.0592 20.1668 10.0064 20.0453 10H19.9603C19.8503 10.0008 19.744 10.0395 19.6593 10.1097C19.5746 10.1798 19.5168 10.277 19.4955 10.3849C19.4929 10.4165 19.4929 10.4482 19.4955 10.4798V13.229C19.4964 13.4406 19.4301 13.6471 19.3061 13.8187C19.1821 13.9902 19.0069 14.118 18.8057 14.1836C18.7022 14.2207 18.5932 14.2401 18.4833 14.2411H16.7588C16.2698 14.2272 15.8051 14.0248 15.4618 13.6763C15.3814 13.5981 15.2771 13.5492 15.1656 13.5374C15.0541 13.5256 14.9419 13.5516 14.847 13.6113L14.7995 13.6438C14.6977 13.7144 14.6277 13.8221 14.6045 13.9437C14.5989 13.9625 14.5948 13.9817 14.5921 14.0012C14.5883 14.0369 14.5883 14.0729 14.5921 14.1087C14.6118 14.2143 14.6663 14.3102 14.747 14.3811C14.9016 14.5258 15.0689 14.6563 15.2468 14.7709C15.6927 15.076 16.2186 15.2429 16.7588 15.2508H18.4733C18.6394 15.2497 18.8032 15.2901 18.9498 15.3682C19.0964 15.4463 19.2212 15.5597 19.313 15.6981C19.4272 15.8601 19.4907 16.0523 19.4955 16.2505V16.5004C19.4962 16.7017 19.4361 16.8986 19.323 17.0652C19.2289 17.2028 19.1018 17.3147 18.9534 17.3906C18.805 17.4666 18.64 17.5042 18.4733 17.5001H16.5539C16.0751 17.5057 15.599 17.4279 15.1469 17.2701C14.9278 17.1903 14.7176 17.0882 14.5196 16.9652L14.4796 16.9477C14.4211 16.9162 14.357 16.8967 14.2909 16.8903C14.2248 16.8838 14.1581 16.8906 14.0947 16.9103C14.0215 16.9298 13.9544 16.9676 13.8998 17.0202L13.8573 17.0627C13.8073 17.1164 13.7698 17.1804 13.7473 17.2501C13.7269 17.3121 13.72 17.3777 13.7273 17.4426C13.7314 17.4827 13.7407 17.5222 13.7548 17.56C13.7915 17.6566 13.858 17.7389 13.9448 17.795C14.2553 17.9965 14.5916 18.1554 14.9444 18.2673C15.4627 18.4349 16.0042 18.5192 16.5489 18.5172H18.4683C18.6006 18.5156 18.732 18.5402 18.8547 18.5897C18.9774 18.6392 19.0891 18.7126 19.1833 18.8056C19.2774 18.8986 19.3522 19.0093 19.4032 19.1314C19.4542 19.2535 19.4805 19.3846 19.4805 19.5169V19.7843C19.4818 19.9174 19.4568 20.0495 19.407 20.173C19.3572 20.2965 19.2835 20.4089 19.1902 20.5039C19.0969 20.5988 18.9857 20.6744 18.8631 20.7263C18.7406 20.7783 18.6089 20.8055 18.4758 20.8065Z" fill="#0A263F"/>
<path d="M25.6932 25.5659C25.3969 25.2654 25.0172 25.0607 24.6033 24.9783C24.1894 24.8959 23.7603 24.9395 23.3715 25.1035L21.5771 25.8708C21.2022 26.0321 20.7949 26.1039 20.3875 26.0807H19.5852C19.1836 26.102 18.7824 26.0302 18.4131 25.8708L16.6162 25.1035C16.2278 24.9394 15.799 24.8957 15.3855 24.9781C14.9719 25.0606 14.5927 25.2653 14.2969 25.5659C14.1008 25.764 13.9482 26.001 13.849 26.2616C13.7498 26.5222 13.7063 26.8006 13.7211 27.079C13.7359 27.3575 13.8088 27.6297 13.9351 27.8783C14.0614 28.1269 14.2383 28.3463 14.4544 28.5224L15.659 29.5221C16.0655 29.8585 16.5844 30.0282 17.111 29.997H22.8742C23.4021 30.0296 23.9228 29.8608 24.3312 29.5246L25.5333 28.5249C25.7476 28.3476 25.9229 28.1279 26.0481 27.8795C26.1733 27.6311 26.2457 27.3594 26.2607 27.0817C26.2757 26.8039 26.233 26.5261 26.1354 26.2656C26.0377 26.0052 25.8872 25.7678 25.6932 25.5684V25.5659ZM19.1004 28.1026C19.0628 28.3461 18.9393 28.5681 18.7523 28.7285C18.5653 28.889 18.3271 28.9772 18.0807 28.9773H16.9961C16.7527 28.9816 16.5157 28.9002 16.3263 28.7474L15.2041 27.8277C15.014 27.6696 14.8862 27.4492 14.8436 27.2056C14.801 26.962 14.8464 26.7113 14.9717 26.4981C15.1042 26.2876 15.3062 26.13 15.5427 26.0529C15.7791 25.9757 16.0352 25.9838 16.2663 26.0757C17.4334 26.5756 18.3131 26.933 18.4056 26.9604C18.6361 27.0404 18.8315 27.1982 18.9583 27.4066C19.0851 27.615 19.1354 27.8611 19.1004 28.1026ZM24.7835 27.8177L23.6564 28.7474C23.4691 28.8993 23.2353 28.9822 22.9941 28.9823H21.897C21.6463 28.9843 21.4033 28.8956 21.2128 28.7327C21.0223 28.5697 20.8971 28.3433 20.8602 28.0953C20.8234 27.8473 20.8775 27.5944 21.0124 27.3831C21.1473 27.1718 21.3541 27.0164 21.5946 26.9455C21.672 26.9205 22.5942 26.5331 23.7189 26.0607C23.9504 25.9687 24.2068 25.9605 24.4437 26.0376C24.6806 26.1148 24.8831 26.2724 25.016 26.4831C25.1421 26.6969 25.188 26.9486 25.1454 27.1932C25.1028 27.4377 24.9745 27.6591 24.7835 27.8177Z" fill="#0A263F"/>
</svg>
