<svg width="44" height="44" viewBox="0 0 44 44" fill="none" xmlns="http://www.w3.org/2000/svg">
<rect width="44" height="44" rx="12" fill="white"/>
<rect x="0.5" y="0.5" width="43" height="43" rx="11.5" stroke="black" stroke-opacity="0.1"/>
<path d="M20.0353 30.3946L20.4511 30.6723L20.0353 30.3946C20.0117 30.4298 19.9783 30.4573 19.9392 30.4735C19.9001 30.4897 19.857 30.494 19.8155 30.4858C19.774 30.4776 19.7359 30.4573 19.7059 30.4274C19.7058 30.4274 19.7058 30.4274 19.7058 30.4273L13.0663 23.7893L13.0659 23.7889C13.0459 23.769 13.0301 23.7453 13.0193 23.7193C13.0085 23.6932 13.0029 23.6653 13.0029 23.6371C13.0029 23.609 13.0085 23.581 13.0193 23.555C13.0263 23.538 13.0355 23.5221 13.0466 23.5075L13.0686 23.4855C13.1088 23.4455 13.1632 23.423 13.2199 23.423C13.2765 23.423 13.3308 23.4454 13.3709 23.4853C13.371 23.4854 13.3711 23.4854 13.3712 23.4855L18.7891 28.9077L19.6428 29.7621V28.5543V12.7143C19.6428 12.6575 19.6654 12.6029 19.7055 12.5628C19.7457 12.5226 19.8002 12.5 19.8571 12.5C19.9139 12.5 19.9684 12.5226 20.0086 12.5628C20.0488 12.6029 20.0714 12.6575 20.0714 12.7143V30.2756C20.0714 30.2756 20.0714 30.2757 20.0714 30.2757C20.0713 30.318 20.0588 30.3594 20.0353 30.3946ZM30.9336 20.2108L30.934 20.2111C30.9539 20.231 30.9697 20.2547 30.9805 20.2807C30.9914 20.3068 30.9969 20.3347 30.9969 20.3629C30.9969 20.391 30.9914 20.419 30.9805 20.445C30.9735 20.462 30.9643 20.4779 30.9533 20.4925L30.9312 20.5145C30.891 20.5545 30.8366 20.577 30.7799 20.577C30.7232 20.577 30.6688 20.5545 30.6287 20.5145C30.6287 20.5145 30.6287 20.5145 30.6286 20.5145L25.2107 15.0951L24.3571 14.2412V15.4486V31.2857C24.3571 31.3425 24.3345 31.3971 24.2943 31.4372C24.2541 31.4774 24.1996 31.5 24.1428 31.5C24.0859 31.5 24.0314 31.4774 23.9913 31.4372C23.9511 31.3971 23.9285 31.3425 23.9285 31.2857L23.9285 13.7254C23.9285 13.7253 23.9285 13.7252 23.9285 13.7251C23.9286 13.6829 23.9413 13.6417 23.9648 13.6066C23.9883 13.5714 24.0217 13.544 24.0608 13.5279C24.0999 13.5117 24.1429 13.5074 24.1845 13.5157C24.2259 13.5239 24.2639 13.5441 24.2938 13.5739C24.2939 13.574 24.294 13.574 24.2941 13.5741L30.9336 20.2108Z" stroke="#0A263F" stroke-opacity="0.8"/>
</svg>
