<svg width="14" height="11" viewBox="0 0 14 11" fill="none" xmlns="http://www.w3.org/2000/svg">
<path d="M7.87217 0.75092C7.80211 0.82107 7.76276 0.916164 7.76276 1.01531C7.76276 1.11446 7.80211 1.20955 7.87217 1.2797L11.7227 5.1308L1.65154 5.1308C1.55231 5.1308 1.45715 5.17022 1.38699 5.24039C1.31682 5.31055 1.27741 5.40571 1.27741 5.50494C1.27741 5.60417 1.31682 5.69933 1.38699 5.76949C1.45715 5.83966 1.55231 5.87908 1.65154 5.87908L11.7227 5.87908L7.87217 9.73018C7.80609 9.80111 7.77011 9.89491 7.77182 9.99184C7.77353 10.0888 7.81279 10.1812 7.88134 10.2498C7.94989 10.3183 8.04237 10.3576 8.1393 10.3593C8.23622 10.361 8.33003 10.325 8.40095 10.259L12.8906 5.76933C12.9606 5.69918 13 5.60409 13 5.50494C13 5.40579 12.9606 5.3107 12.8906 5.24055L8.40095 0.75092C8.3308 0.680857 8.23571 0.641503 8.13656 0.641503C8.03742 0.641503 7.94233 0.680856 7.87217 0.75092Z" fill="#82CC2F" stroke="#82CC2F" stroke-width="0.8"/>
</svg>
