<svg width="21" height="20" viewBox="0 0 21 20" fill="none" xmlns="http://www.w3.org/2000/svg">
<path d="M15.7285 1.29688L19.206 4.92188V18.7069H6.21533V18.7519H19.2503V4.9675L15.7285 1.29688Z" fill="#909090"/>
<path d="M15.6867 1.25H6.17236V18.705H19.2074V4.92063L15.6867 1.25Z" fill="#F4F4F4"/>
<path d="M6.07627 2.1875H2.08252V6.45437H14.645V2.1875H6.07627Z" fill="#7A7B7C"/>
<path d="M14.7107 6.37938H2.1626V2.10938H14.7107V6.37938Z" fill="#DD2025"/>
<path d="M6.32322 2.83758H5.50635V5.83758H6.14885V4.8257L6.29072 4.83383C6.42863 4.83193 6.56526 4.80722 6.6951 4.7607C6.80924 4.72195 6.91414 4.66003 7.00322 4.57883C7.09457 4.50223 7.16635 4.40496 7.2126 4.29508C7.27588 4.11302 7.29828 3.91927 7.27822 3.72758C7.27466 3.59061 7.25064 3.45494 7.20697 3.32508C7.16762 3.23121 7.1091 3.14659 7.03516 3.07663C6.96123 3.00668 6.8735 2.95293 6.7776 2.91883C6.69492 2.8882 6.60923 2.86642 6.52197 2.85383C6.45606 2.84309 6.38938 2.83766 6.3226 2.83758M6.20447 4.27133H6.14885V3.34633H6.26947C6.32271 3.34249 6.37613 3.35066 6.42578 3.37024C6.47544 3.38982 6.52006 3.42031 6.55635 3.45945C6.63155 3.56008 6.67172 3.68258 6.67072 3.8082C6.67072 3.96195 6.67072 4.10133 6.53197 4.19945C6.43204 4.2545 6.31824 4.27988 6.20447 4.27133ZM8.49885 2.82945C8.42947 2.82945 8.36197 2.83445 8.31447 2.83633L8.16572 2.84008H7.67822V5.84008H8.25197C8.47121 5.84571 8.68945 5.80856 8.89447 5.7307C9.05955 5.66551 9.20566 5.56001 9.31947 5.42383C9.431 5.28705 9.51064 5.12713 9.5526 4.9557C9.60189 4.7619 9.62584 4.56253 9.62385 4.36258C9.63608 4.12642 9.61781 3.88968 9.56947 3.6582C9.5232 3.48801 9.43756 3.33108 9.31947 3.20008C9.22685 3.09414 9.1129 3.00895 8.9851 2.95008C8.87561 2.89933 8.76041 2.86197 8.64197 2.83883C8.59488 2.83111 8.54719 2.82755 8.49947 2.8282M8.38572 5.28883H8.32322V3.37383H8.33135C8.4602 3.35893 8.59059 3.38218 8.70635 3.4407C8.79114 3.5084 8.86023 3.5937 8.90885 3.6907C8.96132 3.79278 8.99157 3.90483 8.9976 4.01945C9.00322 4.15695 8.9976 4.26945 8.9976 4.36258C8.99991 4.46984 8.99301 4.57711 8.97697 4.6832C8.95731 4.79199 8.92172 4.89729 8.87135 4.9957C8.81444 5.08748 8.73672 5.16456 8.64447 5.2207C8.56742 5.2707 8.47606 5.29398 8.38447 5.28695M11.5595 2.84008H10.0407V5.84008H10.6832V4.65008H11.4957V4.09258H10.6832V3.39758H11.5582V2.84008" fill="#464648"/>
<path d="M14.2789 12.6594C14.2789 12.6594 16.2714 12.2982 16.2714 12.9788C16.2714 13.6594 15.0371 13.3826 14.2789 12.6594ZM12.8058 12.7113C12.4892 12.7811 12.1807 12.8835 11.8852 13.0169L12.1352 12.4544C12.3852 11.8919 12.6446 11.1251 12.6446 11.1251C12.9421 11.6276 13.2893 12.0992 13.6808 12.5326C13.3861 12.5765 13.094 12.6366 12.8058 12.7126V12.7113ZM12.0171 8.64882C12.0171 8.05569 12.2089 7.89382 12.3583 7.89382C12.5077 7.89382 12.6758 7.96569 12.6814 8.48069C12.6327 8.99853 12.5243 9.509 12.3583 10.0019C12.1302 9.58836 12.0125 9.12299 12.0164 8.65069L12.0171 8.64882ZM9.11145 15.2213C8.5002 14.8557 10.3933 13.7301 10.7364 13.6938C10.7346 13.6944 9.75145 15.6038 9.11145 15.2213ZM16.8533 13.0594C16.8471 12.9969 16.7908 12.3051 15.5596 12.3344C15.0463 12.3254 14.5333 12.3616 14.0264 12.4426C13.5351 11.948 13.1122 11.3899 12.7689 10.7832C12.9851 10.1578 13.116 9.50607 13.1583 8.84569C13.1402 8.09569 12.9608 7.66569 12.3858 7.67194C11.8108 7.67819 11.7271 8.18132 11.8027 8.93007C11.8767 9.43324 12.0164 9.92451 12.2183 10.3913C12.2183 10.3913 11.9527 11.2182 11.6014 12.0407C11.2502 12.8632 11.0102 13.2944 11.0102 13.2944C10.3993 13.4931 9.82428 13.7885 9.30707 14.1694C8.79207 14.6488 8.5827 15.0169 8.85395 15.3851C9.0877 15.7026 9.90582 15.7744 10.6371 14.8163C11.0249 14.321 11.3799 13.8007 11.6996 13.2588C11.6996 13.2588 12.8146 12.9532 13.1614 12.8694C13.5083 12.7857 13.9277 12.7194 13.9277 12.7194C13.9277 12.7194 14.9458 13.7438 15.9277 13.7076C16.9096 13.6713 16.8621 13.1207 16.8558 13.0607" fill="#DD2025"/>
<path d="M15.6372 1.29688V4.9675H19.1578L15.6372 1.29688Z" fill="#909090"/>
<path d="M15.686 1.25V4.92063H19.2067L15.686 1.25Z" fill="#F4F4F4"/>
<path d="M6.27635 2.78289H5.45947V5.78289H6.10447V4.77164L6.24697 4.77976C6.38488 4.77786 6.52151 4.75315 6.65135 4.70664C6.76549 4.66788 6.87039 4.60596 6.95947 4.52476C7.05014 4.44795 7.12126 4.3507 7.16697 4.24101C7.23025 4.05896 7.25266 3.8652 7.2326 3.67351C7.22903 3.53655 7.20502 3.40088 7.16135 3.27101C7.12199 3.17714 7.06347 3.09252 6.98954 3.02257C6.9156 2.95261 6.82788 2.89887 6.73197 2.86476C6.64892 2.83384 6.56281 2.81184 6.4751 2.79914C6.40918 2.7884 6.34251 2.78297 6.27572 2.78289M6.1576 4.21664H6.10197V3.29164H6.22322C6.27646 3.2878 6.32988 3.29597 6.37953 3.31555C6.42919 3.33513 6.47381 3.36562 6.5101 3.40476C6.5853 3.5054 6.62547 3.62789 6.62447 3.75351C6.62447 3.90726 6.62447 4.04664 6.48572 4.14476C6.38579 4.19981 6.27199 4.22457 6.15822 4.21601M8.45197 2.77476C8.3826 2.77476 8.3151 2.77976 8.2676 2.78164L8.12072 2.78539H7.63322V5.78539H8.20697C8.42621 5.79103 8.64445 5.75388 8.84947 5.67601C9.01455 5.61082 9.16066 5.50532 9.27447 5.36914C9.386 5.23236 9.46564 5.07244 9.5076 4.90101C9.55689 4.70722 9.58084 4.50785 9.57885 4.30789C9.59108 4.07173 9.57281 3.83499 9.52447 3.60351C9.4782 3.43332 9.39257 3.27639 9.27447 3.14539C9.18185 3.03946 9.0679 2.95427 8.9401 2.89539C8.83061 2.84464 8.71541 2.80728 8.59697 2.78414C8.54988 2.77642 8.50219 2.77286 8.45447 2.77351M8.34072 5.23414H8.27822V3.31914H8.28635C8.4152 3.30424 8.54559 3.32749 8.66135 3.38601C8.74614 3.45372 8.81523 3.53901 8.86385 3.63601C8.91632 3.7381 8.94657 3.85014 8.9526 3.96476C8.95822 4.10226 8.9526 4.21476 8.9526 4.30789C8.95491 4.41516 8.94801 4.52242 8.93197 4.62851C8.91231 4.7373 8.87672 4.8426 8.82635 4.94101C8.76944 5.03279 8.69172 5.10987 8.59947 5.16601C8.52242 5.21602 8.43106 5.23929 8.33947 5.23226M11.5126 2.78539H9.99385V5.78539H10.6363V4.59539H11.4488V4.03789H10.6363V3.34289H11.5113V2.78539" fill="white"/>
</svg>
