<svg width="38" height="38" viewBox="0 0 38 38" fill="none" xmlns="http://www.w3.org/2000/svg">
<rect width="38" height="38" rx="8" fill="#5B74F5" fill-opacity="0.1"/>
<rect x="0.5" y="0.5" width="37" height="37" rx="7.5" stroke="#5B74F5" stroke-opacity="0.5"/>
<path d="M25.4286 19.0011C25.0341 19.0011 24.7143 19.3209 24.7143 19.7154V26.8583C24.7143 27.2528 24.3945 27.5726 24 27.5726H11.1429C10.7484 27.5726 10.4286 27.2528 10.4286 26.8583V12.5725C10.4286 12.178 10.7484 11.8582 11.1429 11.8582H19.7143C20.1088 11.8582 20.4286 11.5385 20.4286 11.1439C20.4286 10.7494 20.1088 10.4297 19.7143 10.4297H11.1429C9.95939 10.4297 9 11.3891 9 12.5725V26.8583C9 28.0417 9.95939 29.0011 11.1429 29.0011H24C25.1835 29.0011 26.1429 28.0417 26.1429 26.8583V19.7154C26.1429 19.3209 25.8231 19.0011 25.4286 19.0011Z" fill="#5B74F5"/>
<path d="M28.1992 9.80099C27.9452 9.54701 27.6437 9.34555 27.3119 9.20811C26.9801 9.07068 26.6245 8.99997 26.2653 9.00001C25.906 8.99897 25.5501 9.06927 25.2182 9.20685C24.8863 9.34442 24.585 9.54653 24.3318 9.80145L14.9231 19.2093C14.8451 19.2879 14.7862 19.3835 14.751 19.4886L13.3224 23.7743C13.1978 24.1486 13.4001 24.553 13.7744 24.6777C13.847 24.7019 13.9231 24.7142 13.9996 24.7143C14.0763 24.7142 14.1525 24.7019 14.2253 24.6779L18.511 23.2493C18.6163 23.2142 18.7119 23.155 18.7903 23.0765L28.1989 13.6679C29.2667 12.6001 29.2669 10.8689 28.1992 9.80099ZM27.1889 12.6586L17.9031 21.9443L15.1289 22.8707L16.0524 20.1L25.3417 10.8143C25.8524 10.3046 26.6796 10.3054 27.1893 10.8161C27.4328 11.0601 27.57 11.3904 27.571 11.735C27.5714 11.9066 27.5379 12.0765 27.4723 12.235C27.4067 12.3935 27.3104 12.5375 27.1889 12.6586Z" fill="#5B74F5"/>
</svg>
