<svg width="24" height="24" viewBox="0 0 24 24" fill="none" xmlns="http://www.w3.org/2000/svg">
<path fill-rule="evenodd" clip-rule="evenodd" d="M7.76923 4.24348C7.32249 3.53534 6.40381 3.29387 5.6666 3.69083C3.89946 4.64237 3.13126 6.77112 3.88355 8.63184L4.51971 10.2053C6.42783 14.9249 10.2926 18.5824 15.11 20.2278L15.2596 20.2789C17.1606 20.9282 19.2523 20.1076 20.2046 18.3389C20.6231 17.5617 20.3683 16.5931 19.6215 16.1224L17.4615 14.761C16.6972 14.2793 15.719 14.301 14.9768 14.8161L14.0174 15.4821C13.6223 15.7563 13.0999 15.7617 12.6992 15.4958C11.0413 14.3953 9.61637 12.979 8.50589 11.3277L9.12825 10.9092L8.50589 11.3277L8.45748 11.2557C8.18472 10.8501 8.18863 10.3188 8.46733 9.91725L9.12667 8.96732C9.64201 8.22485 9.66352 7.24621 9.1813 6.48181L7.76923 4.24348ZM4.95545 2.37012C6.3868 1.5994 8.1705 2.06822 9.03788 3.44315L10.4499 5.68148C11.2534 6.95505 11.2175 8.58558 10.3589 9.82262L9.82214 10.596C10.7704 11.978 11.9649 13.1733 13.3457 14.1224L14.1215 13.5839C15.358 12.7256 16.9879 12.6894 18.2613 13.492L20.4213 14.8534C21.8353 15.7446 22.3177 17.5785 21.5253 19.0501C20.2252 21.4645 17.3698 22.5847 14.7748 21.6984L14.6252 21.6473L14.8676 20.9376L14.6252 21.6473C9.39568 19.8611 5.2004 15.8908 3.12907 10.7676L2.49291 9.19408C1.45393 6.62427 2.51487 3.68428 4.95545 2.37012ZM9.70219 10.4187C9.70225 10.4188 9.70231 10.4188 9.70236 10.4189L9.70219 10.4187Z" fill="#32DACB"/>
</svg>
