<svg width="40" height="40" viewBox="0 0 40 40" fill="none" xmlns="http://www.w3.org/2000/svg">
<rect width="40" height="40" rx="8" fill="#32DACB"/>
<path d="M20.8511 21.5645H19.0433V19.5166C19.0433 19.3171 18.9004 19.1552 18.7243 19.1552H17.0228C16.8466 19.1552 16.7037 19.3171 16.7037 19.5166V21.5645H14.8959C14.7198 21.5645 14.5769 21.7264 14.5769 21.9259V23.8533C14.5769 24.0528 14.7198 24.2147 14.8959 24.2147H16.7037V26.2626C16.7037 26.4621 16.8466 26.624 17.0228 26.624H18.7243C18.9004 26.624 19.0433 26.4621 19.0433 26.2626V24.2147H20.8511C21.0272 24.2147 21.1701 24.0528 21.1701 23.8533V21.9259C21.1701 21.7264 21.0272 21.5645 20.8511 21.5645ZM20.5321 23.4919H18.7243C18.5481 23.4919 18.4052 23.6538 18.4052 23.8533V25.9012H17.3418V23.8533C17.3418 23.6538 17.1989 23.4919 17.0228 23.4919H15.2149V22.2873H17.0228C17.1989 22.2873 17.3418 22.1254 17.3418 21.9259V19.878H18.4052V21.9259C18.4052 22.1254 18.5481 22.2873 18.7243 22.2873H20.5321V23.4919ZM21.3853 15.2741C21.2491 15.1197 21.1701 14.9051 21.1701 14.6858V14.0958H21.2765C21.4526 14.0958 21.5955 13.9339 21.5955 13.7344V11.0767C21.5955 10.4838 21.1701 10 20.6451 10H15.1021C14.5787 10 14.1516 10.4819 14.1516 11.0767V13.7344C14.1516 13.9339 14.2945 14.0958 14.4706 14.0958H14.577V14.6858C14.577 14.9051 14.4981 15.1197 14.3618 15.2741L12.6985 17.1582C12.2624 17.6523 12.0239 18.3073 12.0239 19.0038V28.6532C12.0239 29.3949 12.5581 30 13.2128 30H22.5327C23.1873 30 23.7215 29.3949 23.7215 28.6532L23.7224 19.0038C23.7224 18.3073 23.4823 17.6523 23.0477 17.1582L21.3853 15.2741ZM14.7895 11.0766C14.7895 10.8818 14.9299 10.7227 15.1019 10.7227H20.6443C20.8162 10.7227 20.9567 10.8817 20.9567 11.0766V13.3729H19.8941V12.2887C19.8941 12.0892 19.7512 11.9273 19.575 11.9273C19.3989 11.9273 19.256 12.0892 19.256 12.2887V13.3729H18.1926V12.2887C18.1926 12.0892 18.0497 11.9273 17.8736 11.9273C17.6974 11.9273 17.5545 12.0892 17.5545 12.2887V13.3729H16.4911V12.2887C16.4911 12.0892 16.3482 11.9273 16.1721 11.9273C15.9959 11.9273 15.853 12.0892 15.853 12.2887V13.3729H14.7896L14.7895 11.0766ZM23.0842 28.6502C23.0842 28.9947 22.8375 29.2742 22.5334 29.2742H13.2136C12.9095 29.2742 12.6627 28.9947 12.6627 28.6502V19.0036C12.6627 18.5002 12.8347 18.0258 13.1496 17.6691L14.8129 15.785C15.0679 15.496 15.215 15.0961 15.215 14.6867V14.0956H20.5321V14.6857C20.5321 15.0951 20.6792 15.4951 20.9342 15.784L22.5975 17.6682C22.9123 18.0249 23.0843 18.4992 23.0843 19.0027L23.0842 28.6502ZM26.1682 21.0826C25.1704 21.0826 24.3603 22.0002 24.3603 23.1305V27.4673C24.3603 28.5976 25.1704 29.5152 26.1682 29.5152C27.166 29.5152 27.976 28.5976 27.976 27.4673V23.1305C27.976 22.0002 27.166 21.0826 26.1682 21.0826ZM26.1682 21.8054C26.8129 21.8054 27.3379 22.4002 27.3379 23.1305V24.9375H24.9984V23.1305C24.9984 22.4002 25.5235 21.8054 26.1682 21.8054ZM26.1682 28.7924C25.5235 28.7924 24.9984 28.1976 24.9984 27.4673V25.6603H27.3379V27.4673C27.3379 28.1976 26.8129 28.7924 26.1682 28.7924Z" fill="#0A263F" stroke="#0A263F" stroke-width="0.2"/>
</svg>
