<svg width="18" height="18" viewBox="0 0 18 18" fill="none" xmlns="http://www.w3.org/2000/svg">
<path d="M8.47852 10.0444C6.42352 8.38694 4.05352 9.96194 3.97852 9.97694V4.05194C5.53852 2.94944 7.37602 3.15944 8.47852 4.05194C10.5335 5.70944 12.9035 4.14194 12.9785 4.12694V10.0594C11.4035 11.1694 9.57352 10.9294 8.47852 10.0519V10.0444Z" fill="#FF4F37"/>
<path d="M3.97852 15.6709C3.76852 15.6709 3.60352 15.5059 3.60352 15.2959V3.2959C3.60352 3.0859 3.76852 2.9209 3.97852 2.9209C4.18852 2.9209 4.35352 3.0859 4.35352 3.2959V15.2959C4.35352 15.5059 4.18852 15.6709 3.97852 15.6709Z" fill="#FF4F37"/>
<path d="M8.24667 10.3386C7.13667 9.44613 5.32917 9.44613 4.21917 10.3386C4.05417 10.4661 3.82167 10.4436 3.69417 10.2786C3.56667 10.1136 3.58917 9.88113 3.75417 9.75363C5.12667 8.65113 7.35417 8.65113 8.72667 9.75363C9.79167 10.6086 11.5017 10.6461 12.6192 9.85863V4.72863C11.2617 5.41863 9.43917 5.29113 8.26167 4.33863C7.15167 3.44613 5.34417 3.44613 4.23417 4.33863C4.06917 4.46613 3.83667 4.44363 3.70917 4.27863C3.58167 4.11363 3.60417 3.88113 3.76917 3.75363C5.14167 2.65113 7.36917 2.65113 8.74167 3.75363C9.85167 4.64613 11.6592 4.64613 12.7692 3.75363C12.8243 3.71005 12.8906 3.68284 12.9605 3.67512C13.0304 3.6674 13.101 3.67948 13.1644 3.70998C13.2277 3.74048 13.2812 3.78816 13.3187 3.8476C13.3563 3.90704 13.3763 3.97583 13.3767 4.04613V10.0461C13.3767 10.1586 13.3242 10.2636 13.2342 10.3386C11.8617 11.4411 9.63417 11.4411 8.26167 10.3386H8.24667Z" fill="#FF4F37"/>
</svg>
