<svg width="18" height="18" viewBox="0 0 18 18" fill="none" xmlns="http://www.w3.org/2000/svg">
<g clip-path="url(#clip0_151_19057)">
<path d="M15.9375 8.06225C15.627 8.06225 15.375 7.81025 15.375 7.49975C15.375 5.34573 14.5365 3.3215 13.014 1.79825C12.7943 1.57853 12.7943 1.22229 13.014 1.00256C13.2337 0.782837 13.59 0.782837 13.8098 1.00256C15.5445 2.73802 16.5 5.04581 16.5 7.49975C16.5 7.81025 16.248 8.06225 15.9375 8.06225ZM0.5625 8.06225C0.252 8.06225 0 7.81025 0 7.49975C0 5.04585 0.955547 2.73802 2.69096 1.00327C2.91069 0.78354 3.26707 0.78354 3.4868 1.00327C3.70652 1.22299 3.70652 1.57937 3.4868 1.7991C1.96355 3.3215 1.125 5.34573 1.125 7.49975C1.125 7.81025 0.873 8.06225 0.5625 8.06225ZM8.25005 17.9998C6.69906 17.9998 5.43755 16.7383 5.43755 15.1873C5.43755 14.8768 5.68955 14.6248 6.00005 14.6248C6.31055 14.6248 6.56255 14.8768 6.56255 15.1873C6.56255 16.1181 7.31921 16.8748 8.25005 16.8748C9.18074 16.8748 9.93755 16.1181 9.93755 15.1873C9.93755 14.8768 10.1895 14.6248 10.5 14.6248C10.8105 14.6248 11.0625 14.8768 11.0625 15.1873C11.0625 16.7383 9.80103 17.9998 8.25005 17.9998Z" fill="#FF6B6B"/>
<path d="M14.4376 15.75H2.06259C1.33873 15.75 0.75 15.1613 0.75 14.4375C0.74988 14.248 0.79086 14.0606 0.870119 13.8884C0.949377 13.7162 1.06503 13.5632 1.20911 13.44C2.34975 12.4762 3 11.0753 3 9.59108V7.49995C3 4.60505 5.35505 2.25 8.25009 2.25C11.145 2.25 13.5 4.60505 13.5 7.49995V9.59105C13.5 11.0753 14.1503 12.4762 15.2835 13.4348C15.5828 13.6898 15.75 14.0534 15.75 14.4375C15.75 15.1613 15.1613 15.75 14.4376 15.75ZM8.25009 3.375C5.97524 3.375 4.125 5.22524 4.125 7.49995V9.59105C4.125 11.4067 3.32931 13.1213 1.94257 14.2935C1.91634 14.316 1.875 14.3626 1.875 14.4375C1.875 14.5394 1.96057 14.625 2.06259 14.625H14.4376C14.5395 14.625 14.625 14.5394 14.625 14.4375C14.625 14.3626 14.5838 14.316 14.559 14.295C13.1707 13.1213 12.375 11.4067 12.375 9.59108V7.49995C12.375 5.22524 10.5248 3.375 8.25009 3.375Z" fill="#FF6B6B"/>
<path d="M8.25049 3.375C7.93999 3.375 7.68799 3.123 7.68799 2.8125V0.5625C7.68799 0.252 7.93999 0 8.25049 0C8.56099 0 8.81299 0.252 8.81299 0.5625V2.8125C8.81299 3.123 8.56099 3.375 8.25049 3.375Z" fill="#FF6B6B"/>
</g>
<defs>
<clipPath id="clip0_151_19057">
<rect width="18" height="18" fill="white"/>
</clipPath>
</defs>
</svg>
