<svg width="20" height="18" viewBox="0 0 20 18" fill="none" xmlns="http://www.w3.org/2000/svg">
<path d="M11.0767 17.0889C10.9992 17.0115 10.9378 16.9196 10.8958 16.8184C10.8539 16.7172 10.8323 16.6088 10.8323 16.4993C10.8323 16.3898 10.8539 16.2813 10.8958 16.1802C10.9378 16.079 10.9992 15.9871 11.0767 15.9097L17.1546 9.83285L0.833305 9.83284C0.612299 9.83284 0.400343 9.74505 0.244068 9.58878C0.087793 9.4325 -3.7393e-07 9.22054 -3.6427e-07 8.99954C-3.54609e-07 8.77853 0.087793 8.56658 0.244068 8.4103C0.400343 8.25403 0.612299 8.16623 0.833305 8.16623L17.1546 8.16623L11.0767 2.08935C10.9204 1.93299 10.8325 1.72091 10.8325 1.49978C10.8325 1.27866 10.9204 1.06658 11.0767 0.910221C11.2331 0.753858 11.4452 0.666015 11.6663 0.666015C11.8874 0.666015 12.0995 0.753859 12.2558 0.910221L19.7556 8.40998C19.8331 8.48737 19.8945 8.57927 19.9365 8.68043C19.9784 8.7816 20 8.89003 20 8.99954C20 9.10905 19.9784 9.21748 19.9365 9.31865C19.8945 9.41981 19.8331 9.51171 19.7556 9.5891L12.2558 17.0889C12.1785 17.1663 12.0866 17.2278 11.9854 17.2697C11.8842 17.3117 11.7758 17.3333 11.6663 17.3333C11.5568 17.3333 11.4483 17.3117 11.3472 17.2697C11.246 17.2278 11.1541 17.1663 11.0767 17.0889Z" fill="#82CC2F"/>
</svg>
