<svg width="16" height="16" viewBox="0 0 16 16" fill="none" xmlns="http://www.w3.org/2000/svg">
<path d="M11.0723 3.07118e-05C8.34368 3.07118e-05 6.14473 2.19898 6.14473 4.92765C6.14473 5.0724 6.16752 5.26827 6.18353 5.44752L0.909127 10.7213C0.621023 11.0075 0.392377 11.3479 0.236351 11.7229C0.080325 12.0979 0 12.5 0 12.9061C0 13.3122 0.080325 13.7143 0.236351 14.0893C0.392377 14.4642 0.621023 14.8046 0.909127 15.0909C1.19537 15.379 1.53576 15.6076 1.91072 15.7636C2.28567 15.9197 2.68779 16 3.09391 16C3.50004 16 3.90215 15.9197 4.27711 15.7636C4.65206 15.6076 4.99246 15.379 5.2787 15.0909L10.5525 9.81647C10.7311 9.83248 10.9282 9.85527 11.0723 9.85527C13.801 9.85527 16 7.65632 16 4.92765C16.0032 4.13369 15.8044 3.35195 15.4222 2.65602L15.0372 1.94398L14.4601 2.52174L11.8035 5.15802L10.8414 4.1959L13.4776 1.53991L14.0566 0.962149L13.344 0.577178C12.6478 0.195736 11.8662 -0.00284111 11.0723 3.07118e-05ZM11.0723 1.23194C11.3717 1.23194 11.5947 1.36129 11.8608 1.42473L9.53247 3.75303L9.08898 4.19652L9.53247 4.61968L11.3803 6.46753L11.8041 6.91102L12.2464 6.46753L14.5759 4.13923C14.6393 4.40532 14.7681 4.6283 14.7681 4.92765C14.7681 7.00341 13.1481 8.62337 11.0723 8.62337C10.826 8.62337 10.6289 8.62337 10.4749 8.58456L10.1484 8.48847L9.89834 8.73917L4.41205 14.2255C3.65443 14.9831 2.53339 14.9831 1.77577 14.2255L1.75606 14.2057C1.01692 13.4481 1.02308 12.3394 1.77454 11.5879L7.26083 6.10227L7.51152 5.8522L7.4142 5.52574C7.37725 5.37175 7.37601 5.17465 7.37601 4.92827C7.37601 2.85251 8.99597 1.23255 11.0717 1.23255L11.0723 1.23194Z" fill="#0A263F"/>
</svg>
