<svg width="40" height="40" viewBox="0 0 40 40" fill="none" xmlns="http://www.w3.org/2000/svg">
<rect width="40" height="40" rx="8" fill="#32DACB"/>
<path fill-rule="evenodd" clip-rule="evenodd" d="M15.191 24.2975C14.6398 24.3009 14.1449 24.7178 13.9362 25.3542C13.7275 25.9918 13.8452 26.723 14.2358 27.2089C14.6264 27.6938 15.2123 27.8387 15.7207 27.5745C16.229 27.3104 16.5608 26.6895 16.5608 26.0007C16.5599 25.5481 16.4154 25.1134 16.1586 24.7946C15.9017 24.4747 15.553 24.2964 15.191 24.2975ZM15.191 26.5691C15.0072 26.568 14.8423 26.4287 14.7727 26.2158C14.7031 26.004 14.7424 25.7599 14.8726 25.5983C15.0028 25.4367 15.1981 25.3887 15.3675 25.4768C15.537 25.5648 15.6476 25.771 15.6476 26.0007C15.6467 26.315 15.4424 26.5691 15.191 26.5691ZM20.6702 24.2975C20.119 24.3009 19.6241 24.7178 19.4154 25.3542C19.2067 25.9918 19.3245 26.723 19.7151 27.2089C20.1057 27.6938 20.6916 27.8387 21.1999 27.5745C21.7083 27.3104 22.04 26.6895 22.04 26.0007C22.0391 25.5481 21.8946 25.1134 21.6378 24.7946C21.381 24.4747 21.0323 24.2964 20.6702 24.2975ZM20.6702 26.5691C20.4865 26.568 20.3215 26.4287 20.2519 26.2158C20.1824 26.004 20.2216 25.7599 20.3518 25.5983C20.482 25.4367 20.6773 25.3887 20.8468 25.4768C21.0162 25.5648 21.1268 25.771 21.1268 26.0007C21.1259 26.315 20.9217 26.5691 20.6702 26.5691ZM20.6702 22.0259C20.5177 22.027 20.3643 22.0426 20.2136 22.0704V13.9849C20.2136 13.9849 20.2136 10.9531 17.9306 10C15.6476 10.953 15.6476 13.9849 15.6476 13.9849V22.0716C14.4882 21.8665 13.3314 22.4751 12.6395 23.6555C11.9465 24.8359 11.8297 26.3964 12.3345 27.7171C12.8392 29.0379 13.8853 29.9051 15.0554 29.972C16.2254 30.04 17.3303 29.2976 17.9306 28.0415C18.5094 29.2653 19.5653 30.011 20.7024 29.9999C21.8403 29.9887 22.8864 29.2207 23.4491 27.9857C24.0118 26.7496 24.0056 25.2337 23.433 24.0054C22.8605 22.7771 21.8073 22.0236 20.6702 22.0259ZM19.3004 13.9848V16.3467L18.3872 15.2109V11.5838C18.9392 12.1958 19.2692 13.063 19.3004 13.9848ZM17.1476 27.4563C16.7347 28.3313 15.9802 28.8641 15.1678 28.8563C14.3553 28.8484 13.608 28.3001 13.2067 27.4184C12.8045 26.5356 12.8089 25.4522 13.2174 24.5749C13.6267 23.6977 14.3785 23.1594 15.1909 23.1616C15.3006 23.1638 15.4094 23.175 15.5182 23.195L16.5608 23.3812V17.4825L17.474 18.6183V26.7798L17.1476 27.4563ZM20.6703 28.8407C19.8685 28.844 19.1239 28.3179 18.7136 27.4563L18.3872 26.7797V18.3329L16.5608 16.0613V13.9925C16.5912 13.0673 16.9202 12.1979 17.474 11.5838V15.495L19.3004 17.7666V23.3811L20.343 23.195C20.969 23.0779 21.6049 23.2919 22.0989 23.7857C22.593 24.2795 22.8989 25.0085 22.9452 25.7976C22.9907 26.5857 22.7713 27.3626 22.3397 27.94C21.9081 28.5173 21.3025 28.844 20.6703 28.8407ZM27.0627 10.1003C24.5345 10.1003 23.8665 13.4431 23.8665 15.2108V18.9035H25.2354L25.2238 28.8392L25.2229 29.9751H27.976V10.1001L27.0627 10.1003ZM27.0627 28.8407H26.137L26.1495 17.7667H24.7797V15.2119C24.7797 15.2119 24.7797 11.237 27.0627 11.237L27.0627 28.8407Z" fill="#0A263F"/>
</svg>
