<svg width="38" height="38" viewBox="0 0 38 38" fill="none" xmlns="http://www.w3.org/2000/svg">
<rect width="38" height="38" rx="8" fill="#FF3030" fill-opacity="0.1"/>
<rect x="0.5" y="0.5" width="37" height="37" rx="7.5" stroke="#FF3030" stroke-opacity="0.5"/>
<path d="M10.4927 12.5H11.5864L13.0696 28.395C13.1021 28.7381 13.3896 29 13.7333 29H24.2671C24.6108 29 24.8983 28.7375 24.9308 28.395L26.4127 12.5006H27.5077C27.6846 12.5006 27.8542 12.4304 27.9792 12.3053C28.1043 12.1802 28.1746 12.0106 28.1746 11.8338C28.1746 11.6569 28.1043 11.4873 27.9792 11.3622C27.8542 11.2371 27.6846 11.1669 27.5077 11.1669H10.4921C10.3152 11.1669 10.1456 11.2371 10.0205 11.3622C9.89546 11.4873 9.8252 11.6569 9.8252 11.8338C9.8252 12.0106 9.89546 12.1802 10.0205 12.3053C10.1456 12.4304 10.3152 12.5006 10.4921 12.5006L10.4927 12.5ZM25.0739 12.5L23.6596 27.6669H14.3408L12.9258 12.5H25.0739ZM14.2489 10.3331H23.7514C23.9247 10.3278 24.0891 10.2553 24.2097 10.1308C24.3304 10.0064 24.3979 9.83989 24.3979 9.66656C24.3979 9.49323 24.3304 9.32671 24.2097 9.20228C24.0891 9.07786 23.9247 9.00531 23.7514 9H14.2489C14.0757 9.00531 13.9113 9.07786 13.7906 9.20228C13.67 9.32671 13.6025 9.49323 13.6025 9.66656C13.6025 9.83989 13.67 10.0064 13.7906 10.1308C13.9113 10.2553 14.0757 10.3278 14.2489 10.3331Z" fill="#FF3030"/>
</svg>
