<svg width="105" height="34" viewBox="0 0 105 34" fill="none" xmlns="http://www.w3.org/2000/svg">
<rect x="0.48291" width="104.517" height="34" rx="6" fill="#FF3030" fill-opacity="0.1"/>
<rect x="0.98291" y="0.5" width="103.517" height="33" rx="5.5" stroke="#FF3030" stroke-opacity="0.5"/>
<path fill-rule="evenodd" clip-rule="evenodd" d="M21.3106 20.7189V22.581C21.3106 23.0953 21.7273 23.512 22.2417 23.512C22.756 23.512 23.1727 23.0953 23.1727 22.581V20.7189C23.5497 20.4357 23.7934 19.9849 23.7934 19.4775C23.7934 18.621 23.0982 17.9258 22.2417 17.9258C21.3851 17.9258 20.6899 18.621 20.6899 19.4775C20.6899 19.9849 20.9336 20.4357 21.3106 20.7189ZM21.9313 20.5529C21.9313 20.4419 21.8723 20.3395 21.7761 20.2844C21.4984 20.123 21.3106 19.822 21.3106 19.4775C21.3106 18.9639 21.728 18.5465 22.2416 18.5465C22.7553 18.5465 23.1727 18.9639 23.1727 19.4775C23.1727 19.822 22.9849 20.123 22.7072 20.2844C22.6109 20.3395 22.552 20.4419 22.552 20.5529V22.581C22.552 22.7524 22.4131 22.8913 22.2416 22.8913C22.0702 22.8913 21.9313 22.7524 21.9313 22.581L21.9313 20.5529Z" fill="#FF3030"/>
<path fill-rule="evenodd" clip-rule="evenodd" d="M18.207 15.4483H16.6553C16.0789 15.4483 15.5264 15.6771 15.1191 16.0845C14.7118 16.4918 14.4829 17.0442 14.4829 17.6207V23.8276C14.4829 24.404 14.7118 24.9565 15.1191 25.3638C15.5264 25.7711 16.0788 26 16.6553 26H27.8277C28.4041 26 28.9566 25.7711 29.3639 25.3638C29.7712 24.9565 30.0001 24.4041 30.0001 23.8276V17.6207C30.0001 17.0442 29.7712 16.4918 29.3639 16.0845C28.9566 15.6771 28.4042 15.4483 27.8277 15.4483H20.0692V12.0344C20.0692 10.8349 21.0421 9.86187 22.2417 9.86187C23.4413 9.86187 24.4142 10.8348 24.4142 12.0344V13.8965C24.4142 14.4108 24.8308 14.8275 25.3452 14.8275C25.8596 14.8275 26.2763 14.4108 26.2763 13.8965V12.0344C26.2763 9.80606 24.47 8 22.2419 8C20.0137 8 18.2075 9.80622 18.2075 12.0344L18.207 15.4483ZM27.8278 16.069H16.6554C16.2442 16.069 15.8493 16.2327 15.5584 16.5236C15.2674 16.8146 15.1037 17.2095 15.1037 17.6207V23.8276C15.1037 24.2388 15.2674 24.6337 15.5584 24.9246C15.8493 25.2156 16.2442 25.3793 16.6554 25.3793H27.8278C28.239 25.3793 28.6339 25.2156 28.9248 24.9246C29.2158 24.6337 29.3795 24.2388 29.3795 23.8276V17.6207C29.3795 17.2095 29.2158 16.8146 28.9248 16.5236C28.6339 16.2327 28.239 16.069 27.8278 16.069ZM18.8279 15.4483H19.4486V12.0344C19.4486 10.492 20.6993 9.24138 22.2416 9.24138C23.7839 9.24138 25.0346 10.4921 25.0346 12.0344V13.8965C25.0346 14.0679 25.1735 14.2068 25.3449 14.2068C25.5164 14.2068 25.6553 14.0679 25.6553 13.8965V12.0344C25.6553 10.149 24.1268 8.62049 22.2414 8.62049C20.356 8.62049 18.8275 10.1489 18.8275 12.0344L18.8279 15.4483Z" fill="#FF3030"/>
<path d="M47.1846 12.8896V19.4521C47.1846 20.6143 46.8656 21.5212 46.2275 22.1729C45.5941 22.8245 44.6279 23.1504 43.3291 23.1504C42.0303 23.1504 41.071 22.8245 40.4512 22.1729C39.8314 21.5212 39.5215 20.6097 39.5215 19.4385V12.8896H40.7109V19.459C40.7109 20.375 40.9274 21.0495 41.3604 21.4824C41.7933 21.9154 42.4632 22.1318 43.3701 22.1318C44.2542 22.1318 44.9128 21.9131 45.3457 21.4756C45.7832 21.0381 46.002 20.3636 46.002 19.4521V12.8896H47.1846ZM49.2627 23V15.501H50.2197L50.3633 16.5742C50.6595 16.2051 51.0286 15.9089 51.4707 15.6855C51.9173 15.4577 52.3981 15.3438 52.9131 15.3438C53.779 15.3438 54.4193 15.5876 54.834 16.0752C55.2487 16.5583 55.4561 17.3034 55.4561 18.3105V23H54.3145C54.3145 19.9922 54.3122 18.3812 54.3076 18.167C54.2894 17.529 54.1595 17.0618 53.918 16.7656C53.681 16.4694 53.2822 16.3213 52.7217 16.3213C52.1338 16.3213 51.6439 16.4626 51.252 16.7451C50.86 17.0277 50.6048 17.3945 50.4863 17.8457C50.4408 18.151 50.418 18.502 50.418 18.8984V23H49.2627ZM60.7676 16.2939C60.043 16.2939 59.487 16.5446 59.0996 17.0459C58.7168 17.5426 58.5254 18.2741 58.5254 19.2402C58.5254 21.2181 59.2705 22.207 60.7607 22.207C61.1299 22.207 61.4535 22.1318 61.7314 21.9814C62.014 21.8265 62.235 21.6123 62.3945 21.3389C62.5586 21.0609 62.6794 20.7487 62.7568 20.4023C62.8389 20.056 62.8799 19.6709 62.8799 19.2471C62.8799 18.6729 62.8115 18.1715 62.6748 17.7432C62.5426 17.3148 62.3148 16.9661 61.9912 16.6973C61.6676 16.4284 61.2598 16.2939 60.7676 16.2939ZM60.8838 15.3438C61.5492 15.3438 62.1234 15.5124 62.6064 15.8496C63.0895 16.1868 63.4518 16.6449 63.6934 17.2236C63.9349 17.8024 64.0557 18.4655 64.0557 19.2129C64.0557 19.9876 63.9349 20.6689 63.6934 21.2568C63.4564 21.8447 63.0941 22.3096 62.6064 22.6514C62.1234 22.9886 61.5446 23.1572 60.8701 23.1572C60.3734 23.1572 59.9199 23.0501 59.5098 22.8359C59.0996 22.6217 58.7578 22.3301 58.4844 21.9609L58.3682 23H57.3906V12.5889L58.5322 12.5205V15.002C58.5322 15.6126 58.5231 16.1367 58.5049 16.5742C58.7692 16.196 59.111 15.8975 59.5303 15.6787C59.9541 15.4554 60.4053 15.3438 60.8838 15.3438ZM67.6855 23.1367C66.9564 23.1367 66.4391 22.9408 66.1338 22.5488C65.833 22.1569 65.6826 21.4756 65.6826 20.5049V12.5889L66.8174 12.5205V20.0537C66.8174 20.3636 66.8197 20.612 66.8242 20.7988C66.8333 20.9857 66.8516 21.1702 66.8789 21.3525C66.9062 21.5303 66.9427 21.6647 66.9883 21.7559C67.0339 21.847 67.0999 21.9313 67.1865 22.0088C67.2731 22.0817 67.3757 22.1318 67.4941 22.1592C67.6172 22.182 67.7676 22.1934 67.9453 22.1934C68.0911 22.1934 68.3783 22.166 68.8066 22.1113L68.8682 23.0205C68.3988 23.098 68.0046 23.1367 67.6855 23.1367ZM70.3994 19.2676C70.3994 20.1562 70.5954 20.8695 70.9873 21.4072C71.3838 21.9404 71.9603 22.207 72.7168 22.207C73.4642 22.207 74.027 21.9404 74.4053 21.4072C74.7881 20.874 74.9795 20.1562 74.9795 19.2539C74.9795 18.3379 74.7904 17.6178 74.4121 17.0938C74.0384 16.5651 73.4665 16.3008 72.6963 16.3008C71.9489 16.3008 71.3792 16.5697 70.9873 17.1074C70.5954 17.6452 70.3994 18.3652 70.3994 19.2676ZM76.1621 19.2471C76.1621 20.4092 75.8522 21.3525 75.2324 22.0771C74.6126 22.7972 73.7559 23.1572 72.6621 23.1572C71.6094 23.1572 70.7708 22.7926 70.1465 22.0635C69.5267 21.3343 69.2168 20.3978 69.2168 19.2539C69.2168 18.0872 69.529 17.1439 70.1533 16.4238C70.7777 15.7038 71.6344 15.3438 72.7236 15.3438C73.7946 15.3438 74.6354 15.7061 75.2461 16.4307C75.8568 17.1507 76.1621 18.0895 76.1621 19.2471ZM80.9541 23.1572C79.8512 23.1572 78.9876 22.7995 78.3633 22.084C77.7435 21.3685 77.4336 20.432 77.4336 19.2744C77.4382 18.1077 77.7549 17.1621 78.3838 16.4375C79.0173 15.7083 79.8831 15.3438 80.9814 15.3438C81.3688 15.3438 81.7425 15.3916 82.1025 15.4873C82.4671 15.583 82.7542 15.7083 82.9639 15.8633L82.6494 16.752C82.1162 16.4648 81.5534 16.3213 80.9609 16.3213C80.2363 16.3213 79.6621 16.5856 79.2383 17.1143C78.819 17.6429 78.6094 18.3652 78.6094 19.2812C78.6094 20.1745 78.8167 20.8831 79.2314 21.4072C79.6507 21.9268 80.2295 22.1865 80.9678 22.1865C81.5557 22.1865 82.1572 22.027 82.7725 21.708L82.916 22.6172C82.4193 22.9772 81.7653 23.1572 80.9541 23.1572ZM84.4131 23V12.5889L85.5479 12.5205V17.9688V18.9258C85.5752 18.8984 85.6162 18.8529 85.6709 18.7891C85.7256 18.7253 85.7689 18.6774 85.8008 18.6455C86.1973 18.2126 87.2227 17.1644 88.877 15.501H90.3262L87.209 18.6592L90.5449 23H89.123L86.3818 19.3086L85.5479 20.0264V23H84.4131Z" fill="#FF3030"/>
</svg>
