<svg width="16" height="18" viewBox="0 0 16 18" fill="none" xmlns="http://www.w3.org/2000/svg">
<path fill-rule="evenodd" clip-rule="evenodd" d="M7.31063 12.7189V14.581C7.31063 15.0953 7.72727 15.512 8.24166 15.512C8.75604 15.512 9.17269 15.0953 9.17269 14.581V12.7189C9.54975 12.4357 9.79338 11.9849 9.79338 11.4775C9.79338 10.621 9.09821 9.92578 8.24166 9.92578C7.38511 9.92578 6.68994 10.621 6.68994 11.4775C6.68994 11.9849 6.93357 12.4357 7.31063 12.7189ZM7.93132 12.5529C7.93132 12.4419 7.87235 12.3395 7.77614 12.2844C7.49839 12.123 7.31062 11.822 7.31062 11.4775C7.31062 10.9639 7.72804 10.5465 8.24165 10.5465C8.75526 10.5465 9.17268 10.9639 9.17268 11.4775C9.17268 11.822 8.98492 12.123 8.70715 12.2844C8.61095 12.3395 8.55198 12.4419 8.55198 12.5529V14.581C8.55198 14.7524 8.4131 14.8913 8.24164 14.8913C8.07017 14.8913 7.9313 14.7524 7.9313 14.581L7.93132 12.5529Z" fill="#FF3030"/>
<path fill-rule="evenodd" clip-rule="evenodd" d="M4.20703 7.44828H2.65531C2.07886 7.44828 1.52644 7.67715 1.11911 8.08448C0.71178 8.49181 0.48291 9.04421 0.48291 9.62069V15.8276C0.48291 16.404 0.71178 16.9565 1.11911 17.3638C1.52644 17.7711 2.07884 18 2.65531 18H13.8277C14.4041 18 14.9566 17.7711 15.3639 17.3638C15.7712 16.9565 16.0001 16.4041 16.0001 15.8276V9.62069C16.0001 9.04423 15.7712 8.49181 15.3639 8.08448C14.9566 7.67715 14.4042 7.44828 13.8277 7.44828H6.06919V4.03438C6.06919 2.83489 7.04211 1.86187 8.24169 1.86187C9.44128 1.86187 10.4142 2.83479 10.4142 4.03438V5.89645C10.4142 6.41084 10.8308 6.82749 11.3452 6.82749C11.8596 6.82749 12.2763 6.41084 12.2763 5.89645V4.03438C12.2763 1.80606 10.47 0 8.24189 0C6.01374 0 4.20753 1.80622 4.20753 4.03438L4.20703 7.44828ZM13.8278 8.06897H2.65541C2.24421 8.06897 1.8493 8.23267 1.55836 8.52363C1.26742 8.81457 1.1037 9.20949 1.1037 9.62069V15.8276C1.1037 16.2388 1.2674 16.6337 1.55836 16.9246C1.8493 17.2156 2.24421 17.3793 2.65541 17.3793H13.8278C14.239 17.3793 14.6339 17.2156 14.9248 16.9246C15.2158 16.6337 15.3795 16.2388 15.3795 15.8276V9.62069C15.3795 9.20949 15.2158 8.81457 14.9248 8.52363C14.6339 8.23269 14.239 8.06897 13.8278 8.06897ZM4.82792 7.44828H5.4486V4.03438C5.4486 2.49197 6.69929 1.24138 8.24159 1.24138C9.7839 1.24138 11.0346 2.49207 11.0346 4.03438V5.89645C11.0346 6.06792 11.1735 6.2068 11.3449 6.2068C11.5164 6.2068 11.6553 6.06792 11.6553 5.89645V4.03438C11.6553 2.14904 10.1268 0.620491 8.2414 0.620491C6.35596 0.620491 4.82752 2.14894 4.82752 4.03438L4.82792 7.44828Z" fill="#FF3030"/>
</svg>
