<svg width="16" height="15" viewBox="0 0 16 15" fill="none" xmlns="http://www.w3.org/2000/svg">
<path d="M7.5 11.077V2.427L5.17 4.757L4.462 4.039L8 0.5L11.539 4.039L10.831 4.758L8.5 2.427V11.077H7.5ZM2.616 14.5C2.15533 14.5 1.771 14.346 1.463 14.038C1.155 13.73 1.00067 13.3453 1 12.884V10.461H2V12.884C2 13.038 2.064 13.1793 2.192 13.308C2.32 13.4367 2.461 13.5007 2.615 13.5H13.385C13.5383 13.5 13.6793 13.436 13.808 13.308C13.9367 13.18 14.0007 13.0387 14 12.884V10.461H15V12.884C15 13.3447 14.846 13.729 14.538 14.037C14.23 14.345 13.8453 14.4993 13.384 14.5H2.616Z" fill="#82CC2F" stroke="#82CC2F" stroke-width="0.5"/>
</svg>
