<svg width="16" height="20" viewBox="0 0 16 20" fill="none" xmlns="http://www.w3.org/2000/svg">
<path d="M2.94295 18.75H1.89744C1.65942 18.75 1.43115 18.6555 1.26285 18.4872C1.09455 18.3188 1 18.0906 1 17.8526V2.14744C1 1.90942 1.09455 1.68115 1.26285 1.51285C1.43115 1.34455 1.65942 1.25 1.89744 1.25H2.94295M2.94295 18.75V1.25M2.94295 18.75H14.1026C14.3406 18.75 14.5688 18.6555 14.7371 18.4872C14.9054 18.3188 15 18.0906 15 17.8526V2.14744C15 1.90942 14.9054 1.68115 14.7371 1.51285C14.5688 1.34455 14.3406 1.25 14.1026 1.25H2.94295" stroke="#0A263F" stroke-linecap="round" stroke-linejoin="round"/>
<path d="M8.68717 14.7455C8.89112 14.7455 9.05646 14.579 9.05646 14.3736C9.05646 14.1682 8.89112 14.0017 8.68717 14.0017C8.48321 14.0017 8.31787 14.1682 8.31787 14.3736C8.31787 14.579 8.48321 14.7455 8.68717 14.7455Z" fill="#0A263F"/>
<path d="M5.44258 8.22725C5.4339 7.82966 5.50751 7.43457 5.65878 7.06678C5.81005 6.69899 6.03572 6.36644 6.32162 6.09001C6.96721 5.52504 7.80937 5.23712 8.66572 5.2886C10.4238 5.2886 11.8889 6.62443 11.8889 8.22725C11.8975 8.62477 11.8238 9.01978 11.6726 9.38749C11.5213 9.7552 11.2957 10.0877 11.0098 10.364C10.2775 10.898 8.66572 11.6999 8.66572 12.902" stroke="#0A263F" stroke-linecap="round" stroke-linejoin="round"/>
</svg>
