<svg width="13" height="12" viewBox="0 0 13 12" fill="none" xmlns="http://www.w3.org/2000/svg">
<path d="M7.87217 1.25092C7.80211 1.32107 7.76276 1.41616 7.76276 1.51531C7.76276 1.61446 7.80211 1.70955 7.87217 1.7797L11.7227 5.6308L1.65154 5.6308C1.55231 5.6308 1.45715 5.67022 1.38699 5.74039C1.31682 5.81055 1.27741 5.90571 1.27741 6.00494C1.27741 6.10417 1.31682 6.19933 1.38699 6.26949C1.45715 6.33966 1.55231 6.37908 1.65154 6.37908L11.7227 6.37908L7.87217 10.2302C7.80609 10.3011 7.77011 10.3949 7.77182 10.4918C7.77353 10.5888 7.81279 10.6812 7.88134 10.7498C7.94989 10.8183 8.04237 10.8576 8.1393 10.8593C8.23622 10.861 8.33003 10.825 8.40095 10.759L12.8906 6.26933C12.9606 6.19918 13 6.10409 13 6.00494C13 5.90579 12.9606 5.8107 12.8906 5.74055L8.40095 1.25092C8.3308 1.18086 8.23571 1.1415 8.13656 1.1415C8.03742 1.1415 7.94233 1.18086 7.87217 1.25092Z" fill="#82CC2F" stroke="#82CC2F" stroke-width="0.8"/>
</svg>
