<svg width="15" height="16" viewBox="0 0 15 16" fill="none" xmlns="http://www.w3.org/2000/svg">
<path d="M13.9706 0.5H1.02941C0.756395 0.5 0.49456 0.628633 0.301508 0.857602C0.108456 1.08657 0 1.39712 0 1.72093V14.2791C0 14.6029 0.108456 14.9134 0.301508 15.1424C0.49456 15.3714 0.756395 15.5 1.02941 15.5H13.9706C14.2436 15.5 14.5054 15.3714 14.6985 15.1424C14.8915 14.9134 15 14.6029 15 14.2791V1.72093C15 1.39712 14.8915 1.08657 14.6985 0.857602C14.5054 0.628633 14.2436 0.5 13.9706 0.5ZM14.1176 14.2791C14.1176 14.3253 14.1022 14.3697 14.0746 14.4024C14.047 14.4351 14.0096 14.4535 13.9706 14.4535H1.02941C0.990409 14.4535 0.953004 14.4351 0.925425 14.4024C0.897847 14.3697 0.882353 14.3253 0.882353 14.2791V1.72093C0.882353 1.67467 0.897847 1.63031 0.925425 1.5976C0.953004 1.56489 0.990409 1.54651 1.02941 1.54651H13.9706C14.0096 1.54651 14.047 1.56489 14.0746 1.5976C14.1022 1.63031 14.1176 1.67467 14.1176 1.72093V14.2791ZM11.4706 5.2093C11.4706 5.34808 11.4241 5.48117 11.3414 5.5793C11.2586 5.67743 11.1464 5.73256 11.0294 5.73256H3.97059C3.85358 5.73256 3.74137 5.67743 3.65863 5.5793C3.57589 5.48117 3.52941 5.34808 3.52941 5.2093C3.52941 5.07053 3.57589 4.93743 3.65863 4.8393C3.74137 4.74118 3.85358 4.68605 3.97059 4.68605H11.0294C11.1464 4.68605 11.2586 4.74118 11.3414 4.8393C11.4241 4.93743 11.4706 5.07053 11.4706 5.2093ZM11.4706 8C11.4706 8.13878 11.4241 8.27187 11.3414 8.37C11.2586 8.46813 11.1464 8.52326 11.0294 8.52326H3.97059C3.85358 8.52326 3.74137 8.46813 3.65863 8.37C3.57589 8.27187 3.52941 8.13878 3.52941 8C3.52941 7.86122 3.57589 7.72813 3.65863 7.63C3.74137 7.53187 3.85358 7.47674 3.97059 7.47674H11.0294C11.1464 7.47674 11.2586 7.53187 11.3414 7.63C11.4241 7.72813 11.4706 7.86122 11.4706 8ZM11.4706 10.7907C11.4706 10.9295 11.4241 11.0626 11.3414 11.1607C11.2586 11.2588 11.1464 11.314 11.0294 11.314H3.97059C3.85358 11.314 3.74137 11.2588 3.65863 11.1607C3.57589 11.0626 3.52941 10.9295 3.52941 10.7907C3.52941 10.6519 3.57589 10.5188 3.65863 10.4207C3.74137 10.3226 3.85358 10.2674 3.97059 10.2674H11.0294C11.1464 10.2674 11.2586 10.3226 11.3414 10.4207C11.4241 10.5188 11.4706 10.6519 11.4706 10.7907Z" fill="#7A7A7A"/>
</svg>
