<svg width="10" height="10" viewBox="0 0 10 10" fill="none" xmlns="http://www.w3.org/2000/svg">
<path d="M5.16683 0.166016C5.29944 0.166016 5.42661 0.218694 5.52038 0.312462C5.61415 0.40623 5.66683 0.533407 5.66683 0.666016V4.49935H9.50016C9.63277 4.49935 9.75995 4.55203 9.85372 4.6458C9.94748 4.73956 10.0002 4.86674 10.0002 4.99935C10.0002 5.13196 9.94748 5.25913 9.85372 5.3529C9.75995 5.44667 9.63277 5.49935 9.50016 5.49935H5.66683V9.33268C5.66683 9.46529 5.61415 9.59247 5.52038 9.68624C5.42661 9.78 5.29944 9.83268 5.16683 9.83268C5.03422 9.83268 4.90704 9.78 4.81328 9.68624C4.71951 9.59247 4.66683 9.46529 4.66683 9.33268V5.49935H0.833496C0.700888 5.49935 0.573711 5.44667 0.479943 5.3529C0.386174 5.25913 0.333496 5.13196 0.333496 4.99935C0.333496 4.86674 0.386174 4.73956 0.479943 4.6458C0.573711 4.55203 0.700888 4.49935 0.833496 4.49935H4.66683V0.666016C4.66683 0.533407 4.71951 0.40623 4.81328 0.312462C4.90704 0.218694 5.03422 0.166016 5.16683 0.166016Z" fill="#0A263F"/>
</svg>
