<svg width="42" height="37" viewBox="0 0 42 37" fill="none" xmlns="http://www.w3.org/2000/svg">
<path d="M27.6726 17.3172H24.3145V13.9592C24.3191 13.2819 23.7737 12.7291 23.0964 12.7246H18.2487C17.5714 12.7246 17.0224 13.2737 17.0224 13.9509V17.309H13.6726C12.9953 17.3044 12.4425 17.8497 12.438 18.527V23.3748C12.438 24.0521 12.9871 24.6012 13.6643 24.6012H17.0224V27.9509C17.0178 28.6282 17.5632 29.181 18.2405 29.1855H23.08C23.7572 29.1855 24.3063 28.6364 24.3063 27.9592V24.6012H27.6643C28.3416 24.6057 28.8944 24.0603 28.8989 23.383V18.5435C28.8989 17.8663 28.3499 17.3172 27.6726 17.3172ZM27.2528 22.9551H23.4915C23.2732 22.9551 23.0639 23.0418 22.9095 23.1961C22.7552 23.3505 22.6684 23.5598 22.6684 23.7781V27.5394H18.6684V23.7781C18.6684 23.5598 18.5817 23.3505 18.4274 23.1961C18.273 23.0418 18.0637 22.9551 17.8454 22.9551H14.0841V18.9633H17.8454C18.0637 18.9633 18.273 18.8766 18.4274 18.7222C18.5817 18.5679 18.6684 18.3585 18.6684 18.1402V14.3707H22.6602V18.132C22.6602 18.3503 22.7469 18.5596 22.9013 18.714C23.0556 18.8683 23.265 18.9551 23.4833 18.9551H27.2528V22.9551Z" fill="#95A6FF" stroke="#95A6FF" stroke-width="0.8"/>
<path d="M34.9875 6.56292H28.2056V3.6658C28.2483 2.34378 27.2112 1.2374 25.8891 1.19471C25.8218 1.19253 25.7544 1.19318 25.6871 1.19666H15.6459C14.3249 1.12784 13.1983 2.14286 13.1294 3.46374C13.1258 3.53104 13.1252 3.59845 13.1274 3.6658V6.54646H6.34552C3.72823 6.54646 0.666504 8.03617 0.666504 12.2255V30.1267C0.666504 34.316 3.72823 35.8057 6.34552 35.8057H34.9875C37.6048 35.8057 40.6665 34.316 40.6665 30.1267V12.2419C40.6665 8.05263 37.613 6.56292 34.9875 6.56292ZM14.7735 3.6658C14.7735 3.42712 14.7735 2.78514 15.6542 2.78514H25.6871C26.5677 2.78514 26.5677 3.41889 26.5677 3.6658V6.54646H14.7735V3.6658ZM39.0204 30.1267C39.0204 33.7646 36.2056 34.1596 34.9875 34.1596H6.34552C5.13564 34.1596 2.31259 33.7646 2.31259 30.1267V12.2419C2.31259 8.60407 5.12741 8.20901 6.34552 8.20901H34.9875C36.1974 8.20901 39.0204 8.60407 39.0204 12.2419V30.1267Z" fill="#95A6FF" stroke="#95A6FF" stroke-width="1.1"/>
</svg>
