<svg width="16" height="17" viewBox="0 0 16 17" fill="none" xmlns="http://www.w3.org/2000/svg">
<path d="M11.7148 3.05556V1.5M4.71484 3.05556V1.5M1.40929 5.38889H15.0204M1.21484 6.97867C1.21484 5.33367 1.21484 4.51078 1.55395 3.88233C1.86042 3.32166 2.33627 2.87221 2.91351 2.59822C3.57929 2.27778 4.4504 2.27778 6.19262 2.27778H10.2371C11.9793 2.27778 12.8504 2.27778 13.5162 2.59822C14.1018 2.87978 14.5771 3.32933 14.8757 3.88156C15.2148 4.51156 15.2148 5.33444 15.2148 6.97944V10.7999C15.2148 12.4449 15.2148 13.2678 14.8757 13.8962C14.5693 14.4569 14.0934 14.9063 13.5162 15.1803C12.8504 15.5 11.9793 15.5 10.2371 15.5H6.19262C4.4504 15.5 3.57929 15.5 2.91351 15.1796C2.33639 14.9058 1.86055 14.4566 1.55395 13.8962C1.21484 13.2662 1.21484 12.4433 1.21484 10.7983V6.97867Z" stroke="#0A263F" stroke-width="1.16667" stroke-linecap="round" stroke-linejoin="round"/>
</svg>
