<svg width="18" height="18" viewBox="0 0 18 18" fill="none" xmlns="http://www.w3.org/2000/svg">
<g clip-path="url(#clip0_159_28763)">
<path d="M17.8151 14.9076L10.1959 1.7137C10.0747 1.50382 9.90036 1.32954 9.69046 1.20838C9.48057 1.08721 9.24247 1.02343 9.00012 1.02344C8.75775 1.02342 8.51966 1.08719 8.30976 1.20836C8.09986 1.32953 7.92555 1.50381 7.80436 1.7137L0.185159 14.9076C0.0638978 15.1175 3.76865e-05 15.3557 1.66751e-08 15.5981C-3.76531e-05 15.8405 0.0637485 16.0786 0.184944 16.2886C0.30614 16.4985 0.480474 16.6728 0.690414 16.794C0.900355 16.9152 1.1385 16.979 1.38091 16.9789H16.6193C16.8617 16.9789 17.0998 16.9151 17.3097 16.7939C17.5196 16.6727 17.694 16.4984 17.8151 16.2885C17.9363 16.0786 18.0001 15.8404 18.0001 15.5981C18.0001 15.3557 17.9363 15.1176 17.8151 14.9076ZM1.38091 15.5981L9.00012 2.40418L16.6193 15.5981H1.38091Z" fill="black"/>
<path d="M8.04471 7.1583L8.44069 11.6916C8.46379 11.9585 8.6756 12.1784 8.95164 12.2025C9.26083 12.2296 9.53338 12.0008 9.56036 11.6916L9.95634 7.1583C9.9606 7.10532 9.96115 7.04595 9.95634 6.99133C9.91024 6.4634 9.44495 6.07288 8.91707 6.11892C8.38919 6.16507 7.99861 6.63047 8.04471 7.1583Z" fill="black"/>
<path d="M8.99899 14.0663C9.43638 14.0663 9.79095 13.7118 9.79095 13.2744C9.79095 12.837 9.43638 12.4824 8.99899 12.4824C8.5616 12.4824 8.20703 12.837 8.20703 13.2744C8.20703 13.7118 8.5616 14.0663 8.99899 14.0663Z" fill="black"/>
</g>
<defs>
<clipPath id="clip0_159_28763">
<rect width="18" height="18" fill="white"/>
</clipPath>
</defs>
</svg>
