<svg width="19" height="20" viewBox="0 0 19 20" fill="none" xmlns="http://www.w3.org/2000/svg">
<path d="M16.9612 1.53846H13.8842V0H12.3458V1.53846H6.19193V0H4.65347V1.53846H1.57655C0.730394 1.53846 0.0380859 2.23077 0.0380859 3.07692V18.4615C0.0380859 19.3077 0.730394 20 1.57655 20H16.9612C17.8073 20 18.4996 19.3077 18.4996 18.4615V3.07692C18.4996 2.23077 17.8073 1.53846 16.9612 1.53846ZM16.9612 18.4615H1.57655V7.69231H16.9612V18.4615ZM16.9612 6.15385H1.57655V3.07692H4.65347V4.61538H6.19193V3.07692H12.3458V4.61538H13.8842V3.07692H16.9612V6.15385Z" fill="#666666"/>
</svg>
