<svg width="40" height="43" viewBox="0 0 40 43" fill="none" xmlns="http://www.w3.org/2000/svg">
<path d="M32.6 38V33.2C32.6 28.6752 32.6 26.4112 31.1936 25.0064C29.7888 23.6 27.5248 23.6 23 23.6L19.8 26.8L16.6 23.6C12.0752 23.6 9.8112 23.6 8.4064 25.0064C7 26.4112 7 28.6752 7 33.2V38M26.2 28.4V33.2M28.6 30.8H23.8M25.4 13.2V11.6C25.4 10.8646 25.2552 10.1364 24.9737 9.45697C24.6923 8.77755 24.2798 8.16021 23.7598 7.6402C23.2398 7.12019 22.6225 6.7077 21.943 6.42627C21.2636 6.14485 20.5354 6 19.8 6C19.0646 6 18.3364 6.14485 17.657 6.42627C16.9776 6.7077 16.3602 7.12019 15.8402 7.6402C15.3202 8.16021 14.9077 8.77755 14.6263 9.45697C14.3448 10.1364 14.2 10.8646 14.2 11.6V13.2C14.2 13.9354 14.3448 14.6636 14.6263 15.343C14.9077 16.0225 15.3202 16.6398 15.8402 17.1598C16.3602 17.6798 16.9776 18.0923 17.657 18.3737C18.3364 18.6552 19.0646 18.8 19.8 18.8C20.5354 18.8 21.2636 18.6552 21.943 18.3737C22.6225 18.0923 23.2398 17.6798 23.7598 17.1598C24.2798 16.6398 24.6923 16.0225 24.9737 15.343C25.2552 14.6636 25.4 13.9354 25.4 13.2Z" stroke="#82CC2F" stroke-width="2.4" stroke-linecap="round" stroke-linejoin="round"/>
</svg>
