<svg width="15" height="16" viewBox="0 0 15 16" fill="none" xmlns="http://www.w3.org/2000/svg">
<path d="M12.188 5.49373L7.50241 10.0612L2.81678 5.49373C2.73307 5.41196 2.62068 5.36617 2.50366 5.36617C2.38663 5.36617 2.27424 5.41196 2.19053 5.49373C2.15 5.53345 2.11779 5.58085 2.09581 5.63317C2.07382 5.68549 2.0625 5.74167 2.0625 5.79842C2.0625 5.85517 2.07382 5.91135 2.09581 5.96367C2.11779 6.01599 2.15 6.06339 2.19053 6.10311L7.17522 10.9631C7.26276 11.0484 7.38016 11.0962 7.50241 11.0962C7.62465 11.0962 7.74206 11.0484 7.82959 10.9631L12.8143 6.10405C12.8551 6.0643 12.8875 6.01678 12.9097 5.96429C12.9319 5.91179 12.9433 5.8554 12.9433 5.79842C12.9433 5.74145 12.9319 5.68505 12.9097 5.63255C12.8875 5.58006 12.8551 5.53254 12.8143 5.4928C12.7306 5.41102 12.6182 5.36523 12.5012 5.36523C12.3841 5.36523 12.2717 5.41102 12.188 5.4928V5.49373Z" fill="black"/>
</svg>
