<svg width="14" height="14" viewBox="0 0 14 14" fill="none" xmlns="http://www.w3.org/2000/svg">
<path d="M1.04489 2.45H1.81051L2.8487 13.5765C2.87145 13.8167 3.0727 14 3.31332 14H10.6869C10.9276 14 11.1288 13.8162 11.1516 13.5765L12.1889 2.45044H12.9554C13.0792 2.45044 13.1979 2.40126 13.2855 2.31371C13.373 2.22617 13.4222 2.10743 13.4222 1.98362C13.4222 1.85982 13.373 1.74108 13.2855 1.65354C13.1979 1.56599 13.0792 1.51681 12.9554 1.51681H1.04445C0.920643 1.51681 0.801907 1.56599 0.714363 1.65354C0.626819 1.74108 0.577637 1.85982 0.577637 1.98362C0.577637 2.10743 0.626819 2.22617 0.714363 2.31371C0.801907 2.40126 0.920643 2.45044 1.04445 2.45044L1.04489 2.45ZM11.2518 2.45L10.2617 13.0668H3.73857L2.74807 2.45H11.2518ZM3.67426 0.933187H10.326C10.4473 0.929473 10.5624 0.878687 10.6468 0.791589C10.7313 0.704491 10.7785 0.587926 10.7785 0.466594C10.7785 0.345262 10.7313 0.228697 10.6468 0.141599C10.5624 0.0545008 10.4473 0.00371401 10.326 0L3.67426 0C3.55299 0.00371401 3.43792 0.0545008 3.35345 0.141599C3.26898 0.228697 3.22174 0.345262 3.22174 0.466594C3.22174 0.587926 3.26898 0.704491 3.35345 0.791589C3.43792 0.878687 3.55299 0.929473 3.67426 0.933187Z" fill="#FF3030"/>
</svg>
