<svg width="14" height="14" viewBox="0 0 14 14" fill="none" xmlns="http://www.w3.org/2000/svg">
<path d="M11.5 7.00001C11.2239 7.00001 11 7.22387 11 7.50002V12.5C11 12.7762 10.7761 13 10.5 13H1.5C1.22385 13 0.999991 12.7762 0.999991 12.5V2.5C0.999991 2.22385 1.22385 1.99999 1.5 1.99999H7.50001C7.77616 1.99999 8.00002 1.77613 8.00002 1.49998C8.00002 1.22383 7.77616 1 7.50001 1H1.5C0.671573 1 0 1.67157 0 2.5V12.5C0 13.3284 0.671573 14 1.5 14H10.5C11.3284 14 12 13.3284 12 12.5V7.49999C12 7.22387 11.7762 7.00001 11.5 7.00001Z" fill="#1DB2A5"/>
<path d="M13.4395 0.560692C13.2617 0.382907 13.0507 0.241884 12.8184 0.14568C12.5861 0.0494762 12.3372 -2.3746e-05 12.0858 8.02682e-06C11.8343 -0.000723034 11.5851 0.0484901 11.3528 0.144793C11.1204 0.241096 10.9095 0.382572 10.7323 0.561015L4.14625 7.14649C4.09162 7.20155 4.05039 7.26844 4.02575 7.34199L3.02576 10.342C2.93849 10.604 3.08014 10.8871 3.34214 10.9744C3.39297 10.9913 3.4462 10.9999 3.49976 11C3.55344 10.9999 3.60677 10.9913 3.65776 10.9745L6.65776 9.97452C6.73144 9.94991 6.79838 9.90849 6.85326 9.85353L13.4393 3.26752C14.1868 2.5201 14.1869 1.3082 13.4395 0.560692ZM12.7323 2.561L6.23225 9.06102L4.29025 9.7095L4.93674 7.76999L11.4392 1.27C11.7967 0.913222 12.3758 0.913808 12.7326 1.27129C12.903 1.44206 12.999 1.67325 12.9997 1.9145C13.0001 2.03459 12.9766 2.15354 12.9307 2.2645C12.8848 2.37546 12.8173 2.47623 12.7323 2.561Z" fill="#1DB2A5"/>
</svg>
