<svg width="41" height="41" viewBox="0 0 41 41" fill="none" xmlns="http://www.w3.org/2000/svg">
<path fill-rule="evenodd" clip-rule="evenodd" d="M7.63056 4.5C5.62925 4.5 4 6.12893 4 8.13057V28.054C4 30.0556 5.62925 31.6889 7.63056 31.6889H15.9133L19.7619 36.2996C19.8143 36.3623 19.8798 36.4128 19.9538 36.4474C20.0279 36.482 20.1086 36.5 20.1904 36.5C20.2721 36.5 20.3528 36.482 20.4269 36.4474C20.5009 36.4128 20.5664 36.3623 20.6188 36.2996L24.4631 31.6889H32.7458C34.7471 31.6889 36.3764 30.0556 36.3764 28.054V8.13057C36.3764 6.12893 34.7471 4.5 32.7458 4.5H7.63056ZM7.63056 5.61752H32.7458C34.1477 5.61752 35.2599 6.72795 35.2599 8.13057V28.054C35.2599 29.4566 34.1477 30.5725 32.7458 30.5725H24.2036C24.1221 30.5721 24.0415 30.5896 23.9675 30.6237C23.8935 30.6578 23.8278 30.7076 23.7751 30.7698L20.1904 35.0676L16.6056 30.7698C16.5529 30.7076 16.4872 30.6578 16.4132 30.6237C16.3392 30.5896 16.2586 30.5721 16.1771 30.5725H7.63056C6.22862 30.5725 5.11643 29.4566 5.11643 28.054V8.13057C5.11643 6.72795 6.22862 5.61752 7.63056 5.61752ZM20.1914 9.74633C20.0886 9.74638 19.9877 9.77481 19.9 9.82848C19.8123 9.88216 19.7411 9.95899 19.6943 10.0505L17.2565 14.8204L11.9611 15.6577C11.8593 15.6737 11.764 15.7175 11.6856 15.7843C11.6072 15.851 11.5489 15.9381 11.5169 16.0359C11.485 16.1337 11.4808 16.2385 11.5047 16.3385C11.5286 16.4386 11.5798 16.5301 11.6525 16.603L15.4401 20.3938L14.6028 25.6837C14.5867 25.7852 14.5989 25.8892 14.6382 25.9842C14.6774 26.0791 14.7422 26.1614 14.8253 26.222C14.9084 26.2825 15.0066 26.319 15.1091 26.3273C15.2117 26.3357 15.3145 26.3156 15.4063 26.2692L20.1871 23.8412L24.9624 26.2714C25.0541 26.3181 25.157 26.3387 25.2596 26.3307C25.3623 26.3227 25.4607 26.2865 25.544 26.2262C25.6274 26.1658 25.6925 26.0837 25.732 25.9887C25.7715 25.8937 25.784 25.7897 25.7681 25.6881L24.9341 20.3982L28.726 16.6095C28.7984 16.5367 28.8493 16.4454 28.8731 16.3455C28.8969 16.2457 28.8927 16.1412 28.8609 16.0436C28.8292 15.946 28.771 15.8591 28.693 15.7923C28.6149 15.7256 28.52 15.6817 28.4185 15.6653L23.1232 14.8215L20.6886 10.0505C20.6418 9.95899 20.5706 9.88216 20.4829 9.82849C20.3952 9.77481 20.2943 9.74638 20.1914 9.74633ZM20.1925 11.5322L22.2586 15.5814C22.2986 15.6594 22.3565 15.727 22.4275 15.7785C22.4986 15.83 22.5807 15.8641 22.6674 15.878L27.1626 16.5953L23.9452 19.8105C23.8832 19.8725 23.8366 19.9483 23.8093 20.0316C23.782 20.115 23.7748 20.2036 23.7882 20.2902L24.4947 24.781L20.4389 22.7193C20.3607 22.6797 20.2742 22.6591 20.1866 22.6591C20.0989 22.6591 20.0124 22.6797 19.9342 22.7193L15.8762 24.7799L16.5871 20.288C16.6008 20.2013 16.5938 20.1126 16.5667 20.029C16.5396 19.9455 16.4932 19.8695 16.4311 19.8073L13.2171 16.5899L17.7111 15.878C17.7983 15.8643 17.881 15.8302 17.9524 15.7785C18.0239 15.7267 18.082 15.6588 18.1221 15.5803L20.1925 11.5322Z" fill="#00A6C0" stroke="#00A6C0" stroke-width="1.3"/>
</svg>
