<svg width="22" height="24" viewBox="0 0 22 24" fill="none" xmlns="http://www.w3.org/2000/svg">
<path d="M18.6905 1.50098H3.30907C1.89269 1.50098 0.712169 2.6674 1.0621 4.03892C1.43462 5.49233 2.12086 6.84655 3.0726 8.00644C4.02435 9.16634 5.21852 10.1038 6.57122 10.7529C7.62613 11.2579 8.43622 12.25 8.43622 13.419V21.2174C8.43633 21.4358 8.49226 21.6506 8.59868 21.8413C8.7051 22.032 8.85849 22.1924 9.04429 22.3072C9.23009 22.422 9.44215 22.4874 9.66033 22.4972C9.87852 22.5071 10.0956 22.461 10.291 22.3633L12.8545 21.0816C13.0674 20.9752 13.2465 20.8116 13.3717 20.6093C13.4969 20.4069 13.5632 20.1736 13.5634 19.9356V13.419C13.5634 12.25 14.3735 11.2579 15.4271 10.7529C16.7803 10.1042 17.975 9.16686 18.9272 8.00694C19.8794 6.84701 20.566 5.4926 20.9388 4.03892C21.2861 2.6674 20.1043 1.50098 18.6905 1.50098Z" stroke="#0A263F" stroke-opacity="0.8" stroke-width="1.5"/>
</svg>
