<svg width="22" height="22" viewBox="0 0 22 22" fill="none" xmlns="http://www.w3.org/2000/svg">
<path d="M18.6905 0.5H3.30907C1.89269 0.5 0.712169 1.66643 1.0621 3.03794C1.43462 4.49135 2.12086 5.84557 3.0726 7.00547C4.02435 8.16536 5.21852 9.10281 6.57122 9.75194C7.62613 10.257 8.43622 11.2491 8.43622 12.4181V20.2165C8.43633 20.4349 8.49226 20.6496 8.59868 20.8403C8.7051 21.0311 8.85849 21.1914 9.04429 21.3062C9.23009 21.421 9.44215 21.4864 9.66033 21.4963C9.87852 21.5061 10.0956 21.46 10.291 21.3624L12.8545 20.0806C13.0674 19.9742 13.2465 19.8107 13.3717 19.6083C13.4969 19.4059 13.5632 19.1726 13.5634 18.9347V12.4181C13.5634 11.2491 14.3735 10.257 15.4271 9.75194C16.7803 9.10317 17.975 8.16589 18.9272 7.00596C19.8794 5.84604 20.566 4.49163 20.9388 3.03794C21.2861 1.66643 20.1043 0.5 18.6905 0.5Z" stroke="#686868"/>
</svg>
