<svg width="21" height="26" viewBox="0 0 21 26" fill="none" xmlns="http://www.w3.org/2000/svg">
<path d="M14.6553 20.9824C14.1683 22.8639 12.4591 24.2535 10.4253 24.2535C8.39156 24.2535 6.68236 22.8639 6.19531 20.9824" stroke="#0A263F"/>
<path d="M3.5504 11.4592C3.5504 7.66321 6.62767 4.58594 10.4237 4.58594C14.2197 4.58594 17.297 7.66321 17.297 11.4592V12.3179C17.297 12.9998 17.4493 13.6731 17.7428 14.2887L19.1168 17.1703C19.7199 18.4353 19.1003 19.9368 17.7561 20.3331C15.684 20.9439 12.712 21.6802 10.4236 21.6802C8.13469 21.6803 5.16195 20.9439 3.08955 20.333C1.74552 19.9368 1.1261 18.4354 1.72942 17.1707L3.10421 14.289C3.39796 13.6732 3.5504 12.9996 3.5504 12.3174V11.4592Z" stroke="#0A263F" stroke-linejoin="round"/>
<path d="M8.48145 4.4832L8.48145 4.19188C8.48145 3.12157 9.34911 2.25391 10.4194 2.25391C11.4897 2.25391 12.3574 3.12157 12.3574 4.19188V4.4832" stroke="#0A263F" stroke-linecap="round" stroke-linejoin="round"/>
<circle cx="16.5" cy="7.5" r="2.5" fill="#EC3737"/>
</svg>
