<svg width="40" height="41" viewBox="0 0 40 41" fill="none" xmlns="http://www.w3.org/2000/svg">
<path d="M18.2237 8.94028L18.6307 8.5048C18.7811 8.34393 18.9326 8.18694 19.0851 8.03385C15.5719 4.98355 11.753 4.1986 8.62701 5.42182L18.2237 8.94028ZM18.2237 8.94028C14.983 6.14271 11.6499 5.58075 9.0827 6.58629L9.08244 6.58639C6.28624 7.68312 4.14597 10.7353 3.97061 15.4016H2.71991C2.89766 10.359 5.22919 6.7534 8.62675 5.42192L18.2237 8.94028ZM19.9997 8.88681C20.0075 8.89461 20.0153 8.90241 20.0231 8.91023L20.0013 8.93062L19.9779 8.9087C19.9851 8.90139 19.9924 8.8941 19.9997 8.88681ZM6.8041 25.6342C4.6332 22.8662 2.93448 19.7614 2.72971 16.6516H3.98287C4.18761 19.3588 5.6906 22.1873 7.78877 24.8622C9.88878 27.5411 12.5237 29.9917 14.8467 31.9126L14.0592 32.8834C11.6969 30.9296 8.98321 28.4125 6.8041 25.6342ZM22.0379 34.2786C22.6149 33.938 23.2865 33.4228 24.1848 32.7001L24.9735 33.6735C23.3115 35.0199 22.1466 35.8974 20.6256 36.0842V34.8231C21.0963 34.746 21.5389 34.5731 22.0379 34.2786ZM19.3756 34.8233V36.0842C17.8547 35.8974 16.6898 35.0199 15.0279 33.6735L15.8163 32.7015C16.7147 33.4243 17.3865 33.9393 17.9637 34.2796C18.4627 34.5737 18.9052 34.7463 19.3756 34.8233ZM33.1972 25.6325C31.0181 28.4108 28.3045 30.9278 25.9409 32.8816L25.1544 31.9111C27.4775 29.9901 30.1125 27.5395 32.2125 24.8605L32.2125 24.8605C34.3092 22.1856 35.8137 19.3582 36.0185 16.6482H37.2716C37.0669 19.7596 35.3681 22.8644 33.1972 25.6325ZM37.2814 15.3982H36.0307C35.8553 10.7336 33.7151 7.67968 30.9185 6.5846C28.351 5.57895 25.0175 6.14257 21.7768 8.94091L21.3705 8.50638C21.2195 8.34484 21.0673 8.18723 20.914 8.03354C24.4275 4.98089 28.246 4.19689 31.3727 5.42184L31.3729 5.42194C34.7719 6.7518 37.1036 10.3571 37.2814 15.3982Z" fill="#00A6C0" stroke="#00A6C0" stroke-width="1.25"/>
<path d="M30.8366 15.4898H27.5033H30.8366ZM27.5033 15.4898H24.1699H27.5033ZM27.5033 15.4898V12.1565V15.4898ZM27.5033 15.4898V18.8232V15.4898Z" fill="#00A6C0"/>
<path d="M30.8366 15.4898H27.5033M27.5033 15.4898H24.1699M27.5033 15.4898V12.1565M27.5033 15.4898V18.8232" stroke="#00A6C0" stroke-width="1.875" stroke-linecap="round"/>
</svg>
