<svg width="33" height="33" viewBox="0 0 33 33" fill="none" xmlns="http://www.w3.org/2000/svg">
<path d="M15.7181 22.0136H15.7989H16.8681H16.9489H19.9999C20.0045 22.0177 20.0106 22.0238 20.0181 22.0327C20.0576 22.0793 20.1066 22.1767 20.1066 22.3182V31.0455C20.1066 31.1869 20.0576 31.2843 20.0181 31.331C20.0106 31.3399 20.0045 31.3459 19.9999 31.35H12.667C12.6625 31.3459 12.6564 31.3399 12.6489 31.331C12.6094 31.2843 12.5604 31.1869 12.5604 31.0455V22.3182C12.5604 22.1767 12.6094 22.0793 12.6489 22.0327C12.6564 22.0238 12.6625 22.0177 12.667 22.0136H15.7181ZM19.9903 22.0065C19.9903 22.0064 19.9912 22.0068 19.993 22.008C19.9911 22.0072 19.9902 22.0065 19.9903 22.0065ZM19.9903 31.3572C19.9903 31.357 19.9912 31.3564 19.993 31.3556C19.9911 31.3569 19.9902 31.3573 19.9903 31.3572ZM12.6767 31.3572C12.6767 31.3573 12.6758 31.3569 12.674 31.3556C12.6758 31.3565 12.6767 31.3571 12.6767 31.3572ZM12.6767 22.0065C12.6767 22.0066 12.6758 22.0072 12.674 22.008C12.6758 22.0068 12.6767 22.0064 12.6767 22.0065ZM26.8758 22.0136H27.945H28.0258H31.0769C31.0814 22.0177 31.0875 22.0238 31.095 22.0327C31.1345 22.0793 31.1835 22.1767 31.1835 22.3182V31.0455C31.1835 31.1869 31.1345 31.2843 31.095 31.331C31.0875 31.3399 31.0814 31.3459 31.0769 31.35H23.744C23.7394 31.3459 23.7334 31.3399 23.7259 31.331C23.6864 31.2843 23.6373 31.1869 23.6373 31.0455V22.3182C23.6373 22.1767 23.6864 22.0793 23.7259 22.0327C23.7334 22.0238 23.7394 22.0177 23.744 22.0136H26.795H26.8758ZM31.0672 22.0065C31.0673 22.0064 31.0682 22.0068 31.0699 22.008C31.068 22.0071 31.0671 22.0065 31.0672 22.0065ZM31.0672 31.3572C31.0672 31.3571 31.0681 31.3565 31.0699 31.3556C31.0681 31.3568 31.0672 31.3573 31.0672 31.3572ZM23.7536 31.3572C23.7536 31.3573 23.7527 31.3568 23.7509 31.3556C23.7528 31.3565 23.7537 31.3571 23.7536 31.3572ZM23.7536 22.0065C23.7537 22.0066 23.7528 22.0072 23.7509 22.008C23.7527 22.0068 23.7536 22.0064 23.7536 22.0065ZM4.64119 22.0136H4.72196H5.79119H5.87196H8.92302C8.92755 22.0177 8.93363 22.0238 8.94114 22.0327C8.98063 22.0793 9.02965 22.1767 9.02965 22.3182V31.0455C9.02965 31.1869 8.98063 31.2843 8.94114 31.331C8.93363 31.3399 8.92756 31.3459 8.92303 31.35H1.59012C1.58559 31.3459 1.57952 31.3399 1.57201 31.331C1.53252 31.2843 1.4835 31.1869 1.4835 31.0455V22.3182C1.4835 22.1767 1.53252 22.0793 1.57201 22.0327C1.57952 22.0238 1.58559 22.0177 1.59012 22.0136H4.64119ZM8.91335 22.0065C8.91337 22.0064 8.91428 22.0068 8.91604 22.008C8.91422 22.0072 8.91333 22.0066 8.91335 22.0065ZM8.91335 31.3572C8.91334 31.3571 8.91422 31.3565 8.91604 31.3556C8.91427 31.3569 8.91336 31.3573 8.91335 31.3572ZM1.5998 31.3572C1.59979 31.3573 1.59888 31.3569 1.5971 31.3556C1.59892 31.3565 1.59981 31.3571 1.5998 31.3572ZM1.5998 22.0065C1.59981 22.0066 1.59893 22.0072 1.5971 22.008C1.59887 22.0068 1.59978 22.0064 1.5998 22.0065ZM16.9489 10.9864H16.8681H15.7989H15.7181H12.667C12.6625 10.9823 12.6564 10.9762 12.6489 10.9673C12.6094 10.9207 12.5604 10.8233 12.5604 10.6818V1.95455C12.5604 1.81311 12.6094 1.71568 12.6489 1.66902C12.6564 1.66014 12.6625 1.65405 12.667 1.65H19.9999C20.0045 1.65405 20.0106 1.66014 20.0181 1.66902C20.0576 1.71568 20.1066 1.81311 20.1066 1.95455V10.6818C20.1066 10.8233 20.0576 10.9207 20.0181 10.9673C20.0105 10.9762 20.0045 10.9823 19.9999 10.9864H16.9489ZM12.6767 10.9935C12.6767 10.9936 12.6758 10.9932 12.674 10.992C12.6758 10.9928 12.6767 10.9934 12.6767 10.9935ZM12.6767 1.64283C12.6767 1.64293 12.6758 1.64354 12.674 1.64437C12.6758 1.64315 12.6767 1.64273 12.6767 1.64283ZM19.9903 1.64283C19.9903 1.64273 19.9912 1.64315 19.993 1.64437C19.9911 1.64354 19.9903 1.64293 19.9903 1.64283ZM19.9903 10.9935C19.9903 10.9934 19.9912 10.9928 19.993 10.992C19.9912 10.9932 19.9903 10.9936 19.9903 10.9935Z" stroke="#95A6FF" stroke-width="2.3"/>
</svg>
