<svg width="28" height="27" viewBox="0 0 28 27" fill="none" xmlns="http://www.w3.org/2000/svg">
<path d="M5.50556 25.2018L5.50561 25.2015L6.9581 16.924L7.00438 16.6602L6.81049 16.4755L0.645604 10.6029C0.645559 10.6028 0.645515 10.6028 0.64547 10.6028C0.348139 10.3188 0.54007 9.84295 0.865252 9.79723L0.865984 9.79713L9.43746 8.57913L9.69587 8.54241L9.81348 8.3094L13.6354 0.737309C13.7952 0.420944 14.2051 0.420896 14.365 0.737171C14.365 0.737217 14.365 0.737263 14.3651 0.73731L18.187 8.3094L18.3046 8.54241L18.563 8.57913L27.1345 9.79713L27.1352 9.79723C27.4603 9.84293 27.6521 10.3184 27.3537 10.6024L27.3534 10.6026L21.1899 16.4756L20.9961 16.6603L21.0424 16.924L22.4949 25.2015L22.4949 25.2018C22.5689 25.622 22.172 25.8404 21.9102 25.7062C21.9101 25.7062 21.9101 25.7062 21.91 25.7062L14.2261 21.7583L13.9975 21.6409L13.769 21.7584L6.09042 25.7062C5.82865 25.8404 5.43154 25.6221 5.50556 25.2018Z" stroke="#0A263F" stroke-opacity="0.14"/>
</svg>
