<svg width="24" height="20" viewBox="0 0 24 20" fill="currentColor" xmlns="http://www.w3.org/2000/svg">
<path d="M9.61 0.2917L-4.39481e-07 9.9517L9.61 19.6117C9.69679 19.7257 9.80706 19.8197 9.93333 19.8873C10.0596 19.955 10.1989 19.9947 10.3419 20.0038C10.4849 20.013 10.6281 19.9912 10.762 19.9402C10.8958 19.8891 11.0172 19.8099 11.1177 19.7079C11.2183 19.6059 11.2958 19.4834 11.3449 19.3489C11.3941 19.2143 11.4137 19.0708 11.4025 18.9279C11.3914 18.7851 11.3497 18.6464 11.2802 18.5211C11.2108 18.3958 11.1152 18.2869 11 18.2017L3.81 10.9517L22.94 10.9517C23.2052 10.9517 23.4596 10.8463 23.6471 10.6588C23.8346 10.4713 23.94 10.2169 23.94 9.9517C23.94 9.68648 23.8346 9.43213 23.6471 9.24459C23.4596 9.05706 23.2052 8.9517 22.94 8.9517L3.81 8.9517L11 1.7017C11.187 1.5134 11.2915 1.25853 11.2906 0.993164C11.2896 0.7278 11.1833 0.473676 10.995 0.286699C10.8067 0.0997214 10.5518 -0.00479554 10.2865 -0.00385711C10.0211 -0.00291868 9.76698 0.103397 9.58 0.2917L9.61 0.2917Z" fill="currentColor"/>
</svg>
