<svg width="14" height="14" viewBox="0 0 14 14" fill="none" xmlns="http://www.w3.org/2000/svg">
<path d="M0.5 3.0291C0.5 1.63199 1.63171 0.5 3.02703 0.5H10.973C12.3683 0.5 13.5 1.632 13.5 3.02911L13.5 8.27545C13.5 9.67256 12.3683 10.8046 10.973 10.8046H9.66554C9.25413 10.8046 8.86888 11.006 8.63399 11.3437L7.21064 13.3898C7.10846 13.5367 6.89153 13.5367 6.78936 13.3898L5.36601 11.3437C5.13112 11.006 4.74587 10.8046 4.33446 10.8046H3.02703C1.63171 10.8046 0.5 9.67256 0.5 8.27545V3.0291Z" stroke="#5B74F5" stroke-linejoin="round"/>
<path d="M2.79688 4.36523H8.98321" stroke="#5B74F5" stroke-linecap="round" stroke-linejoin="round"/>
<path d="M2.79688 6.93945H6.24293" stroke="#5B74F5" stroke-linecap="round" stroke-linejoin="round"/>
</svg>
