<svg width="32" height="32" viewBox="0 0 32 32" fill="none" xmlns="http://www.w3.org/2000/svg">
<rect width="32" height="32" rx="8" fill="#32DACB" fill-opacity="0.1"/>
<rect x="0.5" y="0.5" width="31" height="31" rx="7.5" stroke="#1DB2A5" stroke-opacity="0.5"/>
<path d="M23 9.93314V22.0639C22.9994 22.5789 22.5818 22.9965 22.0669 22.9971H12.7355C12.4777 22.9971 12.2689 22.7883 12.2689 22.5305C12.2689 22.2727 12.4777 22.0639 12.7355 22.0639H22.0669V9.93314H9.93606V19.2645C9.93606 19.5223 9.72728 19.7311 9.46949 19.7311C9.21171 19.7311 9.00292 19.5223 9.00292 19.2645V9.93314C9.00351 9.41817 9.42109 9.00058 9.93606 9H22.0669C22.5818 9.00058 22.9994 9.41817 23 9.93314ZM15.5349 18.798C15.5349 19.0557 15.7437 19.2645 16.0015 19.2645C16.2592 19.2645 16.468 19.0557 16.468 18.798V15.9985C16.468 15.8749 16.419 15.7559 16.3316 15.6684C16.2441 15.581 16.1251 15.532 16.0015 15.532H13.2021C12.9443 15.532 12.7355 15.7408 12.7355 15.9985C12.7355 16.2563 12.9443 16.4651 13.2021 16.4651H14.8753L9.13939 22.2004C9.05074 22.2879 9.00059 22.4069 9.00001 22.5317C8.99942 22.6559 9.04841 22.7755 9.13648 22.8635C9.22454 22.9516 9.3441 23.0006 9.46833 23C9.59314 22.9994 9.71211 22.9493 9.7996 22.8606L15.5349 17.1247L15.5349 18.798Z" fill="#1DB2A5"/>
</svg>
