<svg width="20" height="20" viewBox="0 0 20 20" fill="none" xmlns="http://www.w3.org/2000/svg">
<path d="M8.03526 18.3946L8.45106 18.6723L8.03526 18.3946C8.01174 18.4298 7.97831 18.4573 7.9392 18.4735C7.90009 18.4897 7.85704 18.494 7.81549 18.4858C7.77399 18.4776 7.73586 18.4573 7.70588 18.4274C7.70585 18.4274 7.70581 18.4274 7.70578 18.4273L1.06629 11.7893L1.06588 11.7889C1.04593 11.769 1.0301 11.7453 1.01929 11.7193C1.00849 11.6932 1.00293 11.6653 1.00293 11.6371C1.00293 11.609 1.00849 11.581 1.01929 11.555C1.02634 11.538 1.03552 11.5221 1.04658 11.5075L1.06864 11.4855C1.1088 11.4455 1.1632 11.423 1.21992 11.423C1.27651 11.423 1.3308 11.4454 1.37094 11.4853C1.37103 11.4854 1.37112 11.4854 1.37121 11.4855L6.78909 16.9077L7.64278 17.7621V16.5543V0.714286C7.64278 0.657454 7.66535 0.602949 7.70554 0.562763C7.74573 0.522576 7.80023 0.5 7.85706 0.5C7.9139 0.5 7.9684 0.522576 8.00859 0.562763C8.04877 0.60295 8.07135 0.657454 8.07135 0.714286V18.2756C8.07135 18.2756 8.07135 18.2757 8.07135 18.2757C8.07132 18.318 8.05876 18.3594 8.03526 18.3946ZM18.9336 8.21077L18.934 8.21114C18.9539 8.23105 18.9697 8.25469 18.9805 8.28073C18.9914 8.30676 18.9969 8.33467 18.9969 8.36286C18.9969 8.39104 18.9914 8.41895 18.9805 8.44499C18.9735 8.46196 18.9643 8.47791 18.9533 8.49248L18.9312 8.51447C18.891 8.55451 18.8366 8.57699 18.7799 8.57699C18.7232 8.57699 18.6688 8.55452 18.6287 8.51451C18.6287 8.5145 18.6287 8.51448 18.6286 8.51447L13.2107 3.09506L12.3571 2.24124V3.44857V19.2857C12.3571 19.3425 12.3345 19.3971 12.2943 19.4372C12.2541 19.4774 12.1996 19.5 12.1428 19.5C12.0859 19.5 12.0314 19.4774 11.9913 19.4372C11.9511 19.3971 11.9285 19.3425 11.9285 19.2857L11.9285 1.72539C11.9285 1.72528 11.9285 1.72518 11.9285 1.72507C11.9286 1.68287 11.9413 1.64165 11.9648 1.60659C11.9883 1.57144 12.0217 1.54404 12.0608 1.52786C12.0999 1.51168 12.1429 1.50744 12.1845 1.51567C12.2259 1.52388 12.2639 1.54414 12.2938 1.57389C12.2939 1.57396 12.294 1.57403 12.2941 1.5741L18.9336 8.21077Z" stroke="#0A263F" stroke-opacity="0.8"/>
</svg>
