<svg width="20" height="20" viewBox="0 0 20 20" fill="none" xmlns="http://www.w3.org/2000/svg">
<path d="M7.14278 0.714286C7.14278 0.524845 7.21803 0.343164 7.35199 0.209209C7.48594 0.0752549 7.66762 0 7.85706 0C8.0465 0 8.22819 0.0752549 8.36214 0.209209C8.49609 0.343164 8.57135 0.524845 8.57135 0.714286V18.2757C8.57132 18.4169 8.52946 18.5549 8.45106 18.6723C8.37266 18.7897 8.26124 18.8812 8.13086 18.9353C8.00047 18.9894 7.85698 19.0037 7.7185 18.9763C7.58002 18.9489 7.45275 18.8811 7.35278 18.7814L0.712778 12.1429C0.646259 12.0765 0.593484 11.9977 0.557474 11.9109C0.521465 11.8241 0.50293 11.7311 0.50293 11.6371C0.50293 11.5432 0.521465 11.4502 0.557474 11.3634C0.593484 11.2766 0.646259 11.1978 0.712778 11.1314H0.715635C0.849525 10.998 1.03087 10.923 1.21992 10.923C1.40897 10.923 1.59032 10.998 1.72421 11.1314L7.14278 16.5543V0.714286ZM11.4285 1.72429C11.4288 1.58324 11.4709 1.44545 11.5494 1.32828C11.6279 1.2111 11.7393 1.11979 11.8696 1.06586C12 1.01193 12.1433 0.997786 12.2817 1.02522C12.42 1.05265 12.5472 1.12042 12.6471 1.22L19.2871 7.85714C19.3536 7.92349 19.4064 8.00232 19.4424 8.0891C19.4784 8.17587 19.4969 8.2689 19.4969 8.36286C19.4969 8.45681 19.4784 8.54984 19.4424 8.63662C19.4064 8.7234 19.3536 8.80222 19.2871 8.86857H19.2842C19.1503 9.00204 18.969 9.07699 18.7799 9.07699C18.5909 9.07699 18.4095 9.00204 18.2756 8.86857L12.8571 3.44857V19.2857C12.8571 19.4752 12.7818 19.6568 12.6479 19.7908C12.5139 19.9247 12.3322 20 12.1428 20C11.9533 20 11.7717 19.9247 11.6377 19.7908C11.5037 19.6568 11.4285 19.4752 11.4285 19.2857V1.72429Z" fill="#0A263F" fill-opacity="0.7"/>
</svg>
