<svg width="41" height="41" viewBox="0 0 41 41" fill="none" xmlns="http://www.w3.org/2000/svg">
<g clip-path="url(#clip0_153_11478)">
<path d="M16.2723 36.7857H1.99512V35.2371C2.01419 33.4101 2.42159 31.608 3.19031 29.9504C3.95902 28.2928 5.07146 26.8177 6.4538 25.6228C7.83615 24.428 9.45679 23.5408 11.2082 23.0202C12.9596 22.4995 14.8017 22.3572 16.6123 22.6029M14.8523 16.7857C16.7467 16.7857 18.5635 16.0332 19.903 14.6936C21.2426 13.3541 21.9951 11.5373 21.9951 9.64286C21.9951 7.74845 21.2426 5.93164 19.903 4.59209C18.5635 3.25255 16.7467 2.5 14.8523 2.5C12.9579 2.5 11.141 3.25255 9.8015 4.59209C8.46195 5.93164 7.7094 7.74845 7.7094 9.64286C7.7094 11.5373 8.46195 13.3541 9.8015 14.6936C11.141 16.0332 12.9579 16.7857 14.8523 16.7857ZM27.4437 21.0714C27.0648 21.0714 26.7014 21.2219 26.4335 21.4898C26.1656 21.7578 26.0151 22.1211 26.0151 22.5V26.52H21.9923C21.6134 26.52 21.25 26.6705 20.9821 26.9384C20.7142 27.2063 20.5637 27.5697 20.5637 27.9486V32.5886C20.5637 32.9675 20.7142 33.3308 20.9821 33.5987C21.25 33.8666 21.6134 34.0171 21.9923 34.0171H26.0123V38.0371C26.0123 38.416 26.1628 38.7794 26.4307 39.0473C26.6986 39.3152 27.0619 39.4657 27.4408 39.4657H32.0808C32.4597 39.4657 32.8231 39.3152 33.091 39.0473C33.3589 38.7794 33.5094 38.416 33.5094 38.0371V34.02H37.5294C37.9083 34.02 38.2716 33.8695 38.5396 33.6016C38.8075 33.3337 38.958 32.9703 38.958 32.5914V27.9486C38.958 27.5697 38.8075 27.2063 38.5396 26.9384C38.2716 26.6705 37.9083 26.52 37.5294 26.52H33.5123V22.4971C33.5123 22.1183 33.3617 21.7549 33.0938 21.487C32.8259 21.2191 32.4626 21.0686 32.0837 21.0686H27.4408L27.4437 21.0714Z" stroke="#82CC2F" stroke-width="2.2" stroke-linecap="round" stroke-linejoin="round"/>
</g>
<defs>
<clipPath id="clip0_153_11478">
<rect width="40" height="40" fill="white" transform="translate(0.333496 0.5)"/>
</clipPath>
</defs>
</svg>
