<svg width="21" height="22" viewBox="0 0 21 22" fill="none" xmlns="http://www.w3.org/2000/svg">
<path fill-rule="evenodd" clip-rule="evenodd" d="M1.00903 1.667C1.04349 1.37501 1.14566 1.09509 1.3074 0.849557C1.46914 0.604021 1.68598 0.399646 1.94065 0.25271C2.19533 0.105775 2.48079 0.020339 2.77431 0.00320814C3.06783 -0.0139227 3.3613 0.0377245 3.63133 0.154036C4.99647 0.737626 8.05582 2.12462 11.9378 4.36514C15.8212 6.60695 18.5527 8.56467 19.7392 9.45291C20.7521 10.2126 20.7547 11.7191 19.7405 12.4814C18.5656 13.3645 15.8674 15.2965 11.9378 17.5666C8.0044 19.8367 4.98104 21.207 3.62876 21.7828C2.46415 22.2803 1.16072 21.5258 1.00903 20.2699C0.831644 18.8019 0.5 15.4688 0.5 10.9672C0.5 6.46812 0.830359 3.13626 1.00903 1.667Z" fill="white"/>
</svg>
