<svg width="22" height="22" viewBox="0 0 22 22" fill="none" xmlns="http://www.w3.org/2000/svg">
<path d="M14.3478 10.455H12.8124V8.90273C12.8145 8.58965 12.5651 8.33412 12.2555 8.33203H10.0389C9.72926 8.33203 9.4782 8.58585 9.4782 8.89892V10.4512H7.94657C7.6369 10.4491 7.38415 10.7012 7.38208 11.0142V13.2552C7.38208 13.5683 7.63314 13.8221 7.9428 13.8221H9.4782V15.3706C9.47613 15.6837 9.7255 15.9392 10.0352 15.9413H12.2479C12.5576 15.9413 12.8087 15.6875 12.8087 15.3744V13.8221H14.3441C14.6537 13.8242 14.9065 13.5721 14.9086 13.259V11.0219C14.9086 10.7088 14.6575 10.455 14.3478 10.455ZM14.1559 13.0612H12.4361C12.3363 13.0612 12.2406 13.1013 12.17 13.1726C12.0994 13.244 12.0598 13.3407 12.0598 13.4416V15.1804H10.2309V13.4416C10.2309 13.3407 10.1912 13.244 10.1206 13.1726C10.0501 13.1013 9.95434 13.0612 9.85453 13.0612H8.13473V11.2159H9.85453C9.95434 11.2159 10.0501 11.1759 10.1206 11.1045C10.1912 11.0332 10.2309 10.9364 10.2309 10.8355V9.09296H12.056V10.8317C12.056 10.9326 12.0957 11.0294 12.1662 11.1007C12.2368 11.1721 12.3325 11.2121 12.4323 11.2121H14.1559V13.0612Z" fill="white" stroke="white" stroke-width="0.2"/>
<path d="M17.6927 5.48215H14.5918V4.14292C14.6113 3.5318 14.1371 3.02036 13.5326 3.00062C13.5018 2.99962 13.471 2.99992 13.4402 3.00153H8.84909C8.24509 2.96971 7.72995 3.43892 7.69844 4.04951C7.69682 4.08062 7.69652 4.11178 7.69754 4.14292V5.47454H4.59663C3.39992 5.47454 2 6.16318 2 8.09973V16.3748C2 18.3114 3.39992 19 4.59663 19H17.6927C18.8894 19 20.2893 18.3114 20.2893 16.3748V8.10734C20.2893 6.17078 18.8932 5.48215 17.6927 5.48215ZM8.45019 4.14292C8.45019 4.03258 8.45019 3.73582 8.85286 3.73582H13.4402C13.8429 3.73582 13.8429 4.02878 13.8429 4.14292V5.47454H8.45019V4.14292ZM19.5367 16.3748C19.5367 18.0565 18.2497 18.2391 17.6927 18.2391H4.59663C4.04344 18.2391 2.75265 18.0565 2.75265 16.3748V8.10734C2.75265 6.42569 4.03968 6.24307 4.59663 6.24307H17.6927C18.2459 6.24307 19.5367 6.42569 19.5367 8.10734V16.3748Z" fill="white" stroke="white" stroke-width="0.4"/>
</svg>
