<svg width="20" height="20" viewBox="0 0 20 20" fill="none" xmlns="http://www.w3.org/2000/svg">
<path fill-rule="evenodd" clip-rule="evenodd" d="M13.9224 17.5836L13.3881 15.1063C13.3863 15.0981 13.3849 15.0897 13.3839 15.0813L12.9347 12.5772L12.5701 10.0511C12.5682 10.0377 12.5673 10.0241 12.5674 10.0105C12.5579 9.73961 12.6419 9.47371 12.8053 9.25744L12.8181 9.24195C12.9833 9.03182 13.2176 8.88698 13.4794 8.83313L13.4941 8.83048C14.0944 8.72998 14.6863 8.58434 15.2647 8.39483C15.83 8.19199 16.3772 7.94192 16.9005 7.64726C17.0099 7.54328 17.0827 7.40663 17.1079 7.25782C17.133 7.109 17.1093 6.95604 17.0402 6.82186C16.9707 6.6878 16.8573 6.58168 16.719 6.52129C16.5722 6.45735 16.4087 6.44283 16.2529 6.47991H16.2516C14.3072 7.07407 12.6016 7.40015 10.873 7.41243C9.14019 7.42471 7.39172 7.12244 5.36496 6.46007C5.21446 6.42689 5.05721 6.44437 4.91768 6.5098C4.77814 6.57523 4.66414 6.68494 4.5934 6.82186C4.52084 6.96535 4.49759 7.12876 4.52728 7.2868C4.55304 7.43317 4.62439 7.56765 4.73113 7.67107C5.25402 7.95636 5.79876 8.19964 6.3602 8.3986C6.93851 8.58667 7.5302 8.73079 8.13021 8.82972L8.13626 8.83105C8.4062 8.88722 8.64586 9.04117 8.8092 9.2633C8.97475 9.48754 9.05813 9.7619 9.04535 10.0403C9.04535 10.0488 9.04422 10.0572 9.04309 10.0655L8.67828 12.5781C8.67705 12.5868 8.67535 12.5955 8.67318 12.604C8.3743 14.2701 8.08752 15.9576 7.70646 17.6072C7.67973 17.7322 7.6871 17.8621 7.72781 17.9832C7.78116 18.1422 7.88669 18.2784 8.02727 18.3699C8.16784 18.4613 8.3352 18.5025 8.50215 18.4868C8.66911 18.4711 8.82585 18.3994 8.94693 18.2834C9.068 18.1674 9.1463 18.0139 9.1691 17.8477C9.17048 17.8384 9.17218 17.8293 9.1742 17.8205L10.3705 12.9981L10.3763 12.9781C10.4048 12.8824 10.4638 12.7986 10.5442 12.7394C10.6246 12.6803 10.7221 12.6489 10.822 12.6501H10.8229C10.926 12.6511 11.0257 12.6867 11.1062 12.7512C11.1866 12.8157 11.2431 12.9053 11.2665 13.0057L12.4599 17.8198C12.4627 17.831 12.4647 17.8424 12.4658 17.854C12.4802 17.9526 12.5143 18.0473 12.5662 18.1325C12.618 18.2177 12.6865 18.2915 12.7675 18.3496C12.8485 18.4076 12.9405 18.4488 13.0377 18.4706C13.135 18.4923 13.2357 18.4942 13.3338 18.4762C13.4318 18.4581 13.5252 18.4205 13.6084 18.3655C13.6916 18.3106 13.7628 18.2394 13.8178 18.1562C13.8729 18.0731 13.9106 17.9798 13.9287 17.8817C13.9468 17.7837 13.945 17.683 13.9233 17.5857V17.5836H13.9224ZM13.8912 14.9995L14.4257 17.4771C14.4616 17.6415 14.4641 17.8114 14.433 17.9768C14.4019 18.1422 14.3379 18.2997 14.2447 18.4398C14.1515 18.58 14.0311 18.6999 13.8906 18.7926C13.7502 18.8853 13.5925 18.9487 13.427 18.9792C13.2615 19.0097 13.0915 19.0066 12.9273 18.9701C12.763 18.9336 12.6077 18.8644 12.4707 18.7667C12.3337 18.6689 12.2178 18.5446 12.1298 18.4012C12.0418 18.2577 11.9836 18.098 11.9585 17.9316L10.8163 13.3304L9.67503 17.9318C9.63232 18.2103 9.49736 18.4664 9.29179 18.6591C9.08621 18.8518 8.82191 18.9699 8.54123 18.9945C8.26055 19.0191 7.97973 18.9488 7.74376 18.7948C7.5078 18.6408 7.33034 18.4121 7.23982 18.1453C7.16963 17.9365 7.15729 17.7125 7.20412 17.4973L7.72025 15.0016C8.02574 13.2998 8.28305 11.7144 8.53167 10.0035C8.53591 9.84756 8.48804 9.69466 8.39565 9.56898C8.30711 9.44829 8.17714 9.36453 8.03065 9.33377C7.4081 9.23061 6.7942 9.08075 6.19414 8.88546C5.6009 8.67537 5.02537 8.41825 4.47306 8.11654C4.45008 8.10604 4.42876 8.09223 4.40977 8.07555C4.20573 7.89364 4.06884 7.64835 4.02116 7.37918C3.97078 7.10932 4.01096 6.83038 4.13546 6.58571C4.25928 6.34579 4.45964 6.15405 4.70477 6.04088C4.94989 5.92771 5.22578 5.89958 5.4887 5.96094L5.50986 5.96699C7.49128 6.61537 9.19158 6.91198 10.87 6.89913C12.544 6.88723 14.2035 6.56908 16.1014 5.98947C16.1127 5.98509 16.1242 5.98149 16.136 5.9787C16.4002 5.91634 16.6774 5.94154 16.926 6.05049C17.1725 6.15813 17.3743 6.34742 17.4975 6.58646C17.6205 6.82508 17.6608 7.09771 17.6123 7.3617C17.5638 7.6257 17.4292 7.86618 17.2295 8.04551C17.2125 8.0616 17.1934 8.07533 17.1728 8.08632C16.6161 8.40066 16.0336 8.66706 15.4317 8.88262C14.8293 9.07974 14.2129 9.2313 13.5878 9.33604H13.5838C13.4413 9.36514 13.3135 9.44329 13.2226 9.55689L13.2139 9.56917C13.1234 9.69003 13.0764 9.83799 13.0807 9.98895L13.4435 12.5041L13.8897 14.9901L13.8916 14.9988L13.8912 14.9995ZM12.63 4.32941C12.6293 3.95483 12.5126 3.58965 12.2958 3.28419C12.079 2.97873 11.7728 2.74802 11.4194 2.62383C11.066 2.49965 10.6827 2.4881 10.3225 2.59079C9.96227 2.69347 9.64274 2.90534 9.40793 3.19719C9.17312 3.48904 9.03459 3.84653 9.01142 4.2204C8.98825 4.59426 9.08158 4.96612 9.27855 5.28473C9.47553 5.60335 9.76645 5.85304 10.1113 5.99942C10.4561 6.1458 10.8378 6.18166 11.2038 6.10207C11.3306 6.07481 11.4541 6.03382 11.572 5.97983C11.8879 5.83502 12.1556 5.60248 12.3432 5.30988C12.5307 5.01729 12.6303 4.67696 12.63 4.32941ZM12.463 2.6822C12.844 3.06325 13.0812 3.56464 13.134 4.10094C13.1868 4.63724 13.052 5.17526 12.7526 5.62333C12.4532 6.07139 12.0077 6.40177 11.492 6.55818C10.9763 6.71459 10.4223 6.68734 9.92446 6.48108C9.4266 6.27482 9.01566 5.90231 8.76167 5.42702C8.50768 4.95174 8.42635 4.40309 8.53155 3.87456C8.63674 3.34604 8.92194 2.87034 9.33855 2.52852C9.75517 2.1867 10.2774 1.99992 10.8163 2C11.1223 1.99967 11.4253 2.05977 11.7079 2.17684C11.9906 2.29391 12.2474 2.46565 12.4635 2.6822H12.463Z" fill="white" stroke="white" stroke-width="0.4"/>
</svg>
