<svg width="20" height="20" viewBox="0 0 20 20" fill="none" xmlns="http://www.w3.org/2000/svg">
<path d="M8.41763 15.3814C8.14763 15.3364 7.96262 15.0764 8.01264 14.8014C8.06264 14.5314 8.31763 14.3464 8.59264 14.3964C11.8176 14.9564 15.0227 13.6064 16.9226 10.5164C13.6326 5.17146 6.38255 5.16634 3.0875 10.5164C4.0075 12.0064 5.25247 13.1465 6.71247 13.8164C6.96247 13.9314 7.07247 14.2264 6.95746 14.4814C6.84246 14.7314 6.54746 14.8414 6.29247 14.7264C4.56255 13.9314 3.10238 12.5664 2.0675 10.7664C1.9775 10.6114 1.9775 10.4214 2.0675 10.2664C5.72255 3.92144 14.2725 3.91136 17.9325 10.2664C18.0225 10.4214 18.0225 10.6114 17.9325 10.7664C15.8325 14.4163 12.1325 16.0314 8.41248 15.3815L8.41763 15.3814Z" fill="white" stroke="white" stroke-width="0.2"/>
<path d="M14.3551 14.1608L12.445 12.2507C13.855 10.2756 12.435 7.51562 10 7.51562C8.34496 7.51562 7 8.86062 7 10.5156C7 12.9507 9.76001 14.3656 11.7351 12.9606L13.6451 14.8707C13.7451 14.9707 13.8701 15.0157 14.0001 15.0157C14.4401 15.0157 14.6701 14.4808 14.3551 14.1608ZM8 10.5158C8 9.4108 8.89501 8.51579 10 8.51579C11.105 8.51579 12 9.4108 12 10.5158C12 11.6208 11.105 12.5158 10 12.5158C8.89501 12.5158 8 11.6208 8 10.5158Z" fill="white" stroke="white" stroke-width="0.2"/>
</svg>
