<svg width="20" height="20" viewBox="0 0 20 20" fill="none" xmlns="http://www.w3.org/2000/svg">
<path d="M13.2619 15.959C12.8866 17.409 11.5694 18.4798 10.0021 18.4798C8.43474 18.4798 7.11754 17.409 6.74219 15.959" stroke="white"/>
<path d="M4.70666 8.6192C4.70666 5.69378 7.07817 3.32227 10.0036 3.32227C12.929 3.32227 15.3005 5.69378 15.3005 8.6192V9.28093C15.3005 9.80646 15.4179 10.3254 15.6441 10.7997L16.703 13.0205C17.1678 13.9954 16.6903 15.1525 15.6543 15.4579C14.0575 15.9287 11.7671 16.496 10.0035 16.4961C8.23957 16.4961 5.94861 15.9287 4.3515 15.4579C3.31572 15.1525 2.83836 13.9954 3.30331 13.0208L4.3628 10.8C4.58918 10.3254 4.70666 9.80634 4.70666 9.28058V8.6192Z" stroke="white" stroke-width="1.3" stroke-linejoin="round"/>
<path d="M8.50781 3.24341L8.50781 3.01891C8.50781 2.19406 9.17648 1.52539 10.0013 1.52539C10.8262 1.52539 11.4948 2.19406 11.4948 3.01891V3.24341" stroke="white" stroke-linecap="round" stroke-linejoin="round"/>
</svg>
