<svg width="20" height="20" viewBox="0 0 20 20" fill="none" xmlns="http://www.w3.org/2000/svg">
<path d="M10.0909 12.6818H10.3182H10.5909H10.8182H12.6364C12.7617 12.6818 12.8636 12.7838 12.8636 12.9091V17.2727C12.8636 17.398 12.7617 17.5 12.6364 17.5H8.27273C8.14741 17.5 8.04545 17.398 8.04545 17.2727V12.9091C8.04545 12.7838 8.14742 12.6818 8.27273 12.6818H10.0909ZM16.8636 12.6818H17.1364H17.3636H19.1818C19.3071 12.6818 19.4091 12.7838 19.4091 12.9091V17.2727C19.4091 17.398 19.3071 17.5 19.1818 17.5H14.8182C14.6929 17.5 14.5909 17.398 14.5909 17.2727V12.9091C14.5909 12.7838 14.6929 12.6818 14.8182 12.6818H16.6364H16.8636ZM10.8182 7.31818H10.5909H10.3182H10.0909H8.27273C8.14741 7.31818 8.04545 7.21622 8.04545 7.09091V2.72727C8.04545 2.60196 8.14741 2.5 8.27273 2.5H12.6364C12.7617 2.5 12.8636 2.60196 12.8636 2.72727V7.09091C12.8636 7.21622 12.7617 7.31818 12.6364 7.31818H10.8182ZM3.77273 12.6818H4.04545H4.27273H6.09091C6.21622 12.6818 6.31818 12.7838 6.31818 12.9091V17.2727C6.31818 17.398 6.21622 17.5 6.09091 17.5H1.72727C1.60196 17.5 1.5 17.398 1.5 17.2727V12.9091C1.5 12.7838 1.60196 12.6818 1.72727 12.6818H3.54545H3.77273Z" stroke="white"/>
</svg>
