<svg width="20" height="20" viewBox="0 0 20 20" fill="none" xmlns="http://www.w3.org/2000/svg">
<path fill-rule="evenodd" clip-rule="evenodd" d="M3.81528 2C2.81463 2 2 2.81447 2 3.81528V13.777C2 14.7778 2.81463 15.5944 3.81528 15.5944H7.95663L9.88094 17.8998C9.90714 17.9312 9.93991 17.9564 9.97692 17.9737C10.0139 17.991 10.0543 18 10.0952 18C10.136 18 10.1764 17.991 10.2134 17.9737C10.2505 17.9564 10.2832 17.9312 10.3094 17.8998L12.2315 15.5944H16.3729C17.3736 15.5944 18.1882 14.7778 18.1882 13.777V3.81528C18.1882 2.81447 17.3736 2 16.3729 2H3.81528ZM3.81528 2.55876H16.3729C17.0739 2.55876 17.63 3.11397 17.63 3.81528V13.777C17.63 14.4783 17.0739 15.0362 16.3729 15.0362H12.1018C12.0611 15.036 12.0208 15.0448 11.9838 15.0618C11.9467 15.0789 11.9139 15.1038 11.8876 15.1349L10.0952 17.2838L8.30279 15.1349C8.27645 15.1038 8.24362 15.0789 8.20661 15.0618C8.1696 15.0448 8.1293 15.036 8.08855 15.0362H3.81528C3.11431 15.0362 2.55821 14.4783 2.55821 13.777V3.81528C2.55821 3.11398 3.11431 2.55876 3.81528 2.55876ZM10.0957 4.62317C10.0443 4.62319 9.99386 4.63741 9.94999 4.66424C9.90613 4.69108 9.87054 4.7295 9.84714 4.77526L8.62823 7.1602L5.98054 7.57886C5.92967 7.58686 5.882 7.60876 5.84281 7.64213C5.80362 7.6755 5.77443 7.71905 5.75847 7.76796C5.7425 7.81687 5.74039 7.86924 5.75235 7.91927C5.76432 7.96931 5.7899 8.01507 5.82627 8.05149L7.72005 9.9469L7.30139 12.5919C7.29333 12.6426 7.29945 12.6946 7.31908 12.7421C7.33871 12.7896 7.37109 12.8307 7.41264 12.861C7.45419 12.8913 7.50331 12.9095 7.55457 12.9137C7.60583 12.9178 7.65724 12.9078 7.70315 12.8846L10.0935 11.6706L12.4812 12.8857C12.5271 12.9091 12.5785 12.9193 12.6298 12.9153C12.6811 12.9114 12.7303 12.8933 12.772 12.8631C12.8137 12.8329 12.8462 12.7918 12.866 12.7443C12.8858 12.6969 12.892 12.6449 12.8841 12.5941L12.467 9.94908L14.363 8.05476C14.3992 8.01836 14.4247 7.97268 14.4366 7.92276C14.4485 7.87285 14.4464 7.82061 14.4305 7.77181C14.4146 7.72302 14.3855 7.67954 14.3465 7.64617C14.3075 7.6128 14.26 7.59083 14.2093 7.58267L11.5616 7.16075L10.3443 4.77526C10.3209 4.7295 10.2853 4.69108 10.2415 4.66424C10.1976 4.63741 10.1472 4.62319 10.0957 4.62317ZM10.0963 5.51609L11.1293 7.5407C11.1493 7.57972 11.1782 7.61349 11.2138 7.63925C11.2493 7.66501 11.2904 7.68205 11.3337 7.68898L13.5813 8.04767L11.9726 9.65526C11.9416 9.68627 11.9183 9.72414 11.9047 9.76582C11.891 9.80749 11.8874 9.85179 11.8941 9.89512L12.2474 12.1405L10.2195 11.1097C10.1804 11.0899 10.1371 11.0796 10.0933 11.0796C10.0494 11.0796 10.0062 11.0899 9.96708 11.1097L7.9381 12.14L8.29353 9.89402C8.30039 9.85065 8.29691 9.80628 8.28336 9.7645C8.26981 9.72273 8.24659 9.68474 8.21557 9.65363L6.60853 8.04494L8.85555 7.68898C8.89914 7.68215 8.94049 7.6651 8.97621 7.63924C9.01194 7.61337 9.04101 7.57941 9.06107 7.54016L10.0963 5.51609Z" fill="white" stroke="white" stroke-width="0.4"/>
</svg>
