<svg width="20" height="20" viewBox="0 0 20 20" fill="none" xmlns="http://www.w3.org/2000/svg">
<path d="M5.23438 7.04297H12.3873" stroke="white" stroke-width="1.2" stroke-linecap="round" stroke-linejoin="round"/>
<path d="M5.23438 10.0195H9.21887" stroke="white" stroke-width="1.2" stroke-linecap="round" stroke-linejoin="round"/>
<path d="M2 5.5C2 3.567 3.567 2 5.5 2H14.6875C16.6205 2 18.1875 3.567 18.1875 5.5L18.1875 11.5619C18.1875 13.4949 16.6205 15.0619 14.6875 15.0619H13.1758C12.8894 15.0619 12.6212 15.202 12.4576 15.437L10.8119 17.8013C10.4637 18.3014 9.72375 18.3014 9.37561 17.8013L7.72986 15.437C7.56627 15.202 7.29805 15.0619 7.01171 15.0619H5.5C3.567 15.0619 2 13.4949 2 11.5619V5.5Z" stroke="white" stroke-width="1.2" stroke-linejoin="round"/>
</svg>
