<svg width="20" height="20" viewBox="0 0 20 20" fill="none" xmlns="http://www.w3.org/2000/svg">
<path d="M16.5989 8.45778C16.5989 8.29202 16.5331 8.13305 16.4159 8.01584C16.2987 7.89863 16.1397 7.83278 15.9739 7.83278C15.8082 7.83278 15.6492 7.89863 15.532 8.01584C15.4148 8.13305 15.3489 8.29202 15.3489 8.45778H16.5989ZM4.93226 8.45778C4.93226 8.29202 4.86641 8.13305 4.7492 8.01584C4.63199 7.89863 4.47302 7.83278 4.30726 7.83278C4.1415 7.83278 3.98253 7.89863 3.86532 8.01584C3.74811 8.13305 3.68226 8.29202 3.68226 8.45778H4.93226ZM17.1989 10.5661C17.2561 10.6275 17.3251 10.6768 17.4018 10.7109C17.4785 10.7451 17.5612 10.7635 17.6452 10.7649C17.7291 10.7664 17.8124 10.751 17.8903 10.7196C17.9681 10.6881 18.0388 10.6413 18.0981 10.582C18.1575 10.5226 18.2043 10.4519 18.2357 10.3741C18.2671 10.2963 18.2826 10.2129 18.2811 10.129C18.2796 10.0451 18.2612 9.96233 18.2271 9.88567C18.1929 9.809 18.1437 9.74 18.0823 9.68278L17.1989 10.5661ZM10.1406 2.62445L10.5823 2.18278C10.4651 2.06574 10.3062 2 10.1406 2C9.97497 2 9.81611 2.06574 9.69893 2.18278L10.1406 2.62445ZM2.19892 9.68278C2.13752 9.74 2.08827 9.809 2.05411 9.88567C2.01995 9.96233 2.00158 10.0451 2.0001 10.129C1.99862 10.2129 2.01405 10.2963 2.04549 10.3741C2.07692 10.4519 2.12371 10.5226 2.18306 10.582C2.24241 10.6413 2.3131 10.6881 2.39093 10.7196C2.46875 10.751 2.55211 10.7664 2.63603 10.7649C2.71994 10.7635 2.80271 10.7451 2.87937 10.7109C2.95604 10.6768 3.02504 10.6275 3.08226 10.5661L2.19892 9.68278ZM5.97392 18.2494H14.3073V16.9994H5.97392V18.2494ZM16.5989 15.9578V8.45778H15.3489V15.9578H16.5989ZM4.93226 15.9578V8.45778H3.68226V15.9578H4.93226ZM18.0823 9.68278L10.5823 2.18278L9.69893 3.06612L17.1989 10.5661L18.0823 9.68278ZM9.69893 2.18278L2.19892 9.68278L3.08226 10.5661L10.5823 3.06612L9.69893 2.18278ZM14.3073 18.2494C14.915 18.2494 15.4979 18.008 15.9277 17.5782C16.3575 17.1485 16.5989 16.5656 16.5989 15.9578H15.3489C15.3489 16.5328 14.8823 16.9994 14.3073 16.9994V18.2494ZM5.97392 16.9994C5.39892 16.9994 4.93226 16.5328 4.93226 15.9578H3.68226C3.68226 16.5656 3.9237 17.1485 4.35347 17.5782C4.78324 18.008 5.36614 18.2494 5.97392 18.2494V16.9994Z" fill="#FEFEFE"/>
</svg>
