<svg width="20" height="20" viewBox="0 0 20 20" fill="none" xmlns="http://www.w3.org/2000/svg">
<mask id="path-1-inside-1_2549_9154" fill="white">
<path d="M9.90337 4.47126L9.45379 4.89131C9.51135 4.95292 9.58097 5.00204 9.6583 5.03562C9.73564 5.0692 9.81906 5.08653 9.90337 5.08653C9.98769 5.08653 10.0711 5.0692 10.1484 5.03562C10.2258 5.00204 10.2954 4.95292 10.353 4.89131L9.90337 4.47126ZM7.79821 15.3187C6.60861 14.3539 5.22048 13.088 4.13426 11.7023C3.03574 10.3019 2.3146 8.86373 2.3146 7.54287H1.08398C1.08398 9.27968 2.01105 10.9902 3.16536 12.462C4.33198 13.9494 5.79887 15.281 7.02292 16.2745L7.79821 15.3187ZM2.3146 7.54287C2.3146 5.15959 3.35487 3.68695 4.64127 3.1824C5.92521 2.67949 7.72109 3.03883 9.45379 4.89131L10.353 4.05121C8.39382 1.95589 6.08765 1.29464 4.19251 2.03629C2.29983 2.77794 1.08398 4.81419 1.08398 7.54287H2.3146ZM12.783 16.2737C14.0079 15.2801 15.4748 13.9486 16.6414 12.4612C17.7957 10.9894 18.7228 9.27886 18.7228 7.54123H17.4921C17.4921 8.86373 16.7702 10.3011 15.6725 11.7015C14.5863 13.0872 13.1981 14.3531 12.0085 15.3179L12.783 16.2737ZM18.7228 7.54123C18.7228 4.81337 17.5069 2.77712 15.6134 2.03629C13.7183 1.29382 11.4129 1.95425 9.45379 4.05039L10.353 4.89131C12.0857 3.03883 13.8815 2.67867 15.1655 3.18158C16.4519 3.68531 17.4921 5.15876 17.4921 7.54123H18.7228ZM7.02292 16.2745C8.06484 17.1211 8.78926 17.7422 9.90337 17.7422V16.5116C9.31022 16.5116 8.94103 16.2458 7.79821 15.3187L7.02292 16.2745ZM12.0085 15.3179C10.8657 16.2449 10.4965 16.5116 9.90337 16.5116V17.7422C11.0175 17.7422 11.7419 17.1211 12.7838 16.2745L12.0085 15.3179Z"/>
</mask>
<path d="M9.90337 4.47126L9.45379 4.89131C9.51135 4.95292 9.58097 5.00204 9.6583 5.03562C9.73564 5.0692 9.81906 5.08653 9.90337 5.08653C9.98769 5.08653 10.0711 5.0692 10.1484 5.03562C10.2258 5.00204 10.2954 4.95292 10.353 4.89131L9.90337 4.47126ZM7.79821 15.3187C6.60861 14.3539 5.22048 13.088 4.13426 11.7023C3.03574 10.3019 2.3146 8.86373 2.3146 7.54287H1.08398C1.08398 9.27968 2.01105 10.9902 3.16536 12.462C4.33198 13.9494 5.79887 15.281 7.02292 16.2745L7.79821 15.3187ZM2.3146 7.54287C2.3146 5.15959 3.35487 3.68695 4.64127 3.1824C5.92521 2.67949 7.72109 3.03883 9.45379 4.89131L10.353 4.05121C8.39382 1.95589 6.08765 1.29464 4.19251 2.03629C2.29983 2.77794 1.08398 4.81419 1.08398 7.54287H2.3146ZM12.783 16.2737C14.0079 15.2801 15.4748 13.9486 16.6414 12.4612C17.7957 10.9894 18.7228 9.27886 18.7228 7.54123H17.4921C17.4921 8.86373 16.7702 10.3011 15.6725 11.7015C14.5863 13.0872 13.1981 14.3531 12.0085 15.3179L12.783 16.2737ZM18.7228 7.54123C18.7228 4.81337 17.5069 2.77712 15.6134 2.03629C13.7183 1.29382 11.4129 1.95425 9.45379 4.05039L10.353 4.89131C12.0857 3.03883 13.8815 2.67867 15.1655 3.18158C16.4519 3.68531 17.4921 5.15876 17.4921 7.54123H18.7228ZM7.02292 16.2745C8.06484 17.1211 8.78926 17.7422 9.90337 17.7422V16.5116C9.31022 16.5116 8.94103 16.2458 7.79821 15.3187L7.02292 16.2745ZM12.0085 15.3179C10.8657 16.2449 10.4965 16.5116 9.90337 16.5116V17.7422C11.0175 17.7422 11.7419 17.1211 12.7838 16.2745L12.0085 15.3179Z" fill="#32DACB"/>
<path d="M7.02292 16.2745L6.53753 15.8807L7.50794 16.6687L7.02292 16.2745ZM6.92595 15.4028L6.5379 15.8803L7.50794 16.6687L7.89599 16.1912L6.92595 15.4028ZM11.9108 16.1912L12.2988 16.6687L13.2688 15.8803L12.8808 15.4028L11.9108 16.1912ZM10.5284 17.1269V16.5116H9.27837V17.1269H10.5284ZM2.3146 6.91787H1.08398V8.16787H2.3146V6.91787ZM7.50831 16.6682L8.2836 15.7124L7.31282 14.925L6.53753 15.8807L7.50831 16.6682ZM18.7228 6.91623H17.4921V8.16623H18.7228V6.91623ZM10.5284 17.7422V16.5116H9.27837V17.7422H10.5284ZM7.02292 16.2745L7.81122 15.3044L7.81067 15.3039L7.02292 16.2745ZM9.90337 4.47126L10.7567 3.55789L9.90337 2.76058L9.05 3.55789L9.90337 4.47126ZM12.7838 16.2745L13.5721 17.2446L14.541 16.4573L13.7549 15.4874L12.7838 16.2745ZM7.79821 15.3187L8.58569 14.3479L8.58559 14.3479L7.79821 15.3187ZM4.13426 11.7023L5.11803 10.9312L5.11778 10.9309L4.13426 11.7023ZM3.16536 12.462L2.18178 13.2334L2.1818 13.2335L3.16536 12.462ZM4.64127 3.1824L4.18538 2.0185L4.18485 2.01871L4.64127 3.1824ZM10.353 4.05121L11.2063 4.96459L12.12 4.1109L11.266 3.1975L10.353 4.05121ZM4.19251 2.03629L3.73697 0.872252L3.73646 0.872453L4.19251 2.03629ZM12.783 16.2737L11.8118 17.0606L12.5992 18.0323L13.5704 17.2445L12.783 16.2737ZM16.6414 12.4612L17.6249 13.2327L17.625 13.2326L16.6414 12.4612ZM15.6725 11.7015L16.6563 12.4727L16.6563 12.4727L15.6725 11.7015ZM12.0085 15.3179L11.2212 14.347L11.2211 14.3471L12.0085 15.3179ZM15.6134 2.03629L15.1574 3.20016L15.158 3.20037L15.6134 2.03629ZM9.45379 4.05039L8.54057 3.19686L7.68729 4.1098L8.59997 4.96335L9.45379 4.05039ZM15.1655 3.18158L14.7096 4.34548L14.7097 4.34552L15.1655 3.18158ZM9.05 3.55789L8.60042 3.97794L10.3072 5.80469L10.7567 5.38464L9.05 3.55789ZM8.54046 5.74473C8.71496 5.93149 8.92599 6.08039 9.16045 6.18219L10.1562 3.88904C10.2359 3.92368 10.3077 3.97435 10.3671 4.03789L8.54046 5.74473ZM9.16045 6.18219C9.3949 6.284 9.64777 6.33653 9.90337 6.33653V3.83653C9.99034 3.83653 10.0764 3.8544 10.1562 3.88904L9.16045 6.18219ZM9.90337 6.33653C10.159 6.33653 10.4118 6.284 10.6463 6.18219L9.65058 3.88904C9.73036 3.8544 9.8164 3.83653 9.90337 3.83653V6.33653ZM10.6463 6.18219C10.8807 6.08039 11.0918 5.93149 11.2663 5.74473L9.43962 4.03789C9.49901 3.97434 9.57081 3.92368 9.65058 3.88904L10.6463 6.18219ZM11.2063 3.97794L10.7567 3.55789L9.05 5.38464L9.49959 5.80469L11.2063 3.97794ZM8.58559 14.3479C7.43194 13.4122 6.12317 12.2134 5.11803 10.9312L3.1505 12.4735C4.3178 13.9626 5.78529 15.2956 7.01082 16.2895L8.58559 14.3479ZM5.11778 10.9309C4.07652 9.60342 3.5646 8.44165 3.5646 7.54287H1.0646C1.0646 9.28581 1.99496 11.0004 3.15074 12.4738L5.11778 10.9309ZM-0.166016 7.54287C-0.166016 9.70164 0.970144 11.6885 2.18178 13.2334L4.14894 11.6906C3.05195 10.2919 2.33398 8.85771 2.33398 7.54287H-0.166016ZM2.1818 13.2335C3.42952 14.8243 4.97573 16.2228 6.23517 17.245L7.81067 15.3039C6.62201 14.3391 5.23444 13.0746 4.14892 11.6906L2.1818 13.2335ZM3.5646 7.54287C3.5646 5.51429 4.42299 4.61073 5.0977 4.34609L4.18485 2.01871C2.28676 2.76318 1.0646 4.80488 1.0646 7.54287H3.5646ZM5.09717 4.3463C5.76243 4.08572 7.04059 4.14118 8.54088 5.74519L10.3667 4.03743C8.40159 1.93648 6.088 1.27326 4.18538 2.0185L5.09717 4.3463ZM10.3072 5.80469L11.2063 4.96459L9.49959 3.13784L8.60042 3.97794L10.3072 5.80469ZM11.266 3.1975C9.07853 0.857958 6.25506 -0.113182 3.73697 0.872252L4.64805 3.20033C5.92025 2.70246 7.70911 3.05382 9.4399 4.90493L11.266 3.1975ZM3.73646 0.872453C1.22671 1.8559 -0.166016 4.46629 -0.166016 7.54287H2.33398C2.33398 5.1621 3.37294 3.69998 4.64856 3.20013L3.73646 0.872453ZM13.5704 17.2445C14.831 16.222 16.3772 14.8235 17.6249 13.2327L15.6578 11.6898C14.5723 13.0738 13.1848 14.3383 11.9956 15.3029L13.5704 17.2445ZM17.625 13.2326C18.8367 11.6876 19.9728 9.70076 19.9728 7.54123H17.4728C17.4728 8.85695 16.7547 10.2912 15.6578 11.6898L17.625 13.2326ZM16.2422 7.54123C16.2422 8.44144 15.7297 9.60232 14.6887 10.9304L16.6563 12.4727C17.8107 10.9998 18.7421 9.28602 18.7421 7.54123H16.2422ZM14.6887 10.9304C13.6836 12.2126 12.3748 13.4114 11.2212 14.347L12.7959 16.2887C14.0215 15.2948 15.4889 13.9618 16.6563 12.4727L14.6887 10.9304ZM11.0374 16.1048L11.8118 17.0606L13.7542 15.4867L12.9797 14.5309L11.0374 16.1048ZM19.9728 7.54123C19.9728 4.46544 18.5799 1.85467 16.0689 0.872215L15.158 3.20037C16.4339 3.69957 17.4728 5.1613 17.4728 7.54123H19.9728ZM16.0694 0.872423C13.5512 -0.114153 10.7282 0.856231 8.54057 3.19686L10.367 4.90393C12.0976 3.05227 13.8854 2.7018 15.1574 3.20016L16.0694 0.872423ZM8.59997 4.96335L9.49914 5.80427L11.2068 3.97835L10.3076 3.13743L8.59997 4.96335ZM11.2659 5.74519C12.7665 4.14081 14.0447 4.08505 14.7096 4.34548L15.6214 2.01768C13.7184 1.27229 11.4048 1.93685 9.44005 4.03743L11.2659 5.74519ZM14.7097 4.34552C15.3835 4.60939 16.2422 5.51308 16.2422 7.54123H18.7421C18.7421 4.80445 17.5202 2.76123 15.6213 2.01764L14.7097 4.34552ZM6.23462 17.2446C7.18305 18.0153 8.26266 18.9922 9.90337 18.9922V16.4922C9.31586 16.4922 8.94663 16.227 7.81122 15.3044L6.23462 17.2446ZM9.90337 15.2616C9.85676 15.2616 9.83306 15.2693 9.69172 15.186C9.47939 15.0608 9.17905 14.8293 8.58569 14.3479L7.01073 16.2895C7.56019 16.7352 8.01585 17.1001 8.42211 17.3396C8.89936 17.6209 9.35683 17.7616 9.90337 17.7616V15.2616ZM11.2211 14.3471C10.6275 14.8286 10.3271 15.0604 10.1145 15.1859C9.97285 15.2695 9.94932 15.2616 9.90337 15.2616V17.7616C10.4506 17.7616 10.9082 17.6204 11.3852 17.3389C11.7912 17.0993 12.2468 16.7342 12.796 16.2886L11.2211 14.3471ZM9.90337 18.9922C11.5441 18.9922 12.6237 18.0153 13.5721 17.2446L11.9955 15.3044C10.8601 16.227 10.4909 16.4922 9.90337 16.4922V18.9922ZM13.7549 15.4874L12.9797 14.5308L11.0374 16.1049L11.8127 17.0615L13.7549 15.4874Z" fill="#32DACB" mask="url(#path-1-inside-1_2549_9154)"/>
<path d="M15.2372 7.27754H13.5964H15.2372ZM13.5964 7.27754H11.9556H13.5964ZM13.5964 7.27754V5.63672V7.27754ZM13.5964 7.27754V8.91835V7.27754Z" fill="#32DACB"/>
<path d="M15.2372 7.27754H13.5964M13.5964 7.27754H11.9556M13.5964 7.27754V5.63672M13.5964 7.27754V8.91835" stroke="#32DACB" stroke-width="1.2" stroke-linecap="round"/>
</svg>
