<svg width="20" height="20" viewBox="0 0 20 20" fill="none" xmlns="http://www.w3.org/2000/svg">
<path d="M18.0535 11.7364C18.033 11.0809 17.7667 10.4663 17.2956 10.0156L10.0439 2.76394C9.65464 2.37473 9.14251 2.14939 8.58942 2.12891C8.54845 2.12891 8.52796 2.12891 8.48699 2.12891L3.32476 2.98928C3.09942 3.03025 2.93554 3.19413 2.89457 3.41946L2.05469 8.60218C2.05469 8.64315 2.05469 8.66363 2.05469 8.7046C2.07517 9.2577 2.30051 9.76983 2.68972 10.159L9.94143 17.4107C10.4126 17.8819 11.0271 18.1482 11.6622 18.1687C11.6827 18.1687 11.7031 18.1687 11.7236 18.1687C12.3587 18.1687 12.9527 17.9229 13.3829 17.4927L17.3775 13.4981C17.8282 13.0065 18.074 12.3919 18.0535 11.7364ZM16.64 12.7402L12.6455 16.7347C12.1128 17.2674 11.2115 17.2469 10.6379 16.6733L3.38622 9.42158C3.20185 9.23722 3.07894 8.97091 3.05845 8.7046L3.85737 3.95207L8.6099 3.15316C8.87621 3.17364 9.12203 3.29655 9.32688 3.48092L16.5786 10.7326C17.1522 11.3062 17.1726 12.2075 16.64 12.7402Z" fill="#32DACB" stroke="#32DACB" stroke-width="0.2"/>
<path d="M5.94346 6.04112C5.18551 6.79906 5.18551 8.02817 5.94346 8.78611C6.31219 9.15484 6.80383 9.35969 7.31596 9.35969C7.82808 9.35969 8.31972 9.15484 8.68846 8.78611C9.05719 8.41738 9.26204 7.92574 9.26204 7.41361C9.26204 6.90149 9.05719 6.40985 8.68846 6.04112C7.95099 5.28317 6.70141 5.28317 5.94346 6.04112ZM7.97148 8.06914C7.8076 8.2535 7.56178 8.33544 7.31596 8.33544C7.07014 8.33544 6.8448 8.23302 6.66044 8.06914C6.29171 7.7004 6.29171 7.12682 6.66044 6.75809C6.8448 6.57373 7.07014 6.49179 7.31596 6.49179C7.56178 6.49179 7.78711 6.57373 7.97148 6.75809C8.13536 6.94246 8.23778 7.16779 8.23778 7.41361C8.23778 7.65943 8.15584 7.90525 7.97148 8.06914Z" fill="#32DACB" stroke="#32DACB" stroke-width="0.2"/>
</svg>
