<svg width="18" height="18" viewBox="0 0 18 18" fill="none" xmlns="http://www.w3.org/2000/svg">
<g clip-path="url(#clip0_159_28774)">
<path d="M3.375 18C3.27554 18 3.18016 17.9605 3.10984 17.8902C3.03951 17.8198 3 17.7245 3 17.625V14.25H1.875C1.3779 14.2494 0.901334 14.0517 0.549832 13.7002C0.198331 13.3487 0.000595447 12.8721 0 12.375L0 1.875C0 0.84075 0.8415 0 1.875 0H16.125C17.1585 0 18 0.84075 18 1.875V12.375C18 13.4093 17.1585 14.25 16.125 14.25H7.28025L3.63975 17.8905C3.56947 17.9606 3.47426 18 3.375 18ZM1.875 0.75C1.25475 0.75 0.75 1.25475 0.75 1.875V12.375C0.75 12.9952 1.25475 13.5 1.875 13.5H3.375C3.47446 13.5 3.56984 13.5395 3.64016 13.6098C3.71049 13.6802 3.75 13.7755 3.75 13.875V16.7197L6.8595 13.6102C6.89433 13.5753 6.93571 13.5476 6.98127 13.5287C7.02682 13.5098 7.07567 13.5 7.125 13.5H16.125C16.7453 13.5 17.25 12.9952 17.25 12.375V1.875C17.25 1.25475 16.7453 0.75 16.125 0.75H1.875Z" fill="black"/>
<path d="M9.74976 11.25H8.24976C7.88901 11.25 7.49976 10.9732 7.49976 10.365V9.375C7.49976 8.9355 7.31001 8.5335 6.99276 8.2995C6.56078 7.98195 6.2112 7.56549 5.97331 7.08502C5.73543 6.60455 5.61616 6.07406 5.62551 5.538C5.65926 3.75225 7.15101 2.27625 8.95026 2.25C9.84876 2.2545 10.7278 2.58225 11.3773 3.2235C11.694 3.53378 11.9454 3.90431 12.1168 4.31328C12.2881 4.72224 12.3758 5.16136 12.3748 5.60475C12.3731 6.12686 12.2498 6.6414 12.0147 7.10758C11.7796 7.57377 11.4391 7.97877 11.0203 8.2905C10.694 8.53275 10.4998 8.94 10.4998 9.38025V10.5C10.4998 10.914 10.163 11.25 9.74976 11.25ZM8.99901 3H8.96076C7.58601 3.02025 6.40176 4.1895 6.37551 5.553C6.36833 5.96905 6.46103 6.38075 6.64581 6.75358C6.83059 7.12642 7.10208 7.4495 7.43751 7.69575C7.94601 8.07075 8.24976 8.6985 8.24976 9.375V10.365C8.24976 10.4767 8.27676 10.5135 8.27676 10.5135L9.74976 10.5V9.38025C9.74976 8.7045 10.0573 8.07225 10.5725 7.68825C10.8997 7.44848 11.1656 7.13476 11.3485 6.77267C11.5313 6.41058 11.626 6.01039 11.6248 5.60475C11.6248 4.90575 11.3495 4.2495 10.85 3.7575C10.3578 3.26959 9.69203 2.99712 8.99901 3Z" fill="black"/>
<path d="M10.124 9.75H7.87402C7.77457 9.75 7.67918 9.71049 7.60886 9.64017C7.53853 9.56984 7.49902 9.47446 7.49902 9.375C7.49902 9.27554 7.53853 9.18016 7.60886 9.10983C7.67918 9.03951 7.77457 9 7.87402 9H10.124C10.2235 9 10.3189 9.03951 10.3892 9.10983C10.4595 9.18016 10.499 9.27554 10.499 9.375C10.499 9.47446 10.4595 9.56984 10.3892 9.64017C10.3189 9.71049 10.2235 9.75 10.124 9.75Z" fill="black"/>
</g>
<defs>
<clipPath id="clip0_159_28774">
<rect width="18" height="18" fill="white"/>
</clipPath>
</defs>
</svg>
