<svg width="8" height="24" viewBox="0 0 8 24" fill="none" xmlns="http://www.w3.org/2000/svg">
<path fill-rule="evenodd" clip-rule="evenodd" d="M2.5 5C2.5 4.60218 2.65804 4.22064 2.93934 3.93934C3.22064 3.65804 3.60218 3.5 4 3.5H4.01C4.40782 3.5 4.78936 3.65804 5.07066 3.93934C5.35197 4.22064 5.51 4.60218 5.51 5V5.01C5.51 5.40782 5.35197 5.78936 5.07066 6.07066C4.78936 6.35196 4.40782 6.51 4.01 6.51H4C3.60218 6.51 3.22064 6.35196 2.93934 6.07066C2.65804 5.78936 2.5 5.40782 2.5 5.01V5ZM2.5 12C2.5 11.6022 2.65804 11.2206 2.93934 10.9393C3.22064 10.658 3.60218 10.5 4 10.5H4.01C4.40782 10.5 4.78936 10.658 5.07066 10.9393C5.35197 11.2206 5.51 11.6022 5.51 12V12.01C5.51 12.4078 5.35197 12.7894 5.07066 13.0707C4.78936 13.352 4.40782 13.51 4.01 13.51H4C3.60218 13.51 3.22064 13.352 2.93934 13.0707C2.65804 12.7894 2.5 12.4078 2.5 12.01V12ZM4 17.5C3.60218 17.5 3.22064 17.658 2.93934 17.9393C2.65804 18.2206 2.5 18.6022 2.5 19V19.01C2.5 19.4078 2.65804 19.7894 2.93934 20.0707C3.22064 20.352 3.60218 20.51 4 20.51H4.01C4.40782 20.51 4.78936 20.352 5.07066 20.0707C5.35197 19.7894 5.51 19.4078 5.51 19.01V19C5.51 18.6022 5.35197 18.2206 5.07066 17.9393C4.78936 17.658 4.40782 17.5 4.01 17.5H4Z" fill="#3D3D3D"/>
</svg>
